<mxfile host="Electron" agent="Mozilla/5.0 (Windows NT 10.0; Win64; x64) AppleWebKit/537.36 (KHTML, like Gecko) draw.io/26.0.9 Chrome/128.0.6613.186 Electron/32.2.5 Safari/537.36" version="26.0.9">
  <diagram name="Seite-1" id="sRpWafxyARVKG8IlyDYz">
    <mxGraphModel dx="1434" dy="956" grid="1" gridSize="10" guides="1" tooltips="1" connect="1" arrows="1" fold="1" page="1" pageScale="1" pageWidth="827" pageHeight="1169" math="0" shadow="0">
      <root>
        <mxCell id="0" />
        <mxCell id="1" parent="0" />
        <mxCell id="5M5S_JfumDmxrn6SgT74-1" value="" style="shape=image;verticalLabelPosition=bottom;labelBackgroundColor=none;verticalAlign=top;aspect=fixed;imageAspect=0;image=data:image/png,iVBORw0KGgoAAAANSUhEUgAAAksAAAH0CAYAAAAtyWk/AAAAxXpUWHRSYXcgcHJvZmlsZSB0eXBlIGV4aWYAAHjabVBBDsMgDLvzij0hxIGG59CVSvvBnr/QgFS2WcJJ49Y1Ce39OsOjg6MESZvmkjMZpEjhao2So14cSS6+IDvxmC7zcMpo2SqswgXNXuOcjw9mjdW6dDPS5xD2VSjilfXLyPMQeqLeH8OoDCOwC3EYVL8W5aLb/Qp7oxXqJ3QSXWP/PG+2vSPZf8DcEEHGgHgA9IOA2gVjhtiLEcl6QTEmzCS2kH97mggfejhZfNRiE+8AAAGEaUNDUElDQyBwcm9maWxlAAB4nH2RPUjDUBSFT1OlUioOdijFIUN1souKOJYqFsFCaSu06mDy0j9o0pCkuDgKrgUHfxarDi7Oujq4CoLgD4iri5Oii5R4X1JoEeODy/s4753DffcBQrvOVHMgAaiaZWRTSbFQXBUDrwgighBVVGKmns4t5uG5vu7h4/tdnGd53/tzDSslkwE+kTjBdMMi3iCe3bR0zvvEYVaVFOJz4kmDGiR+5Lrs8hvnisMCzwwb+ew8cZhYrPSx3MesaqjEM8QxRdUoXyi4rHDe4qzWm6zbJ39hqKSt5LhONYYUlpBGBiJkNFFDHRbitGukmMjSedLDH3X8GXLJ5KqBkWMBDaiQHD/4H/yerVmennKTQklg8MW2P8aBwC7Qadn297Ftd04A/zNwpfX8jTYw90l6q6fFjoCRbeDiuqfJe8DlDhB50iVDciQ/lVAuA+9n9E1FYPQWCK65c+ue4/QByNOslm+Ag0NgokLZ6x7vHuqf2793uvP7AatVcr2KywxtAAANdmlUWHRYTUw6Y29tLmFkb2JlLnhtcAAAAAAAPD94cGFja2V0IGJlZ2luPSLvu78iIGlkPSJXNU0wTXBDZWhpSHpyZVN6TlRjemtjOWQiPz4KPHg6eG1wbWV0YSB4bWxuczp4PSJhZG9iZTpuczptZXRhLyIgeDp4bXB0az0iWE1QIENvcmUgNC40LjAtRXhpdjIiPgogPHJkZjpSREYgeG1sbnM6cmRmPSJodHRwOi8vd3d3LnczLm9yZy8xOTk5LzAyLzIyLXJkZi1zeW50YXgtbnMjIj4KICA8cmRmOkRlc2NyaXB0aW9uIHJkZjphYm91dD0iIgogICAgeG1sbnM6eG1wTU09Imh0dHA6Ly9ucy5hZG9iZS5jb20veGFwLzEuMC9tbS8iCiAgICB4bWxuczpzdEV2dD0iaHR0cDovL25zLmFkb2JlLmNvbS94YXAvMS4wL3NUeXBlL1Jlc291cmNlRXZlbnQjIgogICAgeG1sbnM6ZGM9Imh0dHA6Ly9wdXJsLm9yZy9kYy9lbGVtZW50cy8xLjEvIgogICAgeG1sbnM6R0lNUD0iaHR0cDovL3d3dy5naW1wLm9yZy94bXAvIgogICAgeG1sbnM6dGlmZj0iaHR0cDovL25zLmFkb2JlLmNvbS90aWZmLzEuMC8iCiAgICB4bWxuczp4bXA9Imh0dHA6Ly9ucy5hZG9iZS5jb20veGFwLzEuMC8iCiAgIHhtcE1NOkRvY3VtZW50SUQ9ImdpbXA6ZG9jaWQ6Z2ltcDplNDc0Y2E5ZS0xNzE3LTQ1N2QtODYwMi0wOGMxMjU0NjdkMjUiCiAgIHhtcE1NOkluc3RhbmNlSUQ9InhtcC5paWQ6ZmUzY2JiNTgtN2MxNS00ZjA4LWEyNmMtZGIwMjVhYjA3YzRlIgogICB4bXBNTTpPcmlnaW5hbERvY3VtZW50SUQ9InhtcC5kaWQ6M2NjY2ZmZGEtNGQ1NC00M2Q1LTkwYjctNDczNWFkMjFkNGZlIgogICBkYzpGb3JtYXQ9ImltYWdlL3BuZyIKICAgR0lNUDpBUEk9IjIuMCIKICAgR0lNUDpQbGF0Zm9ybT0iV2luZG93cyIKICAgR0lNUDpUaW1lU3RhbXA9IjE2OTgxNTUzNDcwNTgxNTgiCiAgIEdJTVA6VmVyc2lvbj0iMi4xMC4zNCIKICAgdGlmZjpPcmllbnRhdGlvbj0iMSIKICAgeG1wOkNyZWF0b3JUb29sPSJHSU1QIDIuMTAiCiAgIHhtcDpNZXRhZGF0YURhdGU9IjIwMjM6MTA6MjRUMTU6NDk6MDQrMDI6MDAiCiAgIHhtcDpNb2RpZnlEYXRlPSIyMDIzOjEwOjI0VDE1OjQ5OjA0KzAyOjAwIj4KICAgPHhtcE1NOkhpc3Rvcnk+CiAgICA8cmRmOlNlcT4KICAgICA8cmRmOmxpCiAgICAgIHN0RXZ0OmFjdGlvbj0ic2F2ZWQiCiAgICAgIHN0RXZ0OmNoYW5nZWQ9Ii8iCiAgICAgIHN0RXZ0Omluc3RhbmNlSUQ9InhtcC5paWQ6YWUyOThhOTAtOGFiYi00OGJmLThjNDYtZDNmZjZkN2YwNjdiIgogICAgICBzdEV2dDpzb2Z0d2FyZUFnZW50PSJHaW1wIDIuMTAgKFdpbmRvd3MpIgogICAgICBzdEV2dDp3aGVuPSIyMDIzLTEwLTI0VDE1OjQ5OjA3Ii8+CiAgICA8L3JkZjpTZXE+CiAgIDwveG1wTU06SGlzdG9yeT4KICA8L3JkZjpEZXNjcmlwdGlvbj4KIDwvcmRmOlJERj4KPC94OnhtcG1ldGE+CiAgICAgICAgICAgICAgICAgICAgICAgICAgICAgICAgICAgICAgICAgICAgICAgICAgICAgICAgICAgICAgICAgICAgICAgICAgICAgICAgICAgICAgICAgICAgICAgICAgICAKICAgICAgICAgICAgICAgICAgICAgICAgICAgICAgICAgICAgICAgICAgICAgICAgICAgICAgICAgICAgICAgICAgICAgICAgICAgICAgICAgICAgICAgICAgICAgICAgICAgIAogICAgICAgICAgICAgICAgICAgICAgICAgICAgICAgICAgICAgICAgICAgICAgICAgICAgICAgICAgICAgICAgICAgICAgICAgICAgICAgICAgICAgICAgICAgICAgICAgICAgCiAgICAgICAgICAgICAgICAgICAgICAgICAgICAgICAgICAgICAgICAgICAgICAgICAgICAgICAgICAgICAgICAgICAgICAgICAgICAgICAgICAgICAgICAgICAgICAgICAgICAKICAgICAgICAgICAgICAgICAgICAgICAgICAgICAgICAgICAgICAgICAgICAgICAgICAgICAgICAgICAgICAgICAgICAgICAgICAgICAgICAgICAgICAgICAgICAgICAgICAgIAogICAgICAgICAgICAgICAgICAgICAgICAgICAgICAgICAgICAgICAgICAgICAgICAgICAgICAgICAgICAgICAgICAgICAgICAgICAgICAgICAgICAgICAgICAgICAgICAgICAgCiAgICAgICAgICAgICAgICAgICAgICAgICAgICAgICAgICAgICAgICAgICAgICAgICAgICAgICAgICAgICAgICAgICAgICAgICAgICAgICAgICAgICAgICAgICAgICAgICAgICAKICAgICAgICAgICAgICAgICAgICAgICAgICAgICAgICAgICAgICAgICAgICAgICAgICAgICAgICAgICAgICAgICAgICAgICAgICAgICAgICAgICAgICAgICAgICAgICAgICAgIAogICAgICAgICAgICAgICAgICAgICAgICAgICAgICAgICAgICAgICAgICAgICAgICAgICAgICAgICAgICAgICAgICAgICAgICAgICAgICAgICAgICAgICAgICAgICAgICAgICAgCiAgICAgICAgICAgICAgICAgICAgICAgICAgICAgICAgICAgICAgICAgICAgICAgICAgICAgICAgICAgICAgICAgICAgICAgICAgICAgICAgICAgICAgICAgICAgICAgICAgICAKICAgICAgICAgICAgICAgICAgICAgICAgICAgICAgICAgICAgICAgICAgICAgICAgICAgICAgICAgICAgICAgICAgICAgICAgICAgICAgICAgICAgICAgICAgICAgICAgICAgIAogICAgICAgICAgICAgICAgICAgICAgICAgICAgICAgICAgICAgICAgICAgICAgICAgICAgICAgICAgICAgICAgICAgICAgICAgICAgICAgICAgICAgICAgICAgICAgICAgICAgCiAgICAgICAgICAgICAgICAgICAgICAgICAgICAgICAgICAgICAgICAgICAgICAgICAgICAgICAgICAgICAgICAgICAgICAgICAgICAgICAgICAgICAgICAgICAgICAgICAgICAKICAgICAgICAgICAgICAgICAgICAgICAgICAgICAgICAgICAgICAgICAgICAgICAgICAgICAgICAgICAgICAgICAgICAgICAgICAgICAgICAgICAgICAgICAgICAgICAgICAgIAogICAgICAgICAgICAgICAgICAgICAgICAgICAgICAgICAgICAgICAgICAgICAgICAgICAgICAgICAgICAgICAgICAgICAgICAgICAgICAgICAgICAgICAgICAgICAgICAgICAgCiAgICAgICAgICAgICAgICAgICAgICAgICAgICAgICAgICAgICAgICAgICAgICAgICAgICAgICAgICAgICAgICAgICAgICAgICAgICAgICAgICAgICAgICAgICAgICAgICAgICAKICAgICAgICAgICAgICAgICAgICAgICAgICAgICAgICAgICAgICAgICAgICAgICAgICAgICAgICAgICAgICAgICAgICAgICAgICAgICAgICAgICAgICAgICAgICAgICAgICAgIAogICAgICAgICAgICAgICAgICAgICAgICAgICAgICAgICAgICAgICAgICAgICAgICAgICAgICAgICAgICAgICAgICAgICAgICAgICAgICAgICAgICAgICAgICAgICAgICAgICAgCiAgICAgICAgICAgICAgICAgICAgICAgICAgICAgICAgICAgICAgICAgICAgICAgICAgICAgICAgICAgICAgICAgICAgICAgICAgICAgICAgICAgICAgICAgICAgICAgICAgICAKICAgICAgICAgICAgICAgICAgICAgICAgICAgICAgICAgICAgICAgICAgICAgICAgICAgICAgICAgICAgICAgICAgICAgICAgICAgICAgICAgICAgICAgICAgICAgICAgICAgIAogICAgICAgICAgICAgICAgICAgICAgICAgICAKPD94cGFja2V0IGVuZD0idyI/PqTog8kAAAAGYktHRABYAKUAkambAywAAAAJcEhZcwAACxMAAAsTAQCanBgAAAAHdElNRQfnChgNMQdIaecJAAAKxUlEQVR42u3a0VXjMBBAUVknLaWNVEI5qYQ2KAr+4Cd4iVZ2Zkb3VrAna8lvxrQGAAAAAAAAAAAAAAAAAAAAAAAAAAAAAAAAAAAAAAAAAAAAAAAAAAAAAAAAAAAAAAAAAAAAAAAAAAAAAAAAAAAAAAAAAAAAAAAAAAAAAAAAAAAAAAAAAAAAAAAAAAAAAAAAAAAAAAAAAAAAAAAAAAAAAAAAAAAAAAAAAAAAAAAAAAAAAAAAAAAAAAAAAAAAAEBQm5+AZ719vH/6FYDs7tebdyBiCYEEIJ4QS4gkANGEWEIoAQgmxBJCCUAwIZYQSgCCCbGEUAIQTIglhBKAYKK+7idAKAGAWAIAAyViCZcAAIglADBYIpZw+AFALAGAAROxhEMPAGIJAAyaiCUcdgAQSwCAgROxBAAgljARAYBYAgCDJ2IJhxsAxBIAGEARSwAAYgkTEACIJQDAICqWcJgBQCwBACCWAOAYtvdiCYcYAMQSAGAwRSw5vACAWAIAEEsAEIxtvljCoQUAsQQAGFQRSw4rACCWAADEEgAEY7svlnBIAUAsAQDQ2uYnqMVWCSCO+/XmPVuAzRIAgFgCgPPZ9oslHEoAEEsAACvzh2dF2CoBxOUPvXOzWQIAEEsA8Dq2/2IJhxAAxBIAwIr8wVlytkoAefhD75xslgAAxBIAwBjrwMR8ggPIx6e4fGyWAAB2qNukbJUA8rJdysVmCQBALAEAjLEGTMgnOID8fIrLw2YJAGCHqk3GVgmgDtulHGyWAADEEgDAGOu/RHyCA6jHp7j4bJYAAHZc/AQ52CqZxsBdBq9hswQAAhKxRDW2SuDsgljC1AHgnkcsAbAa2yXEEqYNFy0AYgkAMByLJQjHVgmcZRBLmDIAQCyBSRScaWfakCyWcGAAQCwBAIZlsQQvZl0PzjaIJUwVACCWwOQJOOOGZrGEAwIAYglMnICzbngWSwAAYglTBAAglkjHWh6ceUO0IVos4UAAgFgCEybg7COWAIAD+PIglnAQTJYAiCUAMDAZqsUSDgAAiCUwUQLuAsQSABCMLxFiyYOPSRIAsQQABihDtljCA+9SBEAsAYBBCrEEAATjy4RY8qCbHAHcEYglAACxxEO2SiZGAO8SsQQABivEErj8AF7HdkksebABMGAhlgAAxBKtNVslEyKAd4tYAgCDFmIJXHYAkdguiSUPMgAGLsQSLjkAEEuLslUCwLtGLAHAqWypEUu43ABALNVnLQpgAPPOEUvgUgNALKHwAfDuEUtwEFslwP2CWAIAEEv8lTUowHlsl7yDxBIuMQAQS4oeAIOZd5FYwuUFAGIJAKASk/9E1p4/bJUA97C7uAqbJQAAsWSaAViBTQpiCZcVAAZ5sQQAEIcNgHKfylYJcC+7m6uxWQIAEEumF5ML4D4CsQQAGOzFEgDAmawplfoUVt6Ae9pdXZXNEgCAWDKtmFQA9xOIJQDAoC+WMLUBgFhS5gAY6hBLAICBXyx5yExrAO4rxBIAYPAXS2BKA9xbiCWUOAAgljCdAVgAWACIJQ8VAIY9xBIAgFjCVAbgHpvPVxOx5GECAMQSpjEAxlkIiCUPEQCGP8QSLhYAEEsAYAg8hK8oYsnDAwCIJUxfAIyzIBBLHhoADIOIJVwkACCWAMBQeAhfVcSShwUAEEuYtgDcd4ilA9kqAeA9iFjClAUAYgkADIkjbJfEkofDhQEAYgkADIuIpYlslQDAe1EsYaoCALEEAIbGGWyXxJKHwQUBAGIJAAyPiCVcDAAcwtcXseQhAADEEgA8y8YdsdRslVwIAHhfiiUAMEwilnARAHCslbdL3X86AIBY4gFbJQB3JWLpIVslAPD+FEsAMInt0trEkoMPAH+24nap+08GAEMmYgkHHgDE0r/YKgGA96lYYpetEoA7FLEEACCWnuUTHAAz2C6t9161WXLAAYDVY8lWCQC8X8USu2yVANypiCUAgOnKl7FPcCYgAO8Y75n/YbMEALBqLCl+APC+FUvs8gkOwB2LWAIAOEzZIvYJzsQD4J3jvTODzRIAwGqxpPBtlQDcuYglACCUqssKsQQAsKPc2tAnOOtgAO8g76GZbJYAAFaJJUVvqwTgDkYsAQChVVteiCUTDQCwQiz5BAeAwdV7WSwBAIiltevVJAPgTkYsAQALqLLMEEsmGACgciz5BAeAQRaxhMMIQEoVlhrdfwAAGGgpGksAQHzZlxtiycQCAFSMJZ/gADDYIpZw+AAoIfOSo/vBAcCAS7FYcugcOgAQSwBg0C0l65eh7ocGACgUSyYTkwkAeWVcenQ/MAAYeCkSSw6ZQwYAYgkADL6lZftS1P2wDhcAUCCWAIA6Mi1Buh8UAM7la0EuNksOFQAglgDAIBxNli9H3Q/pMAEAiWMJAEAs8ZCtEoB7vroMX5C6HxAAIGksAUB1tktiCYcHAMQSAMCo6H920/1w8dgqAbj3iePiJxCKuOBwpwC/8xkOAEAsgYkdzygglgAAxBKY3MGzied1+VhywAEAsQQmIvBMglgCABBLgEkezyKIJQAAsQSY6PEMAmIJAEAsgckezx4glgAAxBKY8MEzB2IJAEAsgUkfPGsglgAAxBJg4sczBmIJAEAsASZ/PFuAWAIAEEtgA4BnChBLAABiCWwCwLMEYgkAQCwB32wE8AyBWAIAEEvAOJsBPDsglgAAxBIwzoYAzwyIJQAAsQSMsynAswJiCQBALAHjbAwAxBIAghrEEuBlCCCWABDSIJYAL0UAxBKAgAbEEng5AiCWAIQzIJbASxIAsQSAYAaxBHhZAoglAIQyiCXASxNALAEgkEEsAV6eAIglAGEMiCXwEgVALAEIYkAsAV6mAGIJQAgDYgnwUgUQSwAIYBBLgJcrgFgCQPgCYgm8ZAEQSwCCFxBL4GULgFgCELqAWAK8dAHEEoDABcQS4OULUMPFTwCCCYDf2SwBAIglAACxBAAglgAAxBIAgFgCABBLAABiCQBALAEAiCUAAMQSAIBYAgAQSwAAYgkAQCwBAIglAACxBAAglgAAxBIAgFgCAEAsAQCIJQAAsQQAIJYAAMQSAIBYAgAQSwAAYgkAQCwBACCWAADEEgCAWAIAEEsAAGIJAEAsAQCIJQAAsQQAIJYAAMQSAABiCQBALAEAiCUAALEEACCWAADEEgCAWAIAEEsAAGIJAACxBAAglgAAxBIAgFgCABBLAABiCQBALAEAiCUAALEEACCWAAAQSwAAYgkAQCwBAIglAACxBAAglgAAxBIAgFgCABBLAACIJQAAsQQAIJYAAMQSAIBYAgAQSwAAYgkAQCwBAIglAACxBACAWAIAEEsAAGIJAEAsAQCIJQAAsQQAIJYAAMQSAIBYAgBALAEAiCUAALEEACCWAADEEgCAWAIAEEsAAGIJAEAsAQCIJQAAxBIAgFgCABBLAABiCQBALAEAiCUAALEEACCWAADEEgCAWAIAQCwBAIglAACxBAAglgAAxBIAgFgCABBLAABiCQBALAEA8G2L+g97+3j/9N8DAGu4X29hm8RmCQBALAEAjNki/+N8igOA+iJ/gmvNZgkAYNcW/R9ouwQAdUXfKqWIJcEEAELplXyGAwDYsWX5h9ouAUAdWbZKqWJJMAGAUBJLogkARJJYEkwAIJTEkmgCAFJHUplYEk0AIJLEkngCAHEEAEA8X3QAuzuk3Kn/AAAAAElFTkSuQmCC;rounded=1;strokeWidth=2;fixDash=0;snapToPoint=0;comic=0;shadow=1;" parent="1" vertex="1">
          <mxGeometry x="250" y="210" width="57" height="48.55" as="geometry" />
        </mxCell>
        <mxCell id="5M5S_JfumDmxrn6SgT74-2" value="" style="shape=image;verticalLabelPosition=bottom;labelBackgroundColor=none;verticalAlign=top;aspect=fixed;imageAspect=0;image=data:image/png,iVBORw0KGgoAAAANSUhEUgAAAksAAAH0CAYAAAAtyWk/AAAAxXpUWHRSYXcgcHJvZmlsZSB0eXBlIGV4aWYAAHjabVBBDsMgDLvzij0hxIGG59CVSvvBnr/QgFS2WcJJ49Y1Ce39OsOjg6MESZvmkjMZpEjhao2So14cSS6+IDvxmC7zcMpo2SqswgXNXuOcjw9mjdW6dDPS5xD2VSjilfXLyPMQeqLeH8OoDCOwC3EYVL8W5aLb/Qp7oxXqJ3QSXWP/PG+2vSPZf8DcEEHGgHgA9IOA2gVjhtiLEcl6QTEmzCS2kH97mggfejhZfNRiE+8AAAGEaUNDUElDQyBwcm9maWxlAAB4nH2RPUjDUBSFT1OlUioOdijFIUN1souKOJYqFsFCaSu06mDy0j9o0pCkuDgKrgUHfxarDi7Oujq4CoLgD4iri5Oii5R4X1JoEeODy/s4753DffcBQrvOVHMgAaiaZWRTSbFQXBUDrwgighBVVGKmns4t5uG5vu7h4/tdnGd53/tzDSslkwE+kTjBdMMi3iCe3bR0zvvEYVaVFOJz4kmDGiR+5Lrs8hvnisMCzwwb+ew8cZhYrPSx3MesaqjEM8QxRdUoXyi4rHDe4qzWm6zbJ39hqKSt5LhONYYUlpBGBiJkNFFDHRbitGukmMjSedLDH3X8GXLJ5KqBkWMBDaiQHD/4H/yerVmennKTQklg8MW2P8aBwC7Qadn297Ftd04A/zNwpfX8jTYw90l6q6fFjoCRbeDiuqfJe8DlDhB50iVDciQ/lVAuA+9n9E1FYPQWCK65c+ue4/QByNOslm+Ag0NgokLZ6x7vHuqf2793uvP7AatVcr2KywxtAAANdmlUWHRYTUw6Y29tLmFkb2JlLnhtcAAAAAAAPD94cGFja2V0IGJlZ2luPSLvu78iIGlkPSJXNU0wTXBDZWhpSHpyZVN6TlRjemtjOWQiPz4KPHg6eG1wbWV0YSB4bWxuczp4PSJhZG9iZTpuczptZXRhLyIgeDp4bXB0az0iWE1QIENvcmUgNC40LjAtRXhpdjIiPgogPHJkZjpSREYgeG1sbnM6cmRmPSJodHRwOi8vd3d3LnczLm9yZy8xOTk5LzAyLzIyLXJkZi1zeW50YXgtbnMjIj4KICA8cmRmOkRlc2NyaXB0aW9uIHJkZjphYm91dD0iIgogICAgeG1sbnM6eG1wTU09Imh0dHA6Ly9ucy5hZG9iZS5jb20veGFwLzEuMC9tbS8iCiAgICB4bWxuczpzdEV2dD0iaHR0cDovL25zLmFkb2JlLmNvbS94YXAvMS4wL3NUeXBlL1Jlc291cmNlRXZlbnQjIgogICAgeG1sbnM6ZGM9Imh0dHA6Ly9wdXJsLm9yZy9kYy9lbGVtZW50cy8xLjEvIgogICAgeG1sbnM6R0lNUD0iaHR0cDovL3d3dy5naW1wLm9yZy94bXAvIgogICAgeG1sbnM6dGlmZj0iaHR0cDovL25zLmFkb2JlLmNvbS90aWZmLzEuMC8iCiAgICB4bWxuczp4bXA9Imh0dHA6Ly9ucy5hZG9iZS5jb20veGFwLzEuMC8iCiAgIHhtcE1NOkRvY3VtZW50SUQ9ImdpbXA6ZG9jaWQ6Z2ltcDplNDc0Y2E5ZS0xNzE3LTQ1N2QtODYwMi0wOGMxMjU0NjdkMjUiCiAgIHhtcE1NOkluc3RhbmNlSUQ9InhtcC5paWQ6ZmUzY2JiNTgtN2MxNS00ZjA4LWEyNmMtZGIwMjVhYjA3YzRlIgogICB4bXBNTTpPcmlnaW5hbERvY3VtZW50SUQ9InhtcC5kaWQ6M2NjY2ZmZGEtNGQ1NC00M2Q1LTkwYjctNDczNWFkMjFkNGZlIgogICBkYzpGb3JtYXQ9ImltYWdlL3BuZyIKICAgR0lNUDpBUEk9IjIuMCIKICAgR0lNUDpQbGF0Zm9ybT0iV2luZG93cyIKICAgR0lNUDpUaW1lU3RhbXA9IjE2OTgxNTUzNDcwNTgxNTgiCiAgIEdJTVA6VmVyc2lvbj0iMi4xMC4zNCIKICAgdGlmZjpPcmllbnRhdGlvbj0iMSIKICAgeG1wOkNyZWF0b3JUb29sPSJHSU1QIDIuMTAiCiAgIHhtcDpNZXRhZGF0YURhdGU9IjIwMjM6MTA6MjRUMTU6NDk6MDQrMDI6MDAiCiAgIHhtcDpNb2RpZnlEYXRlPSIyMDIzOjEwOjI0VDE1OjQ5OjA0KzAyOjAwIj4KICAgPHhtcE1NOkhpc3Rvcnk+CiAgICA8cmRmOlNlcT4KICAgICA8cmRmOmxpCiAgICAgIHN0RXZ0OmFjdGlvbj0ic2F2ZWQiCiAgICAgIHN0RXZ0OmNoYW5nZWQ9Ii8iCiAgICAgIHN0RXZ0Omluc3RhbmNlSUQ9InhtcC5paWQ6YWUyOThhOTAtOGFiYi00OGJmLThjNDYtZDNmZjZkN2YwNjdiIgogICAgICBzdEV2dDpzb2Z0d2FyZUFnZW50PSJHaW1wIDIuMTAgKFdpbmRvd3MpIgogICAgICBzdEV2dDp3aGVuPSIyMDIzLTEwLTI0VDE1OjQ5OjA3Ii8+CiAgICA8L3JkZjpTZXE+CiAgIDwveG1wTU06SGlzdG9yeT4KICA8L3JkZjpEZXNjcmlwdGlvbj4KIDwvcmRmOlJERj4KPC94OnhtcG1ldGE+CiAgICAgICAgICAgICAgICAgICAgICAgICAgICAgICAgICAgICAgICAgICAgICAgICAgICAgICAgICAgICAgICAgICAgICAgICAgICAgICAgICAgICAgICAgICAgICAgICAgICAKICAgICAgICAgICAgICAgICAgICAgICAgICAgICAgICAgICAgICAgICAgICAgICAgICAgICAgICAgICAgICAgICAgICAgICAgICAgICAgICAgICAgICAgICAgICAgICAgICAgIAogICAgICAgICAgICAgICAgICAgICAgICAgICAgICAgICAgICAgICAgICAgICAgICAgICAgICAgICAgICAgICAgICAgICAgICAgICAgICAgICAgICAgICAgICAgICAgICAgICAgCiAgICAgICAgICAgICAgICAgICAgICAgICAgICAgICAgICAgICAgICAgICAgICAgICAgICAgICAgICAgICAgICAgICAgICAgICAgICAgICAgICAgICAgICAgICAgICAgICAgICAKICAgICAgICAgICAgICAgICAgICAgICAgICAgICAgICAgICAgICAgICAgICAgICAgICAgICAgICAgICAgICAgICAgICAgICAgICAgICAgICAgICAgICAgICAgICAgICAgICAgIAogICAgICAgICAgICAgICAgICAgICAgICAgICAgICAgICAgICAgICAgICAgICAgICAgICAgICAgICAgICAgICAgICAgICAgICAgICAgICAgICAgICAgICAgICAgICAgICAgICAgCiAgICAgICAgICAgICAgICAgICAgICAgICAgICAgICAgICAgICAgICAgICAgICAgICAgICAgICAgICAgICAgICAgICAgICAgICAgICAgICAgICAgICAgICAgICAgICAgICAgICAKICAgICAgICAgICAgICAgICAgICAgICAgICAgICAgICAgICAgICAgICAgICAgICAgICAgICAgICAgICAgICAgICAgICAgICAgICAgICAgICAgICAgICAgICAgICAgICAgICAgIAogICAgICAgICAgICAgICAgICAgICAgICAgICAgICAgICAgICAgICAgICAgICAgICAgICAgICAgICAgICAgICAgICAgICAgICAgICAgICAgICAgICAgICAgICAgICAgICAgICAgCiAgICAgICAgICAgICAgICAgICAgICAgICAgICAgICAgICAgICAgICAgICAgICAgICAgICAgICAgICAgICAgICAgICAgICAgICAgICAgICAgICAgICAgICAgICAgICAgICAgICAKICAgICAgICAgICAgICAgICAgICAgICAgICAgICAgICAgICAgICAgICAgICAgICAgICAgICAgICAgICAgICAgICAgICAgICAgICAgICAgICAgICAgICAgICAgICAgICAgICAgIAogICAgICAgICAgICAgICAgICAgICAgICAgICAgICAgICAgICAgICAgICAgICAgICAgICAgICAgICAgICAgICAgICAgICAgICAgICAgICAgICAgICAgICAgICAgICAgICAgICAgCiAgICAgICAgICAgICAgICAgICAgICAgICAgICAgICAgICAgICAgICAgICAgICAgICAgICAgICAgICAgICAgICAgICAgICAgICAgICAgICAgICAgICAgICAgICAgICAgICAgICAKICAgICAgICAgICAgICAgICAgICAgICAgICAgICAgICAgICAgICAgICAgICAgICAgICAgICAgICAgICAgICAgICAgICAgICAgICAgICAgICAgICAgICAgICAgICAgICAgICAgIAogICAgICAgICAgICAgICAgICAgICAgICAgICAgICAgICAgICAgICAgICAgICAgICAgICAgICAgICAgICAgICAgICAgICAgICAgICAgICAgICAgICAgICAgICAgICAgICAgICAgCiAgICAgICAgICAgICAgICAgICAgICAgICAgICAgICAgICAgICAgICAgICAgICAgICAgICAgICAgICAgICAgICAgICAgICAgICAgICAgICAgICAgICAgICAgICAgICAgICAgICAKICAgICAgICAgICAgICAgICAgICAgICAgICAgICAgICAgICAgICAgICAgICAgICAgICAgICAgICAgICAgICAgICAgICAgICAgICAgICAgICAgICAgICAgICAgICAgICAgICAgIAogICAgICAgICAgICAgICAgICAgICAgICAgICAgICAgICAgICAgICAgICAgICAgICAgICAgICAgICAgICAgICAgICAgICAgICAgICAgICAgICAgICAgICAgICAgICAgICAgICAgCiAgICAgICAgICAgICAgICAgICAgICAgICAgICAgICAgICAgICAgICAgICAgICAgICAgICAgICAgICAgICAgICAgICAgICAgICAgICAgICAgICAgICAgICAgICAgICAgICAgICAKICAgICAgICAgICAgICAgICAgICAgICAgICAgICAgICAgICAgICAgICAgICAgICAgICAgICAgICAgICAgICAgICAgICAgICAgICAgICAgICAgICAgICAgICAgICAgICAgICAgIAogICAgICAgICAgICAgICAgICAgICAgICAgICAKPD94cGFja2V0IGVuZD0idyI/PqTog8kAAAAGYktHRABYAKUAkambAywAAAAJcEhZcwAACxMAAAsTAQCanBgAAAAHdElNRQfnChgNMQdIaecJAAAKxUlEQVR42u3a0VXjMBBAUVknLaWNVEI5qYQ2KAr+4Cd4iVZ2Zkb3VrAna8lvxrQGAAAAAAAAAAAAAAAAAAAAAAAAAAAAAAAAAAAAAAAAAAAAAAAAAAAAAAAAAAAAAAAAAAAAAAAAAAAAAAAAAAAAAAAAAAAAAAAAAAAAAAAAAAAAAAAAAAAAAAAAAAAAAAAAAAAAAAAAAAAAAAAAAAAAAAAAAAAAAAAAAAAAAAAAAAAAAAAAAAAAAAAAAAAAAEBQm5+AZ719vH/6FYDs7tebdyBiCYEEIJ4QS4gkANGEWEIoAQgmxBJCCUAwIZYQSgCCCbGEUAIQTIglhBKAYKK+7idAKAGAWAIAAyViCZcAAIglADBYIpZw+AFALAGAAROxhEMPAGIJAAyaiCUcdgAQSwCAgROxBAAgljARAYBYAgCDJ2IJhxsAxBIAGEARSwAAYgkTEACIJQDAICqWcJgBQCwBACCWAOAYtvdiCYcYAMQSAGAwRSw5vACAWAIAEEsAEIxtvljCoQUAsQQAGFQRSw4rACCWAADEEgAEY7svlnBIAUAsAQDQ2uYnqMVWCSCO+/XmPVuAzRIAgFgCgPPZ9oslHEoAEEsAACvzh2dF2CoBxOUPvXOzWQIAEEsA8Dq2/2IJhxAAxBIAwIr8wVlytkoAefhD75xslgAAxBIAwBjrwMR8ggPIx6e4fGyWAAB2qNukbJUA8rJdysVmCQBALAEAjLEGTMgnOID8fIrLw2YJAGCHqk3GVgmgDtulHGyWAADEEgDAGOu/RHyCA6jHp7j4bJYAAHZc/AQ52CqZxsBdBq9hswQAAhKxRDW2SuDsgljC1AHgnkcsAbAa2yXEEqYNFy0AYgkAMByLJQjHVgmcZRBLmDIAQCyBSRScaWfakCyWcGAAQCwBAIZlsQQvZl0PzjaIJUwVACCWwOQJOOOGZrGEAwIAYglMnICzbngWSwAAYglTBAAglkjHWh6ceUO0IVos4UAAgFgCEybg7COWAIAD+PIglnAQTJYAiCUAMDAZqsUSDgAAiCUwUQLuAsQSABCMLxFiyYOPSRIAsQQABihDtljCA+9SBEAsAYBBCrEEAATjy4RY8qCbHAHcEYglAACxxEO2SiZGAO8SsQQABivEErj8AF7HdkksebABMGAhlgAAxBKtNVslEyKAd4tYAgCDFmIJXHYAkdguiSUPMgAGLsQSLjkAEEuLslUCwLtGLAHAqWypEUu43ABALNVnLQpgAPPOEUvgUgNALKHwAfDuEUtwEFslwP2CWAIAEEv8lTUowHlsl7yDxBIuMQAQS4oeAIOZd5FYwuUFAGIJAKASk/9E1p4/bJUA97C7uAqbJQAAsWSaAViBTQpiCZcVAAZ5sQQAEIcNgHKfylYJcC+7m6uxWQIAEEumF5ML4D4CsQQAGOzFEgDAmawplfoUVt6Ae9pdXZXNEgCAWDKtmFQA9xOIJQDAoC+WMLUBgFhS5gAY6hBLAICBXyx5yExrAO4rxBIAYPAXS2BKA9xbiCWUOAAgljCdAVgAWACIJQ8VAIY9xBIAgFjCVAbgHpvPVxOx5GECAMQSpjEAxlkIiCUPEQCGP8QSLhYAEEsAYAg8hK8oYsnDAwCIJUxfAIyzIBBLHhoADIOIJVwkACCWAMBQeAhfVcSShwUAEEuYtgDcd4ilA9kqAeA9iFjClAUAYgkADIkjbJfEkofDhQEAYgkADIuIpYlslQDAe1EsYaoCALEEAIbGGWyXxJKHwQUBAGIJAAyPiCVcDAAcwtcXseQhAADEEgA8y8YdsdRslVwIAHhfiiUAMEwilnARAHCslbdL3X86AIBY4gFbJQB3JWLpIVslAPD+FEsAMInt0trEkoMPAH+24nap+08GAEMmYgkHHgDE0r/YKgGA96lYYpetEoA7FLEEACCWnuUTHAAz2C6t9161WXLAAYDVY8lWCQC8X8USu2yVANypiCUAgOnKl7FPcCYgAO8Y75n/YbMEALBqLCl+APC+FUvs8gkOwB2LWAIAOEzZIvYJzsQD4J3jvTODzRIAwGqxpPBtlQDcuYglACCUqssKsQQAsKPc2tAnOOtgAO8g76GZbJYAAFaJJUVvqwTgDkYsAQChVVteiCUTDQCwQiz5BAeAwdV7WSwBAIiltevVJAPgTkYsAQALqLLMEEsmGACgciz5BAeAQRaxhMMIQEoVlhrdfwAAGGgpGksAQHzZlxtiycQCAFSMJZ/gADDYIpZw+AAoIfOSo/vBAcCAS7FYcugcOgAQSwBg0C0l65eh7ocGACgUSyYTkwkAeWVcenQ/MAAYeCkSSw6ZQwYAYgkADL6lZftS1P2wDhcAUCCWAIA6Mi1Buh8UAM7la0EuNksOFQAglgDAIBxNli9H3Q/pMAEAiWMJAEAs8ZCtEoB7vroMX5C6HxAAIGksAUB1tktiCYcHAMQSAMCo6H920/1w8dgqAbj3iePiJxCKuOBwpwC/8xkOAEAsgYkdzygglgAAxBKY3MGzied1+VhywAEAsQQmIvBMglgCABBLgEkezyKIJQAAsQSY6PEMAmIJAEAsgckezx4glgAAxBKY8MEzB2IJAEAsgUkfPGsglgAAxBJg4sczBmIJAEAsASZ/PFuAWAIAEEtgA4BnChBLAABiCWwCwLMEYgkAQCwB32wE8AyBWAIAEEvAOJsBPDsglgAAxBIwzoYAzwyIJQAAsQSMsynAswJiCQBALAHjbAwAxBIAghrEEuBlCCCWABDSIJYAL0UAxBKAgAbEEng5AiCWAIQzIJbASxIAsQSAYAaxBHhZAoglAIQyiCXASxNALAEgkEEsAV6eAIglAGEMiCXwEgVALAEIYkAsAV6mAGIJQAgDYgnwUgUQSwAIYBBLgJcrgFgCQPgCYgm8ZAEQSwCCFxBL4GULgFgCELqAWAK8dAHEEoDABcQS4OULUMPFTwCCCYDf2SwBAIglAACxBAAglgAAxBIAgFgCABBLAABiCQBALAEAiCUAAMQSAIBYAgAQSwAAYgkAQCwBAIglAACxBAAglgAAxBIAgFgCAEAsAQCIJQAAsQQAIJYAAMQSAIBYAgAQSwAAYgkAQCwBACCWAADEEgCAWAIAEEsAAGIJAEAsAQCIJQAAsQQAIJYAAMQSAABiCQBALAEAiCUAALEEACCWAADEEgCAWAIAEEsAAGIJAACxBAAglgAAxBIAgFgCABBLAABiCQBALAEAiCUAALEEACCWAAAQSwAAYgkAQCwBAIglAACxBAAglgAAxBIAgFgCABBLAACIJQAAsQQAIJYAAMQSAIBYAgAQSwAAYgkAQCwBAIglAACxBACAWAIAEEsAAGIJAEAsAQCIJQAAsQQAIJYAAMQSAIBYAgBALAEAiCUAALEEACCWAADEEgCAWAIAEEsAAGIJAEAsAQCIJQAAxBIAgFgCABBLAABiCQBALAEAiCUAALEEACCWAADEEgCAWAIAQCwBAIglAACxBAAglgAAxBIAgFgCABBLAABiCQBALAEA8G2L+g97+3j/9N8DAGu4X29hm8RmCQBALAEAjNki/+N8igOA+iJ/gmvNZgkAYNcW/R9ouwQAdUXfKqWIJcEEAELplXyGAwDYsWX5h9ouAUAdWbZKqWJJMAGAUBJLogkARJJYEkwAIJTEkmgCAFJHUplYEk0AIJLEkngCAHEEAEA8X3QAuzuk3Kn/AAAAAElFTkSuQmCC;rounded=1;autosize=0;treeMoving=0;strokeWidth=2;fixDash=0;snapToPoint=0;comic=0;shadow=1;" parent="1" vertex="1">
          <mxGeometry x="340" y="130" width="57" height="48.55" as="geometry" />
        </mxCell>
        <mxCell id="5M5S_JfumDmxrn6SgT74-3" value="" style="shape=image;verticalLabelPosition=bottom;labelBackgroundColor=none;verticalAlign=top;aspect=fixed;imageAspect=0;image=data:image/png,iVBORw0KGgoAAAANSUhEUgAAAksAAAH0CAYAAAAtyWk/AAAAxXpUWHRSYXcgcHJvZmlsZSB0eXBlIGV4aWYAAHjabVBBDsMgDLvzij0hxIGG59CVSvvBnr/QgFS2WcJJ49Y1Ce39OsOjg6MESZvmkjMZpEjhao2So14cSS6+IDvxmC7zcMpo2SqswgXNXuOcjw9mjdW6dDPS5xD2VSjilfXLyPMQeqLeH8OoDCOwC3EYVL8W5aLb/Qp7oxXqJ3QSXWP/PG+2vSPZf8DcEEHGgHgA9IOA2gVjhtiLEcl6QTEmzCS2kH97mggfejhZfNRiE+8AAAGEaUNDUElDQyBwcm9maWxlAAB4nH2RPUjDUBSFT1OlUioOdijFIUN1souKOJYqFsFCaSu06mDy0j9o0pCkuDgKrgUHfxarDi7Oujq4CoLgD4iri5Oii5R4X1JoEeODy/s4753DffcBQrvOVHMgAaiaZWRTSbFQXBUDrwgighBVVGKmns4t5uG5vu7h4/tdnGd53/tzDSslkwE+kTjBdMMi3iCe3bR0zvvEYVaVFOJz4kmDGiR+5Lrs8hvnisMCzwwb+ew8cZhYrPSx3MesaqjEM8QxRdUoXyi4rHDe4qzWm6zbJ39hqKSt5LhONYYUlpBGBiJkNFFDHRbitGukmMjSedLDH3X8GXLJ5KqBkWMBDaiQHD/4H/yerVmennKTQklg8MW2P8aBwC7Qadn297Ftd04A/zNwpfX8jTYw90l6q6fFjoCRbeDiuqfJe8DlDhB50iVDciQ/lVAuA+9n9E1FYPQWCK65c+ue4/QByNOslm+Ag0NgokLZ6x7vHuqf2793uvP7AatVcr2KywxtAAANdmlUWHRYTUw6Y29tLmFkb2JlLnhtcAAAAAAAPD94cGFja2V0IGJlZ2luPSLvu78iIGlkPSJXNU0wTXBDZWhpSHpyZVN6TlRjemtjOWQiPz4KPHg6eG1wbWV0YSB4bWxuczp4PSJhZG9iZTpuczptZXRhLyIgeDp4bXB0az0iWE1QIENvcmUgNC40LjAtRXhpdjIiPgogPHJkZjpSREYgeG1sbnM6cmRmPSJodHRwOi8vd3d3LnczLm9yZy8xOTk5LzAyLzIyLXJkZi1zeW50YXgtbnMjIj4KICA8cmRmOkRlc2NyaXB0aW9uIHJkZjphYm91dD0iIgogICAgeG1sbnM6eG1wTU09Imh0dHA6Ly9ucy5hZG9iZS5jb20veGFwLzEuMC9tbS8iCiAgICB4bWxuczpzdEV2dD0iaHR0cDovL25zLmFkb2JlLmNvbS94YXAvMS4wL3NUeXBlL1Jlc291cmNlRXZlbnQjIgogICAgeG1sbnM6ZGM9Imh0dHA6Ly9wdXJsLm9yZy9kYy9lbGVtZW50cy8xLjEvIgogICAgeG1sbnM6R0lNUD0iaHR0cDovL3d3dy5naW1wLm9yZy94bXAvIgogICAgeG1sbnM6dGlmZj0iaHR0cDovL25zLmFkb2JlLmNvbS90aWZmLzEuMC8iCiAgICB4bWxuczp4bXA9Imh0dHA6Ly9ucy5hZG9iZS5jb20veGFwLzEuMC8iCiAgIHhtcE1NOkRvY3VtZW50SUQ9ImdpbXA6ZG9jaWQ6Z2ltcDplNDc0Y2E5ZS0xNzE3LTQ1N2QtODYwMi0wOGMxMjU0NjdkMjUiCiAgIHhtcE1NOkluc3RhbmNlSUQ9InhtcC5paWQ6ZmUzY2JiNTgtN2MxNS00ZjA4LWEyNmMtZGIwMjVhYjA3YzRlIgogICB4bXBNTTpPcmlnaW5hbERvY3VtZW50SUQ9InhtcC5kaWQ6M2NjY2ZmZGEtNGQ1NC00M2Q1LTkwYjctNDczNWFkMjFkNGZlIgogICBkYzpGb3JtYXQ9ImltYWdlL3BuZyIKICAgR0lNUDpBUEk9IjIuMCIKICAgR0lNUDpQbGF0Zm9ybT0iV2luZG93cyIKICAgR0lNUDpUaW1lU3RhbXA9IjE2OTgxNTUzNDcwNTgxNTgiCiAgIEdJTVA6VmVyc2lvbj0iMi4xMC4zNCIKICAgdGlmZjpPcmllbnRhdGlvbj0iMSIKICAgeG1wOkNyZWF0b3JUb29sPSJHSU1QIDIuMTAiCiAgIHhtcDpNZXRhZGF0YURhdGU9IjIwMjM6MTA6MjRUMTU6NDk6MDQrMDI6MDAiCiAgIHhtcDpNb2RpZnlEYXRlPSIyMDIzOjEwOjI0VDE1OjQ5OjA0KzAyOjAwIj4KICAgPHhtcE1NOkhpc3Rvcnk+CiAgICA8cmRmOlNlcT4KICAgICA8cmRmOmxpCiAgICAgIHN0RXZ0OmFjdGlvbj0ic2F2ZWQiCiAgICAgIHN0RXZ0OmNoYW5nZWQ9Ii8iCiAgICAgIHN0RXZ0Omluc3RhbmNlSUQ9InhtcC5paWQ6YWUyOThhOTAtOGFiYi00OGJmLThjNDYtZDNmZjZkN2YwNjdiIgogICAgICBzdEV2dDpzb2Z0d2FyZUFnZW50PSJHaW1wIDIuMTAgKFdpbmRvd3MpIgogICAgICBzdEV2dDp3aGVuPSIyMDIzLTEwLTI0VDE1OjQ5OjA3Ii8+CiAgICA8L3JkZjpTZXE+CiAgIDwveG1wTU06SGlzdG9yeT4KICA8L3JkZjpEZXNjcmlwdGlvbj4KIDwvcmRmOlJERj4KPC94OnhtcG1ldGE+CiAgICAgICAgICAgICAgICAgICAgICAgICAgICAgICAgICAgICAgICAgICAgICAgICAgICAgICAgICAgICAgICAgICAgICAgICAgICAgICAgICAgICAgICAgICAgICAgICAgICAKICAgICAgICAgICAgICAgICAgICAgICAgICAgICAgICAgICAgICAgICAgICAgICAgICAgICAgICAgICAgICAgICAgICAgICAgICAgICAgICAgICAgICAgICAgICAgICAgICAgIAogICAgICAgICAgICAgICAgICAgICAgICAgICAgICAgICAgICAgICAgICAgICAgICAgICAgICAgICAgICAgICAgICAgICAgICAgICAgICAgICAgICAgICAgICAgICAgICAgICAgCiAgICAgICAgICAgICAgICAgICAgICAgICAgICAgICAgICAgICAgICAgICAgICAgICAgICAgICAgICAgICAgICAgICAgICAgICAgICAgICAgICAgICAgICAgICAgICAgICAgICAKICAgICAgICAgICAgICAgICAgICAgICAgICAgICAgICAgICAgICAgICAgICAgICAgICAgICAgICAgICAgICAgICAgICAgICAgICAgICAgICAgICAgICAgICAgICAgICAgICAgIAogICAgICAgICAgICAgICAgICAgICAgICAgICAgICAgICAgICAgICAgICAgICAgICAgICAgICAgICAgICAgICAgICAgICAgICAgICAgICAgICAgICAgICAgICAgICAgICAgICAgCiAgICAgICAgICAgICAgICAgICAgICAgICAgICAgICAgICAgICAgICAgICAgICAgICAgICAgICAgICAgICAgICAgICAgICAgICAgICAgICAgICAgICAgICAgICAgICAgICAgICAKICAgICAgICAgICAgICAgICAgICAgICAgICAgICAgICAgICAgICAgICAgICAgICAgICAgICAgICAgICAgICAgICAgICAgICAgICAgICAgICAgICAgICAgICAgICAgICAgICAgIAogICAgICAgICAgICAgICAgICAgICAgICAgICAgICAgICAgICAgICAgICAgICAgICAgICAgICAgICAgICAgICAgICAgICAgICAgICAgICAgICAgICAgICAgICAgICAgICAgICAgCiAgICAgICAgICAgICAgICAgICAgICAgICAgICAgICAgICAgICAgICAgICAgICAgICAgICAgICAgICAgICAgICAgICAgICAgICAgICAgICAgICAgICAgICAgICAgICAgICAgICAKICAgICAgICAgICAgICAgICAgICAgICAgICAgICAgICAgICAgICAgICAgICAgICAgICAgICAgICAgICAgICAgICAgICAgICAgICAgICAgICAgICAgICAgICAgICAgICAgICAgIAogICAgICAgICAgICAgICAgICAgICAgICAgICAgICAgICAgICAgICAgICAgICAgICAgICAgICAgICAgICAgICAgICAgICAgICAgICAgICAgICAgICAgICAgICAgICAgICAgICAgCiAgICAgICAgICAgICAgICAgICAgICAgICAgICAgICAgICAgICAgICAgICAgICAgICAgICAgICAgICAgICAgICAgICAgICAgICAgICAgICAgICAgICAgICAgICAgICAgICAgICAKICAgICAgICAgICAgICAgICAgICAgICAgICAgICAgICAgICAgICAgICAgICAgICAgICAgICAgICAgICAgICAgICAgICAgICAgICAgICAgICAgICAgICAgICAgICAgICAgICAgIAogICAgICAgICAgICAgICAgICAgICAgICAgICAgICAgICAgICAgICAgICAgICAgICAgICAgICAgICAgICAgICAgICAgICAgICAgICAgICAgICAgICAgICAgICAgICAgICAgICAgCiAgICAgICAgICAgICAgICAgICAgICAgICAgICAgICAgICAgICAgICAgICAgICAgICAgICAgICAgICAgICAgICAgICAgICAgICAgICAgICAgICAgICAgICAgICAgICAgICAgICAKICAgICAgICAgICAgICAgICAgICAgICAgICAgICAgICAgICAgICAgICAgICAgICAgICAgICAgICAgICAgICAgICAgICAgICAgICAgICAgICAgICAgICAgICAgICAgICAgICAgIAogICAgICAgICAgICAgICAgICAgICAgICAgICAgICAgICAgICAgICAgICAgICAgICAgICAgICAgICAgICAgICAgICAgICAgICAgICAgICAgICAgICAgICAgICAgICAgICAgICAgCiAgICAgICAgICAgICAgICAgICAgICAgICAgICAgICAgICAgICAgICAgICAgICAgICAgICAgICAgICAgICAgICAgICAgICAgICAgICAgICAgICAgICAgICAgICAgICAgICAgICAKICAgICAgICAgICAgICAgICAgICAgICAgICAgICAgICAgICAgICAgICAgICAgICAgICAgICAgICAgICAgICAgICAgICAgICAgICAgICAgICAgICAgICAgICAgICAgICAgICAgIAogICAgICAgICAgICAgICAgICAgICAgICAgICAKPD94cGFja2V0IGVuZD0idyI/PqTog8kAAAAGYktHRABYAKUAkambAywAAAAJcEhZcwAACxMAAAsTAQCanBgAAAAHdElNRQfnChgNMQdIaecJAAAKxUlEQVR42u3a0VXjMBBAUVknLaWNVEI5qYQ2KAr+4Cd4iVZ2Zkb3VrAna8lvxrQGAAAAAAAAAAAAAAAAAAAAAAAAAAAAAAAAAAAAAAAAAAAAAAAAAAAAAAAAAAAAAAAAAAAAAAAAAAAAAAAAAAAAAAAAAAAAAAAAAAAAAAAAAAAAAAAAAAAAAAAAAAAAAAAAAAAAAAAAAAAAAAAAAAAAAAAAAAAAAAAAAAAAAAAAAAAAAAAAAAAAAAAAAAAAAEBQm5+AZ719vH/6FYDs7tebdyBiCYEEIJ4QS4gkANGEWEIoAQgmxBJCCUAwIZYQSgCCCbGEUAIQTIglhBKAYKK+7idAKAGAWAIAAyViCZcAAIglADBYIpZw+AFALAGAAROxhEMPAGIJAAyaiCUcdgAQSwCAgROxBAAgljARAYBYAgCDJ2IJhxsAxBIAGEARSwAAYgkTEACIJQDAICqWcJgBQCwBACCWAOAYtvdiCYcYAMQSAGAwRSw5vACAWAIAEEsAEIxtvljCoQUAsQQAGFQRSw4rACCWAADEEgAEY7svlnBIAUAsAQDQ2uYnqMVWCSCO+/XmPVuAzRIAgFgCgPPZ9oslHEoAEEsAACvzh2dF2CoBxOUPvXOzWQIAEEsA8Dq2/2IJhxAAxBIAwIr8wVlytkoAefhD75xslgAAxBIAwBjrwMR8ggPIx6e4fGyWAAB2qNukbJUA8rJdysVmCQBALAEAjLEGTMgnOID8fIrLw2YJAGCHqk3GVgmgDtulHGyWAADEEgDAGOu/RHyCA6jHp7j4bJYAAHZc/AQ52CqZxsBdBq9hswQAAhKxRDW2SuDsgljC1AHgnkcsAbAa2yXEEqYNFy0AYgkAMByLJQjHVgmcZRBLmDIAQCyBSRScaWfakCyWcGAAQCwBAIZlsQQvZl0PzjaIJUwVACCWwOQJOOOGZrGEAwIAYglMnICzbngWSwAAYglTBAAglkjHWh6ceUO0IVos4UAAgFgCEybg7COWAIAD+PIglnAQTJYAiCUAMDAZqsUSDgAAiCUwUQLuAsQSABCMLxFiyYOPSRIAsQQABihDtljCA+9SBEAsAYBBCrEEAATjy4RY8qCbHAHcEYglAACxxEO2SiZGAO8SsQQABivEErj8AF7HdkksebABMGAhlgAAxBKtNVslEyKAd4tYAgCDFmIJXHYAkdguiSUPMgAGLsQSLjkAEEuLslUCwLtGLAHAqWypEUu43ABALNVnLQpgAPPOEUvgUgNALKHwAfDuEUtwEFslwP2CWAIAEEv8lTUowHlsl7yDxBIuMQAQS4oeAIOZd5FYwuUFAGIJAKASk/9E1p4/bJUA97C7uAqbJQAAsWSaAViBTQpiCZcVAAZ5sQQAEIcNgHKfylYJcC+7m6uxWQIAEEumF5ML4D4CsQQAGOzFEgDAmawplfoUVt6Ae9pdXZXNEgCAWDKtmFQA9xOIJQDAoC+WMLUBgFhS5gAY6hBLAICBXyx5yExrAO4rxBIAYPAXS2BKA9xbiCWUOAAgljCdAVgAWACIJQ8VAIY9xBIAgFjCVAbgHpvPVxOx5GECAMQSpjEAxlkIiCUPEQCGP8QSLhYAEEsAYAg8hK8oYsnDAwCIJUxfAIyzIBBLHhoADIOIJVwkACCWAMBQeAhfVcSShwUAEEuYtgDcd4ilA9kqAeA9iFjClAUAYgkADIkjbJfEkofDhQEAYgkADIuIpYlslQDAe1EsYaoCALEEAIbGGWyXxJKHwQUBAGIJAAyPiCVcDAAcwtcXseQhAADEEgA8y8YdsdRslVwIAHhfiiUAMEwilnARAHCslbdL3X86AIBY4gFbJQB3JWLpIVslAPD+FEsAMInt0trEkoMPAH+24nap+08GAEMmYgkHHgDE0r/YKgGA96lYYpetEoA7FLEEACCWnuUTHAAz2C6t9161WXLAAYDVY8lWCQC8X8USu2yVANypiCUAgOnKl7FPcCYgAO8Y75n/YbMEALBqLCl+APC+FUvs8gkOwB2LWAIAOEzZIvYJzsQD4J3jvTODzRIAwGqxpPBtlQDcuYglACCUqssKsQQAsKPc2tAnOOtgAO8g76GZbJYAAFaJJUVvqwTgDkYsAQChVVteiCUTDQCwQiz5BAeAwdV7WSwBAIiltevVJAPgTkYsAQALqLLMEEsmGACgciz5BAeAQRaxhMMIQEoVlhrdfwAAGGgpGksAQHzZlxtiycQCAFSMJZ/gADDYIpZw+AAoIfOSo/vBAcCAS7FYcugcOgAQSwBg0C0l65eh7ocGACgUSyYTkwkAeWVcenQ/MAAYeCkSSw6ZQwYAYgkADL6lZftS1P2wDhcAUCCWAIA6Mi1Buh8UAM7la0EuNksOFQAglgDAIBxNli9H3Q/pMAEAiWMJAEAs8ZCtEoB7vroMX5C6HxAAIGksAUB1tktiCYcHAMQSAMCo6H920/1w8dgqAbj3iePiJxCKuOBwpwC/8xkOAEAsgYkdzygglgAAxBKY3MGzied1+VhywAEAsQQmIvBMglgCABBLgEkezyKIJQAAsQSY6PEMAmIJAEAsgckezx4glgAAxBKY8MEzB2IJAEAsgUkfPGsglgAAxBJg4sczBmIJAEAsASZ/PFuAWAIAEEtgA4BnChBLAABiCWwCwLMEYgkAQCwB32wE8AyBWAIAEEvAOJsBPDsglgAAxBIwzoYAzwyIJQAAsQSMsynAswJiCQBALAHjbAwAxBIAghrEEuBlCCCWABDSIJYAL0UAxBKAgAbEEng5AiCWAIQzIJbASxIAsQSAYAaxBHhZAoglAIQyiCXASxNALAEgkEEsAV6eAIglAGEMiCXwEgVALAEIYkAsAV6mAGIJQAgDYgnwUgUQSwAIYBBLgJcrgFgCQPgCYgm8ZAEQSwCCFxBL4GULgFgCELqAWAK8dAHEEoDABcQS4OULUMPFTwCCCYDf2SwBAIglAACxBAAglgAAxBIAgFgCABBLAABiCQBALAEAiCUAAMQSAIBYAgAQSwAAYgkAQCwBAIglAACxBAAglgAAxBIAgFgCAEAsAQCIJQAAsQQAIJYAAMQSAIBYAgAQSwAAYgkAQCwBACCWAADEEgCAWAIAEEsAAGIJAEAsAQCIJQAAsQQAIJYAAMQSAABiCQBALAEAiCUAALEEACCWAADEEgCAWAIAEEsAAGIJAACxBAAglgAAxBIAgFgCABBLAABiCQBALAEAiCUAALEEACCWAAAQSwAAYgkAQCwBAIglAACxBAAglgAAxBIAgFgCABBLAACIJQAAsQQAIJYAAMQSAIBYAgAQSwAAYgkAQCwBAIglAACxBACAWAIAEEsAAGIJAEAsAQCIJQAAsQQAIJYAAMQSAIBYAgBALAEAiCUAALEEACCWAADEEgCAWAIAEEsAAGIJAEAsAQCIJQAAxBIAgFgCABBLAABiCQBALAEAiCUAALEEACCWAADEEgCAWAIAQCwBAIglAACxBAAglgAAxBIAgFgCABBLAABiCQBALAEA8G2L+g97+3j/9N8DAGu4X29hm8RmCQBALAEAjNki/+N8igOA+iJ/gmvNZgkAYNcW/R9ouwQAdUXfKqWIJcEEAELplXyGAwDYsWX5h9ouAUAdWbZKqWJJMAGAUBJLogkARJJYEkwAIJTEkmgCAFJHUplYEk0AIJLEkngCAHEEAEA8X3QAuzuk3Kn/AAAAAElFTkSuQmCC;rounded=1;strokeWidth=2;fixDash=0;snapToPoint=0;comic=0;shadow=1;" parent="1" vertex="1">
          <mxGeometry x="430" y="210" width="57" height="48.55" as="geometry" />
        </mxCell>
        <mxCell id="5M5S_JfumDmxrn6SgT74-24" value="" style="endArrow=classic;html=1;rounded=1;labelBackgroundColor=none;fontColor=default;dashed=1;flowAnimation=1;flowAnimationTimingFunction=ease-in;flowAnimationDuration=1500;metaEdit=0;noJump=0;startArrow=none;startFill=0;strokeWidth=2;fixDash=0;snapToPoint=0;comic=0;shadow=1;backgroundOutline=0;fillColor=#e51400;strokeColor=#B20000;dashPattern=1 1;" parent="1" edge="1">
          <mxGeometry width="50" height="50" relative="1" as="geometry">
            <mxPoint x="387.99937500000004" y="178.54999999999995" as="sourcePoint" />
            <mxPoint x="438" y="220" as="targetPoint" />
          </mxGeometry>
        </mxCell>
        <mxCell id="5M5S_JfumDmxrn6SgT74-26" value="" style="endArrow=classic;html=1;rounded=1;labelBackgroundColor=none;fontColor=default;dashed=1;flowAnimation=0;flowAnimationTimingFunction=linear;flowAnimationDuration=1500;metaEdit=0;noJump=0;startArrow=none;startFill=0;strokeWidth=2;fixDash=0;snapToPoint=0;comic=0;shadow=1;dashPattern=1 1;" parent="1" edge="1">
          <mxGeometry width="50" height="50" relative="1" as="geometry">
            <mxPoint x="350.0000000000003" y="178.54999999999995" as="sourcePoint" />
            <mxPoint x="299.9993750000003" y="220" as="targetPoint" />
          </mxGeometry>
        </mxCell>
        <mxCell id="5M5S_JfumDmxrn6SgT74-32" value="" style="shape=image;verticalLabelPosition=bottom;labelBackgroundColor=none;verticalAlign=top;aspect=fixed;imageAspect=0;image=data:image/png,iVBORw0KGgoAAAANSUhEUgAAAksAAAH0CAYAAAAtyWk/AAAAxXpUWHRSYXcgcHJvZmlsZSB0eXBlIGV4aWYAAHjabVBBDsMgDLvzij0hxIGG59CVSvvBnr/QgFS2WcJJ49Y1Ce39OsOjg6MESZvmkjMZpEjhao2So14cSS6+IDvxmC7zcMpo2SqswgXNXuOcjw9mjdW6dDPS5xD2VSjilfXLyPMQeqLeH8OoDCOwC3EYVL8W5aLb/Qp7oxXqJ3QSXWP/PG+2vSPZf8DcEEHGgHgA9IOA2gVjhtiLEcl6QTEmzCS2kH97mggfejhZfNRiE+8AAAGEaUNDUElDQyBwcm9maWxlAAB4nH2RPUjDUBSFT1OlUioOdijFIUN1souKOJYqFsFCaSu06mDy0j9o0pCkuDgKrgUHfxarDi7Oujq4CoLgD4iri5Oii5R4X1JoEeODy/s4753DffcBQrvOVHMgAaiaZWRTSbFQXBUDrwgighBVVGKmns4t5uG5vu7h4/tdnGd53/tzDSslkwE+kTjBdMMi3iCe3bR0zvvEYVaVFOJz4kmDGiR+5Lrs8hvnisMCzwwb+ew8cZhYrPSx3MesaqjEM8QxRdUoXyi4rHDe4qzWm6zbJ39hqKSt5LhONYYUlpBGBiJkNFFDHRbitGukmMjSedLDH3X8GXLJ5KqBkWMBDaiQHD/4H/yerVmennKTQklg8MW2P8aBwC7Qadn297Ftd04A/zNwpfX8jTYw90l6q6fFjoCRbeDiuqfJe8DlDhB50iVDciQ/lVAuA+9n9E1FYPQWCK65c+ue4/QByNOslm+Ag0NgokLZ6x7vHuqf2793uvP7AatVcr2KywxtAAANdmlUWHRYTUw6Y29tLmFkb2JlLnhtcAAAAAAAPD94cGFja2V0IGJlZ2luPSLvu78iIGlkPSJXNU0wTXBDZWhpSHpyZVN6TlRjemtjOWQiPz4KPHg6eG1wbWV0YSB4bWxuczp4PSJhZG9iZTpuczptZXRhLyIgeDp4bXB0az0iWE1QIENvcmUgNC40LjAtRXhpdjIiPgogPHJkZjpSREYgeG1sbnM6cmRmPSJodHRwOi8vd3d3LnczLm9yZy8xOTk5LzAyLzIyLXJkZi1zeW50YXgtbnMjIj4KICA8cmRmOkRlc2NyaXB0aW9uIHJkZjphYm91dD0iIgogICAgeG1sbnM6eG1wTU09Imh0dHA6Ly9ucy5hZG9iZS5jb20veGFwLzEuMC9tbS8iCiAgICB4bWxuczpzdEV2dD0iaHR0cDovL25zLmFkb2JlLmNvbS94YXAvMS4wL3NUeXBlL1Jlc291cmNlRXZlbnQjIgogICAgeG1sbnM6ZGM9Imh0dHA6Ly9wdXJsLm9yZy9kYy9lbGVtZW50cy8xLjEvIgogICAgeG1sbnM6R0lNUD0iaHR0cDovL3d3dy5naW1wLm9yZy94bXAvIgogICAgeG1sbnM6dGlmZj0iaHR0cDovL25zLmFkb2JlLmNvbS90aWZmLzEuMC8iCiAgICB4bWxuczp4bXA9Imh0dHA6Ly9ucy5hZG9iZS5jb20veGFwLzEuMC8iCiAgIHhtcE1NOkRvY3VtZW50SUQ9ImdpbXA6ZG9jaWQ6Z2ltcDplNDc0Y2E5ZS0xNzE3LTQ1N2QtODYwMi0wOGMxMjU0NjdkMjUiCiAgIHhtcE1NOkluc3RhbmNlSUQ9InhtcC5paWQ6ZmUzY2JiNTgtN2MxNS00ZjA4LWEyNmMtZGIwMjVhYjA3YzRlIgogICB4bXBNTTpPcmlnaW5hbERvY3VtZW50SUQ9InhtcC5kaWQ6M2NjY2ZmZGEtNGQ1NC00M2Q1LTkwYjctNDczNWFkMjFkNGZlIgogICBkYzpGb3JtYXQ9ImltYWdlL3BuZyIKICAgR0lNUDpBUEk9IjIuMCIKICAgR0lNUDpQbGF0Zm9ybT0iV2luZG93cyIKICAgR0lNUDpUaW1lU3RhbXA9IjE2OTgxNTUzNDcwNTgxNTgiCiAgIEdJTVA6VmVyc2lvbj0iMi4xMC4zNCIKICAgdGlmZjpPcmllbnRhdGlvbj0iMSIKICAgeG1wOkNyZWF0b3JUb29sPSJHSU1QIDIuMTAiCiAgIHhtcDpNZXRhZGF0YURhdGU9IjIwMjM6MTA6MjRUMTU6NDk6MDQrMDI6MDAiCiAgIHhtcDpNb2RpZnlEYXRlPSIyMDIzOjEwOjI0VDE1OjQ5OjA0KzAyOjAwIj4KICAgPHhtcE1NOkhpc3Rvcnk+CiAgICA8cmRmOlNlcT4KICAgICA8cmRmOmxpCiAgICAgIHN0RXZ0OmFjdGlvbj0ic2F2ZWQiCiAgICAgIHN0RXZ0OmNoYW5nZWQ9Ii8iCiAgICAgIHN0RXZ0Omluc3RhbmNlSUQ9InhtcC5paWQ6YWUyOThhOTAtOGFiYi00OGJmLThjNDYtZDNmZjZkN2YwNjdiIgogICAgICBzdEV2dDpzb2Z0d2FyZUFnZW50PSJHaW1wIDIuMTAgKFdpbmRvd3MpIgogICAgICBzdEV2dDp3aGVuPSIyMDIzLTEwLTI0VDE1OjQ5OjA3Ii8+CiAgICA8L3JkZjpTZXE+CiAgIDwveG1wTU06SGlzdG9yeT4KICA8L3JkZjpEZXNjcmlwdGlvbj4KIDwvcmRmOlJERj4KPC94OnhtcG1ldGE+CiAgICAgICAgICAgICAgICAgICAgICAgICAgICAgICAgICAgICAgICAgICAgICAgICAgICAgICAgICAgICAgICAgICAgICAgICAgICAgICAgICAgICAgICAgICAgICAgICAgICAKICAgICAgICAgICAgICAgICAgICAgICAgICAgICAgICAgICAgICAgICAgICAgICAgICAgICAgICAgICAgICAgICAgICAgICAgICAgICAgICAgICAgICAgICAgICAgICAgICAgIAogICAgICAgICAgICAgICAgICAgICAgICAgICAgICAgICAgICAgICAgICAgICAgICAgICAgICAgICAgICAgICAgICAgICAgICAgICAgICAgICAgICAgICAgICAgICAgICAgICAgCiAgICAgICAgICAgICAgICAgICAgICAgICAgICAgICAgICAgICAgICAgICAgICAgICAgICAgICAgICAgICAgICAgICAgICAgICAgICAgICAgICAgICAgICAgICAgICAgICAgICAKICAgICAgICAgICAgICAgICAgICAgICAgICAgICAgICAgICAgICAgICAgICAgICAgICAgICAgICAgICAgICAgICAgICAgICAgICAgICAgICAgICAgICAgICAgICAgICAgICAgIAogICAgICAgICAgICAgICAgICAgICAgICAgICAgICAgICAgICAgICAgICAgICAgICAgICAgICAgICAgICAgICAgICAgICAgICAgICAgICAgICAgICAgICAgICAgICAgICAgICAgCiAgICAgICAgICAgICAgICAgICAgICAgICAgICAgICAgICAgICAgICAgICAgICAgICAgICAgICAgICAgICAgICAgICAgICAgICAgICAgICAgICAgICAgICAgICAgICAgICAgICAKICAgICAgICAgICAgICAgICAgICAgICAgICAgICAgICAgICAgICAgICAgICAgICAgICAgICAgICAgICAgICAgICAgICAgICAgICAgICAgICAgICAgICAgICAgICAgICAgICAgIAogICAgICAgICAgICAgICAgICAgICAgICAgICAgICAgICAgICAgICAgICAgICAgICAgICAgICAgICAgICAgICAgICAgICAgICAgICAgICAgICAgICAgICAgICAgICAgICAgICAgCiAgICAgICAgICAgICAgICAgICAgICAgICAgICAgICAgICAgICAgICAgICAgICAgICAgICAgICAgICAgICAgICAgICAgICAgICAgICAgICAgICAgICAgICAgICAgICAgICAgICAKICAgICAgICAgICAgICAgICAgICAgICAgICAgICAgICAgICAgICAgICAgICAgICAgICAgICAgICAgICAgICAgICAgICAgICAgICAgICAgICAgICAgICAgICAgICAgICAgICAgIAogICAgICAgICAgICAgICAgICAgICAgICAgICAgICAgICAgICAgICAgICAgICAgICAgICAgICAgICAgICAgICAgICAgICAgICAgICAgICAgICAgICAgICAgICAgICAgICAgICAgCiAgICAgICAgICAgICAgICAgICAgICAgICAgICAgICAgICAgICAgICAgICAgICAgICAgICAgICAgICAgICAgICAgICAgICAgICAgICAgICAgICAgICAgICAgICAgICAgICAgICAKICAgICAgICAgICAgICAgICAgICAgICAgICAgICAgICAgICAgICAgICAgICAgICAgICAgICAgICAgICAgICAgICAgICAgICAgICAgICAgICAgICAgICAgICAgICAgICAgICAgIAogICAgICAgICAgICAgICAgICAgICAgICAgICAgICAgICAgICAgICAgICAgICAgICAgICAgICAgICAgICAgICAgICAgICAgICAgICAgICAgICAgICAgICAgICAgICAgICAgICAgCiAgICAgICAgICAgICAgICAgICAgICAgICAgICAgICAgICAgICAgICAgICAgICAgICAgICAgICAgICAgICAgICAgICAgICAgICAgICAgICAgICAgICAgICAgICAgICAgICAgICAKICAgICAgICAgICAgICAgICAgICAgICAgICAgICAgICAgICAgICAgICAgICAgICAgICAgICAgICAgICAgICAgICAgICAgICAgICAgICAgICAgICAgICAgICAgICAgICAgICAgIAogICAgICAgICAgICAgICAgICAgICAgICAgICAgICAgICAgICAgICAgICAgICAgICAgICAgICAgICAgICAgICAgICAgICAgICAgICAgICAgICAgICAgICAgICAgICAgICAgICAgCiAgICAgICAgICAgICAgICAgICAgICAgICAgICAgICAgICAgICAgICAgICAgICAgICAgICAgICAgICAgICAgICAgICAgICAgICAgICAgICAgICAgICAgICAgICAgICAgICAgICAKICAgICAgICAgICAgICAgICAgICAgICAgICAgICAgICAgICAgICAgICAgICAgICAgICAgICAgICAgICAgICAgICAgICAgICAgICAgICAgICAgICAgICAgICAgICAgICAgICAgIAogICAgICAgICAgICAgICAgICAgICAgICAgICAKPD94cGFja2V0IGVuZD0idyI/PqTog8kAAAAGYktHRABYAKUAkambAywAAAAJcEhZcwAACxMAAAsTAQCanBgAAAAHdElNRQfnChgNMQdIaecJAAAKxUlEQVR42u3a0VXjMBBAUVknLaWNVEI5qYQ2KAr+4Cd4iVZ2Zkb3VrAna8lvxrQGAAAAAAAAAAAAAAAAAAAAAAAAAAAAAAAAAAAAAAAAAAAAAAAAAAAAAAAAAAAAAAAAAAAAAAAAAAAAAAAAAAAAAAAAAAAAAAAAAAAAAAAAAAAAAAAAAAAAAAAAAAAAAAAAAAAAAAAAAAAAAAAAAAAAAAAAAAAAAAAAAAAAAAAAAAAAAAAAAAAAAAAAAAAAAEBQm5+AZ719vH/6FYDs7tebdyBiCYEEIJ4QS4gkANGEWEIoAQgmxBJCCUAwIZYQSgCCCbGEUAIQTIglhBKAYKK+7idAKAGAWAIAAyViCZcAAIglADBYIpZw+AFALAGAAROxhEMPAGIJAAyaiCUcdgAQSwCAgROxBAAgljARAYBYAgCDJ2IJhxsAxBIAGEARSwAAYgkTEACIJQDAICqWcJgBQCwBACCWAOAYtvdiCYcYAMQSAGAwRSw5vACAWAIAEEsAEIxtvljCoQUAsQQAGFQRSw4rACCWAADEEgAEY7svlnBIAUAsAQDQ2uYnqMVWCSCO+/XmPVuAzRIAgFgCgPPZ9oslHEoAEEsAACvzh2dF2CoBxOUPvXOzWQIAEEsA8Dq2/2IJhxAAxBIAwIr8wVlytkoAefhD75xslgAAxBIAwBjrwMR8ggPIx6e4fGyWAAB2qNukbJUA8rJdysVmCQBALAEAjLEGTMgnOID8fIrLw2YJAGCHqk3GVgmgDtulHGyWAADEEgDAGOu/RHyCA6jHp7j4bJYAAHZc/AQ52CqZxsBdBq9hswQAAhKxRDW2SuDsgljC1AHgnkcsAbAa2yXEEqYNFy0AYgkAMByLJQjHVgmcZRBLmDIAQCyBSRScaWfakCyWcGAAQCwBAIZlsQQvZl0PzjaIJUwVACCWwOQJOOOGZrGEAwIAYglMnICzbngWSwAAYglTBAAglkjHWh6ceUO0IVos4UAAgFgCEybg7COWAIAD+PIglnAQTJYAiCUAMDAZqsUSDgAAiCUwUQLuAsQSABCMLxFiyYOPSRIAsQQABihDtljCA+9SBEAsAYBBCrEEAATjy4RY8qCbHAHcEYglAACxxEO2SiZGAO8SsQQABivEErj8AF7HdkksebABMGAhlgAAxBKtNVslEyKAd4tYAgCDFmIJXHYAkdguiSUPMgAGLsQSLjkAEEuLslUCwLtGLAHAqWypEUu43ABALNVnLQpgAPPOEUvgUgNALKHwAfDuEUtwEFslwP2CWAIAEEv8lTUowHlsl7yDxBIuMQAQS4oeAIOZd5FYwuUFAGIJAKASk/9E1p4/bJUA97C7uAqbJQAAsWSaAViBTQpiCZcVAAZ5sQQAEIcNgHKfylYJcC+7m6uxWQIAEEumF5ML4D4CsQQAGOzFEgDAmawplfoUVt6Ae9pdXZXNEgCAWDKtmFQA9xOIJQDAoC+WMLUBgFhS5gAY6hBLAICBXyx5yExrAO4rxBIAYPAXS2BKA9xbiCWUOAAgljCdAVgAWACIJQ8VAIY9xBIAgFjCVAbgHpvPVxOx5GECAMQSpjEAxlkIiCUPEQCGP8QSLhYAEEsAYAg8hK8oYsnDAwCIJUxfAIyzIBBLHhoADIOIJVwkACCWAMBQeAhfVcSShwUAEEuYtgDcd4ilA9kqAeA9iFjClAUAYgkADIkjbJfEkofDhQEAYgkADIuIpYlslQDAe1EsYaoCALEEAIbGGWyXxJKHwQUBAGIJAAyPiCVcDAAcwtcXseQhAADEEgA8y8YdsdRslVwIAHhfiiUAMEwilnARAHCslbdL3X86AIBY4gFbJQB3JWLpIVslAPD+FEsAMInt0trEkoMPAH+24nap+08GAEMmYgkHHgDE0r/YKgGA96lYYpetEoA7FLEEACCWnuUTHAAz2C6t9161WXLAAYDVY8lWCQC8X8USu2yVANypiCUAgOnKl7FPcCYgAO8Y75n/YbMEALBqLCl+APC+FUvs8gkOwB2LWAIAOEzZIvYJzsQD4J3jvTODzRIAwGqxpPBtlQDcuYglACCUqssKsQQAsKPc2tAnOOtgAO8g76GZbJYAAFaJJUVvqwTgDkYsAQChVVteiCUTDQCwQiz5BAeAwdV7WSwBAIiltevVJAPgTkYsAQALqLLMEEsmGACgciz5BAeAQRaxhMMIQEoVlhrdfwAAGGgpGksAQHzZlxtiycQCAFSMJZ/gADDYIpZw+AAoIfOSo/vBAcCAS7FYcugcOgAQSwBg0C0l65eh7ocGACgUSyYTkwkAeWVcenQ/MAAYeCkSSw6ZQwYAYgkADL6lZftS1P2wDhcAUCCWAIA6Mi1Buh8UAM7la0EuNksOFQAglgDAIBxNli9H3Q/pMAEAiWMJAEAs8ZCtEoB7vroMX5C6HxAAIGksAUB1tktiCYcHAMQSAMCo6H920/1w8dgqAbj3iePiJxCKuOBwpwC/8xkOAEAsgYkdzygglgAAxBKY3MGzied1+VhywAEAsQQmIvBMglgCABBLgEkezyKIJQAAsQSY6PEMAmIJAEAsgckezx4glgAAxBKY8MEzB2IJAEAsgUkfPGsglgAAxBJg4sczBmIJAEAsASZ/PFuAWAIAEEtgA4BnChBLAABiCWwCwLMEYgkAQCwB32wE8AyBWAIAEEvAOJsBPDsglgAAxBIwzoYAzwyIJQAAsQSMsynAswJiCQBALAHjbAwAxBIAghrEEuBlCCCWABDSIJYAL0UAxBKAgAbEEng5AiCWAIQzIJbASxIAsQSAYAaxBHhZAoglAIQyiCXASxNALAEgkEEsAV6eAIglAGEMiCXwEgVALAEIYkAsAV6mAGIJQAgDYgnwUgUQSwAIYBBLgJcrgFgCQPgCYgm8ZAEQSwCCFxBL4GULgFgCELqAWAK8dAHEEoDABcQS4OULUMPFTwCCCYDf2SwBAIglAACxBAAglgAAxBIAgFgCABBLAABiCQBALAEAiCUAAMQSAIBYAgAQSwAAYgkAQCwBAIglAACxBAAglgAAxBIAgFgCAEAsAQCIJQAAsQQAIJYAAMQSAIBYAgAQSwAAYgkAQCwBACCWAADEEgCAWAIAEEsAAGIJAEAsAQCIJQAAsQQAIJYAAMQSAABiCQBALAEAiCUAALEEACCWAADEEgCAWAIAEEsAAGIJAACxBAAglgAAxBIAgFgCABBLAABiCQBALAEAiCUAALEEACCWAAAQSwAAYgkAQCwBAIglAACxBAAglgAAxBIAgFgCABBLAACIJQAAsQQAIJYAAMQSAIBYAgAQSwAAYgkAQCwBAIglAACxBACAWAIAEEsAAGIJAEAsAQCIJQAAsQQAIJYAAMQSAIBYAgBALAEAiCUAALEEACCWAADEEgCAWAIAEEsAAGIJAEAsAQCIJQAAxBIAgFgCABBLAABiCQBALAEAiCUAALEEACCWAADEEgCAWAIAQCwBAIglAACxBAAglgAAxBIAgFgCABBLAABiCQBALAEA8G2L+g97+3j/9N8DAGu4X29hm8RmCQBALAEAjNki/+N8igOA+iJ/gmvNZgkAYNcW/R9ouwQAdUXfKqWIJcEEAELplXyGAwDYsWX5h9ouAUAdWbZKqWJJMAGAUBJLogkARJJYEkwAIJTEkmgCAFJHUplYEk0AIJLEkngCAHEEAEA8X3QAuzuk3Kn/AAAAAElFTkSuQmCC;rounded=1;strokeWidth=2;fixDash=0;snapToPoint=0;comic=0;shadow=1;" parent="1" vertex="1">
          <mxGeometry x="160" y="290" width="57" height="48.55" as="geometry" />
        </mxCell>
        <mxCell id="5M5S_JfumDmxrn6SgT74-33" value="" style="shape=image;verticalLabelPosition=bottom;labelBackgroundColor=none;verticalAlign=top;aspect=fixed;imageAspect=0;image=data:image/png,iVBORw0KGgoAAAANSUhEUgAAAksAAAH0CAYAAAAtyWk/AAAAxXpUWHRSYXcgcHJvZmlsZSB0eXBlIGV4aWYAAHjabVBBDsMgDLvzij0hxIGG59CVSvvBnr/QgFS2WcJJ49Y1Ce39OsOjg6MESZvmkjMZpEjhao2So14cSS6+IDvxmC7zcMpo2SqswgXNXuOcjw9mjdW6dDPS5xD2VSjilfXLyPMQeqLeH8OoDCOwC3EYVL8W5aLb/Qp7oxXqJ3QSXWP/PG+2vSPZf8DcEEHGgHgA9IOA2gVjhtiLEcl6QTEmzCS2kH97mggfejhZfNRiE+8AAAGEaUNDUElDQyBwcm9maWxlAAB4nH2RPUjDUBSFT1OlUioOdijFIUN1souKOJYqFsFCaSu06mDy0j9o0pCkuDgKrgUHfxarDi7Oujq4CoLgD4iri5Oii5R4X1JoEeODy/s4753DffcBQrvOVHMgAaiaZWRTSbFQXBUDrwgighBVVGKmns4t5uG5vu7h4/tdnGd53/tzDSslkwE+kTjBdMMi3iCe3bR0zvvEYVaVFOJz4kmDGiR+5Lrs8hvnisMCzwwb+ew8cZhYrPSx3MesaqjEM8QxRdUoXyi4rHDe4qzWm6zbJ39hqKSt5LhONYYUlpBGBiJkNFFDHRbitGukmMjSedLDH3X8GXLJ5KqBkWMBDaiQHD/4H/yerVmennKTQklg8MW2P8aBwC7Qadn297Ftd04A/zNwpfX8jTYw90l6q6fFjoCRbeDiuqfJe8DlDhB50iVDciQ/lVAuA+9n9E1FYPQWCK65c+ue4/QByNOslm+Ag0NgokLZ6x7vHuqf2793uvP7AatVcr2KywxtAAANdmlUWHRYTUw6Y29tLmFkb2JlLnhtcAAAAAAAPD94cGFja2V0IGJlZ2luPSLvu78iIGlkPSJXNU0wTXBDZWhpSHpyZVN6TlRjemtjOWQiPz4KPHg6eG1wbWV0YSB4bWxuczp4PSJhZG9iZTpuczptZXRhLyIgeDp4bXB0az0iWE1QIENvcmUgNC40LjAtRXhpdjIiPgogPHJkZjpSREYgeG1sbnM6cmRmPSJodHRwOi8vd3d3LnczLm9yZy8xOTk5LzAyLzIyLXJkZi1zeW50YXgtbnMjIj4KICA8cmRmOkRlc2NyaXB0aW9uIHJkZjphYm91dD0iIgogICAgeG1sbnM6eG1wTU09Imh0dHA6Ly9ucy5hZG9iZS5jb20veGFwLzEuMC9tbS8iCiAgICB4bWxuczpzdEV2dD0iaHR0cDovL25zLmFkb2JlLmNvbS94YXAvMS4wL3NUeXBlL1Jlc291cmNlRXZlbnQjIgogICAgeG1sbnM6ZGM9Imh0dHA6Ly9wdXJsLm9yZy9kYy9lbGVtZW50cy8xLjEvIgogICAgeG1sbnM6R0lNUD0iaHR0cDovL3d3dy5naW1wLm9yZy94bXAvIgogICAgeG1sbnM6dGlmZj0iaHR0cDovL25zLmFkb2JlLmNvbS90aWZmLzEuMC8iCiAgICB4bWxuczp4bXA9Imh0dHA6Ly9ucy5hZG9iZS5jb20veGFwLzEuMC8iCiAgIHhtcE1NOkRvY3VtZW50SUQ9ImdpbXA6ZG9jaWQ6Z2ltcDplNDc0Y2E5ZS0xNzE3LTQ1N2QtODYwMi0wOGMxMjU0NjdkMjUiCiAgIHhtcE1NOkluc3RhbmNlSUQ9InhtcC5paWQ6ZmUzY2JiNTgtN2MxNS00ZjA4LWEyNmMtZGIwMjVhYjA3YzRlIgogICB4bXBNTTpPcmlnaW5hbERvY3VtZW50SUQ9InhtcC5kaWQ6M2NjY2ZmZGEtNGQ1NC00M2Q1LTkwYjctNDczNWFkMjFkNGZlIgogICBkYzpGb3JtYXQ9ImltYWdlL3BuZyIKICAgR0lNUDpBUEk9IjIuMCIKICAgR0lNUDpQbGF0Zm9ybT0iV2luZG93cyIKICAgR0lNUDpUaW1lU3RhbXA9IjE2OTgxNTUzNDcwNTgxNTgiCiAgIEdJTVA6VmVyc2lvbj0iMi4xMC4zNCIKICAgdGlmZjpPcmllbnRhdGlvbj0iMSIKICAgeG1wOkNyZWF0b3JUb29sPSJHSU1QIDIuMTAiCiAgIHhtcDpNZXRhZGF0YURhdGU9IjIwMjM6MTA6MjRUMTU6NDk6MDQrMDI6MDAiCiAgIHhtcDpNb2RpZnlEYXRlPSIyMDIzOjEwOjI0VDE1OjQ5OjA0KzAyOjAwIj4KICAgPHhtcE1NOkhpc3Rvcnk+CiAgICA8cmRmOlNlcT4KICAgICA8cmRmOmxpCiAgICAgIHN0RXZ0OmFjdGlvbj0ic2F2ZWQiCiAgICAgIHN0RXZ0OmNoYW5nZWQ9Ii8iCiAgICAgIHN0RXZ0Omluc3RhbmNlSUQ9InhtcC5paWQ6YWUyOThhOTAtOGFiYi00OGJmLThjNDYtZDNmZjZkN2YwNjdiIgogICAgICBzdEV2dDpzb2Z0d2FyZUFnZW50PSJHaW1wIDIuMTAgKFdpbmRvd3MpIgogICAgICBzdEV2dDp3aGVuPSIyMDIzLTEwLTI0VDE1OjQ5OjA3Ii8+CiAgICA8L3JkZjpTZXE+CiAgIDwveG1wTU06SGlzdG9yeT4KICA8L3JkZjpEZXNjcmlwdGlvbj4KIDwvcmRmOlJERj4KPC94OnhtcG1ldGE+CiAgICAgICAgICAgICAgICAgICAgICAgICAgICAgICAgICAgICAgICAgICAgICAgICAgICAgICAgICAgICAgICAgICAgICAgICAgICAgICAgICAgICAgICAgICAgICAgICAgICAKICAgICAgICAgICAgICAgICAgICAgICAgICAgICAgICAgICAgICAgICAgICAgICAgICAgICAgICAgICAgICAgICAgICAgICAgICAgICAgICAgICAgICAgICAgICAgICAgICAgIAogICAgICAgICAgICAgICAgICAgICAgICAgICAgICAgICAgICAgICAgICAgICAgICAgICAgICAgICAgICAgICAgICAgICAgICAgICAgICAgICAgICAgICAgICAgICAgICAgICAgCiAgICAgICAgICAgICAgICAgICAgICAgICAgICAgICAgICAgICAgICAgICAgICAgICAgICAgICAgICAgICAgICAgICAgICAgICAgICAgICAgICAgICAgICAgICAgICAgICAgICAKICAgICAgICAgICAgICAgICAgICAgICAgICAgICAgICAgICAgICAgICAgICAgICAgICAgICAgICAgICAgICAgICAgICAgICAgICAgICAgICAgICAgICAgICAgICAgICAgICAgIAogICAgICAgICAgICAgICAgICAgICAgICAgICAgICAgICAgICAgICAgICAgICAgICAgICAgICAgICAgICAgICAgICAgICAgICAgICAgICAgICAgICAgICAgICAgICAgICAgICAgCiAgICAgICAgICAgICAgICAgICAgICAgICAgICAgICAgICAgICAgICAgICAgICAgICAgICAgICAgICAgICAgICAgICAgICAgICAgICAgICAgICAgICAgICAgICAgICAgICAgICAKICAgICAgICAgICAgICAgICAgICAgICAgICAgICAgICAgICAgICAgICAgICAgICAgICAgICAgICAgICAgICAgICAgICAgICAgICAgICAgICAgICAgICAgICAgICAgICAgICAgIAogICAgICAgICAgICAgICAgICAgICAgICAgICAgICAgICAgICAgICAgICAgICAgICAgICAgICAgICAgICAgICAgICAgICAgICAgICAgICAgICAgICAgICAgICAgICAgICAgICAgCiAgICAgICAgICAgICAgICAgICAgICAgICAgICAgICAgICAgICAgICAgICAgICAgICAgICAgICAgICAgICAgICAgICAgICAgICAgICAgICAgICAgICAgICAgICAgICAgICAgICAKICAgICAgICAgICAgICAgICAgICAgICAgICAgICAgICAgICAgICAgICAgICAgICAgICAgICAgICAgICAgICAgICAgICAgICAgICAgICAgICAgICAgICAgICAgICAgICAgICAgIAogICAgICAgICAgICAgICAgICAgICAgICAgICAgICAgICAgICAgICAgICAgICAgICAgICAgICAgICAgICAgICAgICAgICAgICAgICAgICAgICAgICAgICAgICAgICAgICAgICAgCiAgICAgICAgICAgICAgICAgICAgICAgICAgICAgICAgICAgICAgICAgICAgICAgICAgICAgICAgICAgICAgICAgICAgICAgICAgICAgICAgICAgICAgICAgICAgICAgICAgICAKICAgICAgICAgICAgICAgICAgICAgICAgICAgICAgICAgICAgICAgICAgICAgICAgICAgICAgICAgICAgICAgICAgICAgICAgICAgICAgICAgICAgICAgICAgICAgICAgICAgIAogICAgICAgICAgICAgICAgICAgICAgICAgICAgICAgICAgICAgICAgICAgICAgICAgICAgICAgICAgICAgICAgICAgICAgICAgICAgICAgICAgICAgICAgICAgICAgICAgICAgCiAgICAgICAgICAgICAgICAgICAgICAgICAgICAgICAgICAgICAgICAgICAgICAgICAgICAgICAgICAgICAgICAgICAgICAgICAgICAgICAgICAgICAgICAgICAgICAgICAgICAKICAgICAgICAgICAgICAgICAgICAgICAgICAgICAgICAgICAgICAgICAgICAgICAgICAgICAgICAgICAgICAgICAgICAgICAgICAgICAgICAgICAgICAgICAgICAgICAgICAgIAogICAgICAgICAgICAgICAgICAgICAgICAgICAgICAgICAgICAgICAgICAgICAgICAgICAgICAgICAgICAgICAgICAgICAgICAgICAgICAgICAgICAgICAgICAgICAgICAgICAgCiAgICAgICAgICAgICAgICAgICAgICAgICAgICAgICAgICAgICAgICAgICAgICAgICAgICAgICAgICAgICAgICAgICAgICAgICAgICAgICAgICAgICAgICAgICAgICAgICAgICAKICAgICAgICAgICAgICAgICAgICAgICAgICAgICAgICAgICAgICAgICAgICAgICAgICAgICAgICAgICAgICAgICAgICAgICAgICAgICAgICAgICAgICAgICAgICAgICAgICAgIAogICAgICAgICAgICAgICAgICAgICAgICAgICAKPD94cGFja2V0IGVuZD0idyI/PqTog8kAAAAGYktHRABYAKUAkambAywAAAAJcEhZcwAACxMAAAsTAQCanBgAAAAHdElNRQfnChgNMQdIaecJAAAKxUlEQVR42u3a0VXjMBBAUVknLaWNVEI5qYQ2KAr+4Cd4iVZ2Zkb3VrAna8lvxrQGAAAAAAAAAAAAAAAAAAAAAAAAAAAAAAAAAAAAAAAAAAAAAAAAAAAAAAAAAAAAAAAAAAAAAAAAAAAAAAAAAAAAAAAAAAAAAAAAAAAAAAAAAAAAAAAAAAAAAAAAAAAAAAAAAAAAAAAAAAAAAAAAAAAAAAAAAAAAAAAAAAAAAAAAAAAAAAAAAAAAAAAAAAAAAEBQm5+AZ719vH/6FYDs7tebdyBiCYEEIJ4QS4gkANGEWEIoAQgmxBJCCUAwIZYQSgCCCbGEUAIQTIglhBKAYKK+7idAKAGAWAIAAyViCZcAAIglADBYIpZw+AFALAGAAROxhEMPAGIJAAyaiCUcdgAQSwCAgROxBAAgljARAYBYAgCDJ2IJhxsAxBIAGEARSwAAYgkTEACIJQDAICqWcJgBQCwBACCWAOAYtvdiCYcYAMQSAGAwRSw5vACAWAIAEEsAEIxtvljCoQUAsQQAGFQRSw4rACCWAADEEgAEY7svlnBIAUAsAQDQ2uYnqMVWCSCO+/XmPVuAzRIAgFgCgPPZ9oslHEoAEEsAACvzh2dF2CoBxOUPvXOzWQIAEEsA8Dq2/2IJhxAAxBIAwIr8wVlytkoAefhD75xslgAAxBIAwBjrwMR8ggPIx6e4fGyWAAB2qNukbJUA8rJdysVmCQBALAEAjLEGTMgnOID8fIrLw2YJAGCHqk3GVgmgDtulHGyWAADEEgDAGOu/RHyCA6jHp7j4bJYAAHZc/AQ52CqZxsBdBq9hswQAAhKxRDW2SuDsgljC1AHgnkcsAbAa2yXEEqYNFy0AYgkAMByLJQjHVgmcZRBLmDIAQCyBSRScaWfakCyWcGAAQCwBAIZlsQQvZl0PzjaIJUwVACCWwOQJOOOGZrGEAwIAYglMnICzbngWSwAAYglTBAAglkjHWh6ceUO0IVos4UAAgFgCEybg7COWAIAD+PIglnAQTJYAiCUAMDAZqsUSDgAAiCUwUQLuAsQSABCMLxFiyYOPSRIAsQQABihDtljCA+9SBEAsAYBBCrEEAATjy4RY8qCbHAHcEYglAACxxEO2SiZGAO8SsQQABivEErj8AF7HdkksebABMGAhlgAAxBKtNVslEyKAd4tYAgCDFmIJXHYAkdguiSUPMgAGLsQSLjkAEEuLslUCwLtGLAHAqWypEUu43ABALNVnLQpgAPPOEUvgUgNALKHwAfDuEUtwEFslwP2CWAIAEEv8lTUowHlsl7yDxBIuMQAQS4oeAIOZd5FYwuUFAGIJAKASk/9E1p4/bJUA97C7uAqbJQAAsWSaAViBTQpiCZcVAAZ5sQQAEIcNgHKfylYJcC+7m6uxWQIAEEumF5ML4D4CsQQAGOzFEgDAmawplfoUVt6Ae9pdXZXNEgCAWDKtmFQA9xOIJQDAoC+WMLUBgFhS5gAY6hBLAICBXyx5yExrAO4rxBIAYPAXS2BKA9xbiCWUOAAgljCdAVgAWACIJQ8VAIY9xBIAgFjCVAbgHpvPVxOx5GECAMQSpjEAxlkIiCUPEQCGP8QSLhYAEEsAYAg8hK8oYsnDAwCIJUxfAIyzIBBLHhoADIOIJVwkACCWAMBQeAhfVcSShwUAEEuYtgDcd4ilA9kqAeA9iFjClAUAYgkADIkjbJfEkofDhQEAYgkADIuIpYlslQDAe1EsYaoCALEEAIbGGWyXxJKHwQUBAGIJAAyPiCVcDAAcwtcXseQhAADEEgA8y8YdsdRslVwIAHhfiiUAMEwilnARAHCslbdL3X86AIBY4gFbJQB3JWLpIVslAPD+FEsAMInt0trEkoMPAH+24nap+08GAEMmYgkHHgDE0r/YKgGA96lYYpetEoA7FLEEACCWnuUTHAAz2C6t9161WXLAAYDVY8lWCQC8X8USu2yVANypiCUAgOnKl7FPcCYgAO8Y75n/YbMEALBqLCl+APC+FUvs8gkOwB2LWAIAOEzZIvYJzsQD4J3jvTODzRIAwGqxpPBtlQDcuYglACCUqssKsQQAsKPc2tAnOOtgAO8g76GZbJYAAFaJJUVvqwTgDkYsAQChVVteiCUTDQCwQiz5BAeAwdV7WSwBAIiltevVJAPgTkYsAQALqLLMEEsmGACgciz5BAeAQRaxhMMIQEoVlhrdfwAAGGgpGksAQHzZlxtiycQCAFSMJZ/gADDYIpZw+AAoIfOSo/vBAcCAS7FYcugcOgAQSwBg0C0l65eh7ocGACgUSyYTkwkAeWVcenQ/MAAYeCkSSw6ZQwYAYgkADL6lZftS1P2wDhcAUCCWAIA6Mi1Buh8UAM7la0EuNksOFQAglgDAIBxNli9H3Q/pMAEAiWMJAEAs8ZCtEoB7vroMX5C6HxAAIGksAUB1tktiCYcHAMQSAMCo6H920/1w8dgqAbj3iePiJxCKuOBwpwC/8xkOAEAsgYkdzygglgAAxBKY3MGzied1+VhywAEAsQQmIvBMglgCABBLgEkezyKIJQAAsQSY6PEMAmIJAEAsgckezx4glgAAxBKY8MEzB2IJAEAsgUkfPGsglgAAxBJg4sczBmIJAEAsASZ/PFuAWAIAEEtgA4BnChBLAABiCWwCwLMEYgkAQCwB32wE8AyBWAIAEEvAOJsBPDsglgAAxBIwzoYAzwyIJQAAsQSMsynAswJiCQBALAHjbAwAxBIAghrEEuBlCCCWABDSIJYAL0UAxBKAgAbEEng5AiCWAIQzIJbASxIAsQSAYAaxBHhZAoglAIQyiCXASxNALAEgkEEsAV6eAIglAGEMiCXwEgVALAEIYkAsAV6mAGIJQAgDYgnwUgUQSwAIYBBLgJcrgFgCQPgCYgm8ZAEQSwCCFxBL4GULgFgCELqAWAK8dAHEEoDABcQS4OULUMPFTwCCCYDf2SwBAIglAACxBAAglgAAxBIAgFgCABBLAABiCQBALAEAiCUAAMQSAIBYAgAQSwAAYgkAQCwBAIglAACxBAAglgAAxBIAgFgCAEAsAQCIJQAAsQQAIJYAAMQSAIBYAgAQSwAAYgkAQCwBACCWAADEEgCAWAIAEEsAAGIJAEAsAQCIJQAAsQQAIJYAAMQSAABiCQBALAEAiCUAALEEACCWAADEEgCAWAIAEEsAAGIJAACxBAAglgAAxBIAgFgCABBLAABiCQBALAEAiCUAALEEACCWAAAQSwAAYgkAQCwBAIglAACxBAAglgAAxBIAgFgCABBLAACIJQAAsQQAIJYAAMQSAIBYAgAQSwAAYgkAQCwBAIglAACxBACAWAIAEEsAAGIJAEAsAQCIJQAAsQQAIJYAAMQSAIBYAgBALAEAiCUAALEEACCWAADEEgCAWAIAEEsAAGIJAEAsAQCIJQAAxBIAgFgCABBLAABiCQBALAEAiCUAALEEACCWAADEEgCAWAIAQCwBAIglAACxBAAglgAAxBIAgFgCABBLAABiCQBALAEA8G2L+g97+3j/9N8DAGu4X29hm8RmCQBALAEAjNki/+N8igOA+iJ/gmvNZgkAYNcW/R9ouwQAdUXfKqWIJcEEAELplXyGAwDYsWX5h9ouAUAdWbZKqWJJMAGAUBJLogkARJJYEkwAIJTEkmgCAFJHUplYEk0AIJLEkngCAHEEAEA8X3QAuzuk3Kn/AAAAAElFTkSuQmCC;rounded=1;autosize=0;treeMoving=0;strokeWidth=2;fixDash=0;snapToPoint=0;comic=0;shadow=1;" parent="1" vertex="1">
          <mxGeometry x="250" y="210" width="57" height="48.55" as="geometry" />
        </mxCell>
        <mxCell id="5M5S_JfumDmxrn6SgT74-34" value="" style="shape=image;verticalLabelPosition=bottom;labelBackgroundColor=none;verticalAlign=top;aspect=fixed;imageAspect=0;image=data:image/png,iVBORw0KGgoAAAANSUhEUgAAAksAAAH0CAYAAAAtyWk/AAAAxXpUWHRSYXcgcHJvZmlsZSB0eXBlIGV4aWYAAHjabVBBDsMgDLvzij0hxIGG59CVSvvBnr/QgFS2WcJJ49Y1Ce39OsOjg6MESZvmkjMZpEjhao2So14cSS6+IDvxmC7zcMpo2SqswgXNXuOcjw9mjdW6dDPS5xD2VSjilfXLyPMQeqLeH8OoDCOwC3EYVL8W5aLb/Qp7oxXqJ3QSXWP/PG+2vSPZf8DcEEHGgHgA9IOA2gVjhtiLEcl6QTEmzCS2kH97mggfejhZfNRiE+8AAAGEaUNDUElDQyBwcm9maWxlAAB4nH2RPUjDUBSFT1OlUioOdijFIUN1souKOJYqFsFCaSu06mDy0j9o0pCkuDgKrgUHfxarDi7Oujq4CoLgD4iri5Oii5R4X1JoEeODy/s4753DffcBQrvOVHMgAaiaZWRTSbFQXBUDrwgighBVVGKmns4t5uG5vu7h4/tdnGd53/tzDSslkwE+kTjBdMMi3iCe3bR0zvvEYVaVFOJz4kmDGiR+5Lrs8hvnisMCzwwb+ew8cZhYrPSx3MesaqjEM8QxRdUoXyi4rHDe4qzWm6zbJ39hqKSt5LhONYYUlpBGBiJkNFFDHRbitGukmMjSedLDH3X8GXLJ5KqBkWMBDaiQHD/4H/yerVmennKTQklg8MW2P8aBwC7Qadn297Ftd04A/zNwpfX8jTYw90l6q6fFjoCRbeDiuqfJe8DlDhB50iVDciQ/lVAuA+9n9E1FYPQWCK65c+ue4/QByNOslm+Ag0NgokLZ6x7vHuqf2793uvP7AatVcr2KywxtAAANdmlUWHRYTUw6Y29tLmFkb2JlLnhtcAAAAAAAPD94cGFja2V0IGJlZ2luPSLvu78iIGlkPSJXNU0wTXBDZWhpSHpyZVN6TlRjemtjOWQiPz4KPHg6eG1wbWV0YSB4bWxuczp4PSJhZG9iZTpuczptZXRhLyIgeDp4bXB0az0iWE1QIENvcmUgNC40LjAtRXhpdjIiPgogPHJkZjpSREYgeG1sbnM6cmRmPSJodHRwOi8vd3d3LnczLm9yZy8xOTk5LzAyLzIyLXJkZi1zeW50YXgtbnMjIj4KICA8cmRmOkRlc2NyaXB0aW9uIHJkZjphYm91dD0iIgogICAgeG1sbnM6eG1wTU09Imh0dHA6Ly9ucy5hZG9iZS5jb20veGFwLzEuMC9tbS8iCiAgICB4bWxuczpzdEV2dD0iaHR0cDovL25zLmFkb2JlLmNvbS94YXAvMS4wL3NUeXBlL1Jlc291cmNlRXZlbnQjIgogICAgeG1sbnM6ZGM9Imh0dHA6Ly9wdXJsLm9yZy9kYy9lbGVtZW50cy8xLjEvIgogICAgeG1sbnM6R0lNUD0iaHR0cDovL3d3dy5naW1wLm9yZy94bXAvIgogICAgeG1sbnM6dGlmZj0iaHR0cDovL25zLmFkb2JlLmNvbS90aWZmLzEuMC8iCiAgICB4bWxuczp4bXA9Imh0dHA6Ly9ucy5hZG9iZS5jb20veGFwLzEuMC8iCiAgIHhtcE1NOkRvY3VtZW50SUQ9ImdpbXA6ZG9jaWQ6Z2ltcDplNDc0Y2E5ZS0xNzE3LTQ1N2QtODYwMi0wOGMxMjU0NjdkMjUiCiAgIHhtcE1NOkluc3RhbmNlSUQ9InhtcC5paWQ6ZmUzY2JiNTgtN2MxNS00ZjA4LWEyNmMtZGIwMjVhYjA3YzRlIgogICB4bXBNTTpPcmlnaW5hbERvY3VtZW50SUQ9InhtcC5kaWQ6M2NjY2ZmZGEtNGQ1NC00M2Q1LTkwYjctNDczNWFkMjFkNGZlIgogICBkYzpGb3JtYXQ9ImltYWdlL3BuZyIKICAgR0lNUDpBUEk9IjIuMCIKICAgR0lNUDpQbGF0Zm9ybT0iV2luZG93cyIKICAgR0lNUDpUaW1lU3RhbXA9IjE2OTgxNTUzNDcwNTgxNTgiCiAgIEdJTVA6VmVyc2lvbj0iMi4xMC4zNCIKICAgdGlmZjpPcmllbnRhdGlvbj0iMSIKICAgeG1wOkNyZWF0b3JUb29sPSJHSU1QIDIuMTAiCiAgIHhtcDpNZXRhZGF0YURhdGU9IjIwMjM6MTA6MjRUMTU6NDk6MDQrMDI6MDAiCiAgIHhtcDpNb2RpZnlEYXRlPSIyMDIzOjEwOjI0VDE1OjQ5OjA0KzAyOjAwIj4KICAgPHhtcE1NOkhpc3Rvcnk+CiAgICA8cmRmOlNlcT4KICAgICA8cmRmOmxpCiAgICAgIHN0RXZ0OmFjdGlvbj0ic2F2ZWQiCiAgICAgIHN0RXZ0OmNoYW5nZWQ9Ii8iCiAgICAgIHN0RXZ0Omluc3RhbmNlSUQ9InhtcC5paWQ6YWUyOThhOTAtOGFiYi00OGJmLThjNDYtZDNmZjZkN2YwNjdiIgogICAgICBzdEV2dDpzb2Z0d2FyZUFnZW50PSJHaW1wIDIuMTAgKFdpbmRvd3MpIgogICAgICBzdEV2dDp3aGVuPSIyMDIzLTEwLTI0VDE1OjQ5OjA3Ii8+CiAgICA8L3JkZjpTZXE+CiAgIDwveG1wTU06SGlzdG9yeT4KICA8L3JkZjpEZXNjcmlwdGlvbj4KIDwvcmRmOlJERj4KPC94OnhtcG1ldGE+CiAgICAgICAgICAgICAgICAgICAgICAgICAgICAgICAgICAgICAgICAgICAgICAgICAgICAgICAgICAgICAgICAgICAgICAgICAgICAgICAgICAgICAgICAgICAgICAgICAgICAKICAgICAgICAgICAgICAgICAgICAgICAgICAgICAgICAgICAgICAgICAgICAgICAgICAgICAgICAgICAgICAgICAgICAgICAgICAgICAgICAgICAgICAgICAgICAgICAgICAgIAogICAgICAgICAgICAgICAgICAgICAgICAgICAgICAgICAgICAgICAgICAgICAgICAgICAgICAgICAgICAgICAgICAgICAgICAgICAgICAgICAgICAgICAgICAgICAgICAgICAgCiAgICAgICAgICAgICAgICAgICAgICAgICAgICAgICAgICAgICAgICAgICAgICAgICAgICAgICAgICAgICAgICAgICAgICAgICAgICAgICAgICAgICAgICAgICAgICAgICAgICAKICAgICAgICAgICAgICAgICAgICAgICAgICAgICAgICAgICAgICAgICAgICAgICAgICAgICAgICAgICAgICAgICAgICAgICAgICAgICAgICAgICAgICAgICAgICAgICAgICAgIAogICAgICAgICAgICAgICAgICAgICAgICAgICAgICAgICAgICAgICAgICAgICAgICAgICAgICAgICAgICAgICAgICAgICAgICAgICAgICAgICAgICAgICAgICAgICAgICAgICAgCiAgICAgICAgICAgICAgICAgICAgICAgICAgICAgICAgICAgICAgICAgICAgICAgICAgICAgICAgICAgICAgICAgICAgICAgICAgICAgICAgICAgICAgICAgICAgICAgICAgICAKICAgICAgICAgICAgICAgICAgICAgICAgICAgICAgICAgICAgICAgICAgICAgICAgICAgICAgICAgICAgICAgICAgICAgICAgICAgICAgICAgICAgICAgICAgICAgICAgICAgIAogICAgICAgICAgICAgICAgICAgICAgICAgICAgICAgICAgICAgICAgICAgICAgICAgICAgICAgICAgICAgICAgICAgICAgICAgICAgICAgICAgICAgICAgICAgICAgICAgICAgCiAgICAgICAgICAgICAgICAgICAgICAgICAgICAgICAgICAgICAgICAgICAgICAgICAgICAgICAgICAgICAgICAgICAgICAgICAgICAgICAgICAgICAgICAgICAgICAgICAgICAKICAgICAgICAgICAgICAgICAgICAgICAgICAgICAgICAgICAgICAgICAgICAgICAgICAgICAgICAgICAgICAgICAgICAgICAgICAgICAgICAgICAgICAgICAgICAgICAgICAgIAogICAgICAgICAgICAgICAgICAgICAgICAgICAgICAgICAgICAgICAgICAgICAgICAgICAgICAgICAgICAgICAgICAgICAgICAgICAgICAgICAgICAgICAgICAgICAgICAgICAgCiAgICAgICAgICAgICAgICAgICAgICAgICAgICAgICAgICAgICAgICAgICAgICAgICAgICAgICAgICAgICAgICAgICAgICAgICAgICAgICAgICAgICAgICAgICAgICAgICAgICAKICAgICAgICAgICAgICAgICAgICAgICAgICAgICAgICAgICAgICAgICAgICAgICAgICAgICAgICAgICAgICAgICAgICAgICAgICAgICAgICAgICAgICAgICAgICAgICAgICAgIAogICAgICAgICAgICAgICAgICAgICAgICAgICAgICAgICAgICAgICAgICAgICAgICAgICAgICAgICAgICAgICAgICAgICAgICAgICAgICAgICAgICAgICAgICAgICAgICAgICAgCiAgICAgICAgICAgICAgICAgICAgICAgICAgICAgICAgICAgICAgICAgICAgICAgICAgICAgICAgICAgICAgICAgICAgICAgICAgICAgICAgICAgICAgICAgICAgICAgICAgICAKICAgICAgICAgICAgICAgICAgICAgICAgICAgICAgICAgICAgICAgICAgICAgICAgICAgICAgICAgICAgICAgICAgICAgICAgICAgICAgICAgICAgICAgICAgICAgICAgICAgIAogICAgICAgICAgICAgICAgICAgICAgICAgICAgICAgICAgICAgICAgICAgICAgICAgICAgICAgICAgICAgICAgICAgICAgICAgICAgICAgICAgICAgICAgICAgICAgICAgICAgCiAgICAgICAgICAgICAgICAgICAgICAgICAgICAgICAgICAgICAgICAgICAgICAgICAgICAgICAgICAgICAgICAgICAgICAgICAgICAgICAgICAgICAgICAgICAgICAgICAgICAKICAgICAgICAgICAgICAgICAgICAgICAgICAgICAgICAgICAgICAgICAgICAgICAgICAgICAgICAgICAgICAgICAgICAgICAgICAgICAgICAgICAgICAgICAgICAgICAgICAgIAogICAgICAgICAgICAgICAgICAgICAgICAgICAKPD94cGFja2V0IGVuZD0idyI/PqTog8kAAAAGYktHRABYAKUAkambAywAAAAJcEhZcwAACxMAAAsTAQCanBgAAAAHdElNRQfnChgNMQdIaecJAAAKxUlEQVR42u3a0VXjMBBAUVknLaWNVEI5qYQ2KAr+4Cd4iVZ2Zkb3VrAna8lvxrQGAAAAAAAAAAAAAAAAAAAAAAAAAAAAAAAAAAAAAAAAAAAAAAAAAAAAAAAAAAAAAAAAAAAAAAAAAAAAAAAAAAAAAAAAAAAAAAAAAAAAAAAAAAAAAAAAAAAAAAAAAAAAAAAAAAAAAAAAAAAAAAAAAAAAAAAAAAAAAAAAAAAAAAAAAAAAAAAAAAAAAAAAAAAAAEBQm5+AZ719vH/6FYDs7tebdyBiCYEEIJ4QS4gkANGEWEIoAQgmxBJCCUAwIZYQSgCCCbGEUAIQTIglhBKAYKK+7idAKAGAWAIAAyViCZcAAIglADBYIpZw+AFALAGAAROxhEMPAGIJAAyaiCUcdgAQSwCAgROxBAAgljARAYBYAgCDJ2IJhxsAxBIAGEARSwAAYgkTEACIJQDAICqWcJgBQCwBACCWAOAYtvdiCYcYAMQSAGAwRSw5vACAWAIAEEsAEIxtvljCoQUAsQQAGFQRSw4rACCWAADEEgAEY7svlnBIAUAsAQDQ2uYnqMVWCSCO+/XmPVuAzRIAgFgCgPPZ9oslHEoAEEsAACvzh2dF2CoBxOUPvXOzWQIAEEsA8Dq2/2IJhxAAxBIAwIr8wVlytkoAefhD75xslgAAxBIAwBjrwMR8ggPIx6e4fGyWAAB2qNukbJUA8rJdysVmCQBALAEAjLEGTMgnOID8fIrLw2YJAGCHqk3GVgmgDtulHGyWAADEEgDAGOu/RHyCA6jHp7j4bJYAAHZc/AQ52CqZxsBdBq9hswQAAhKxRDW2SuDsgljC1AHgnkcsAbAa2yXEEqYNFy0AYgkAMByLJQjHVgmcZRBLmDIAQCyBSRScaWfakCyWcGAAQCwBAIZlsQQvZl0PzjaIJUwVACCWwOQJOOOGZrGEAwIAYglMnICzbngWSwAAYglTBAAglkjHWh6ceUO0IVos4UAAgFgCEybg7COWAIAD+PIglnAQTJYAiCUAMDAZqsUSDgAAiCUwUQLuAsQSABCMLxFiyYOPSRIAsQQABihDtljCA+9SBEAsAYBBCrEEAATjy4RY8qCbHAHcEYglAACxxEO2SiZGAO8SsQQABivEErj8AF7HdkksebABMGAhlgAAxBKtNVslEyKAd4tYAgCDFmIJXHYAkdguiSUPMgAGLsQSLjkAEEuLslUCwLtGLAHAqWypEUu43ABALNVnLQpgAPPOEUvgUgNALKHwAfDuEUtwEFslwP2CWAIAEEv8lTUowHlsl7yDxBIuMQAQS4oeAIOZd5FYwuUFAGIJAKASk/9E1p4/bJUA97C7uAqbJQAAsWSaAViBTQpiCZcVAAZ5sQQAEIcNgHKfylYJcC+7m6uxWQIAEEumF5ML4D4CsQQAGOzFEgDAmawplfoUVt6Ae9pdXZXNEgCAWDKtmFQA9xOIJQDAoC+WMLUBgFhS5gAY6hBLAICBXyx5yExrAO4rxBIAYPAXS2BKA9xbiCWUOAAgljCdAVgAWACIJQ8VAIY9xBIAgFjCVAbgHpvPVxOx5GECAMQSpjEAxlkIiCUPEQCGP8QSLhYAEEsAYAg8hK8oYsnDAwCIJUxfAIyzIBBLHhoADIOIJVwkACCWAMBQeAhfVcSShwUAEEuYtgDcd4ilA9kqAeA9iFjClAUAYgkADIkjbJfEkofDhQEAYgkADIuIpYlslQDAe1EsYaoCALEEAIbGGWyXxJKHwQUBAGIJAAyPiCVcDAAcwtcXseQhAADEEgA8y8YdsdRslVwIAHhfiiUAMEwilnARAHCslbdL3X86AIBY4gFbJQB3JWLpIVslAPD+FEsAMInt0trEkoMPAH+24nap+08GAEMmYgkHHgDE0r/YKgGA96lYYpetEoA7FLEEACCWnuUTHAAz2C6t9161WXLAAYDVY8lWCQC8X8USu2yVANypiCUAgOnKl7FPcCYgAO8Y75n/YbMEALBqLCl+APC+FUvs8gkOwB2LWAIAOEzZIvYJzsQD4J3jvTODzRIAwGqxpPBtlQDcuYglACCUqssKsQQAsKPc2tAnOOtgAO8g76GZbJYAAFaJJUVvqwTgDkYsAQChVVteiCUTDQCwQiz5BAeAwdV7WSwBAIiltevVJAPgTkYsAQALqLLMEEsmGACgciz5BAeAQRaxhMMIQEoVlhrdfwAAGGgpGksAQHzZlxtiycQCAFSMJZ/gADDYIpZw+AAoIfOSo/vBAcCAS7FYcugcOgAQSwBg0C0l65eh7ocGACgUSyYTkwkAeWVcenQ/MAAYeCkSSw6ZQwYAYgkADL6lZftS1P2wDhcAUCCWAIA6Mi1Buh8UAM7la0EuNksOFQAglgDAIBxNli9H3Q/pMAEAiWMJAEAs8ZCtEoB7vroMX5C6HxAAIGksAUB1tktiCYcHAMQSAMCo6H920/1w8dgqAbj3iePiJxCKuOBwpwC/8xkOAEAsgYkdzygglgAAxBKY3MGzied1+VhywAEAsQQmIvBMglgCABBLgEkezyKIJQAAsQSY6PEMAmIJAEAsgckezx4glgAAxBKY8MEzB2IJAEAsgUkfPGsglgAAxBJg4sczBmIJAEAsASZ/PFuAWAIAEEtgA4BnChBLAABiCWwCwLMEYgkAQCwB32wE8AyBWAIAEEvAOJsBPDsglgAAxBIwzoYAzwyIJQAAsQSMsynAswJiCQBALAHjbAwAxBIAghrEEuBlCCCWABDSIJYAL0UAxBKAgAbEEng5AiCWAIQzIJbASxIAsQSAYAaxBHhZAoglAIQyiCXASxNALAEgkEEsAV6eAIglAGEMiCXwEgVALAEIYkAsAV6mAGIJQAgDYgnwUgUQSwAIYBBLgJcrgFgCQPgCYgm8ZAEQSwCCFxBL4GULgFgCELqAWAK8dAHEEoDABcQS4OULUMPFTwCCCYDf2SwBAIglAACxBAAglgAAxBIAgFgCABBLAABiCQBALAEAiCUAAMQSAIBYAgAQSwAAYgkAQCwBAIglAACxBAAglgAAxBIAgFgCAEAsAQCIJQAAsQQAIJYAAMQSAIBYAgAQSwAAYgkAQCwBACCWAADEEgCAWAIAEEsAAGIJAEAsAQCIJQAAsQQAIJYAAMQSAABiCQBALAEAiCUAALEEACCWAADEEgCAWAIAEEsAAGIJAACxBAAglgAAxBIAgFgCABBLAABiCQBALAEAiCUAALEEACCWAAAQSwAAYgkAQCwBAIglAACxBAAglgAAxBIAgFgCABBLAACIJQAAsQQAIJYAAMQSAIBYAgAQSwAAYgkAQCwBAIglAACxBACAWAIAEEsAAGIJAEAsAQCIJQAAsQQAIJYAAMQSAIBYAgBALAEAiCUAALEEACCWAADEEgCAWAIAEEsAAGIJAEAsAQCIJQAAxBIAgFgCABBLAABiCQBALAEAiCUAALEEACCWAADEEgCAWAIAQCwBAIglAACxBAAglgAAxBIAgFgCABBLAABiCQBALAEA8G2L+g97+3j/9N8DAGu4X29hm8RmCQBALAEAjNki/+N8igOA+iJ/gmvNZgkAYNcW/R9ouwQAdUXfKqWIJcEEAELplXyGAwDYsWX5h9ouAUAdWbZKqWJJMAGAUBJLogkARJJYEkwAIJTEkmgCAFJHUplYEk0AIJLEkngCAHEEAEA8X3QAuzuk3Kn/AAAAAElFTkSuQmCC;rounded=1;strokeWidth=2;fixDash=0;snapToPoint=0;comic=0;shadow=1;" parent="1" vertex="1">
          <mxGeometry x="340" y="290" width="57" height="48.55" as="geometry" />
        </mxCell>
        <mxCell id="5M5S_JfumDmxrn6SgT74-35" value="" style="endArrow=classic;html=1;rounded=1;labelBackgroundColor=none;fontColor=default;dashed=1;flowAnimation=0;flowAnimationTimingFunction=linear;flowAnimationDuration=1500;metaEdit=0;noJump=0;startArrow=none;startFill=0;strokeWidth=2;fixDash=0;snapToPoint=0;comic=0;shadow=1;dashPattern=1 1;" parent="1" edge="1">
          <mxGeometry width="50" height="50" relative="1" as="geometry">
            <mxPoint x="297.99937500000004" y="258.54999999999995" as="sourcePoint" />
            <mxPoint x="348" y="300" as="targetPoint" />
          </mxGeometry>
        </mxCell>
        <mxCell id="5M5S_JfumDmxrn6SgT74-36" value="" style="endArrow=classic;html=1;rounded=1;labelBackgroundColor=none;fontColor=default;dashed=1;flowAnimation=0;flowAnimationTimingFunction=linear;flowAnimationDuration=1500;metaEdit=0;noJump=0;startArrow=none;startFill=0;strokeWidth=2;fixDash=0;snapToPoint=0;comic=0;shadow=1;dashPattern=1 1;" parent="1" edge="1">
          <mxGeometry width="50" height="50" relative="1" as="geometry">
            <mxPoint x="260.0000000000003" y="258.54999999999995" as="sourcePoint" />
            <mxPoint x="209.99937500000033" y="300" as="targetPoint" />
          </mxGeometry>
        </mxCell>
        <mxCell id="5M5S_JfumDmxrn6SgT74-37" value="" style="shape=image;verticalLabelPosition=bottom;labelBackgroundColor=none;verticalAlign=top;aspect=fixed;imageAspect=0;image=data:image/png,iVBORw0KGgoAAAANSUhEUgAAAksAAAH0CAYAAAAtyWk/AAAAxXpUWHRSYXcgcHJvZmlsZSB0eXBlIGV4aWYAAHjabVBBDsMgDLvzij0hxIGG59CVSvvBnr/QgFS2WcJJ49Y1Ce39OsOjg6MESZvmkjMZpEjhao2So14cSS6+IDvxmC7zcMpo2SqswgXNXuOcjw9mjdW6dDPS5xD2VSjilfXLyPMQeqLeH8OoDCOwC3EYVL8W5aLb/Qp7oxXqJ3QSXWP/PG+2vSPZf8DcEEHGgHgA9IOA2gVjhtiLEcl6QTEmzCS2kH97mggfejhZfNRiE+8AAAGEaUNDUElDQyBwcm9maWxlAAB4nH2RPUjDUBSFT1OlUioOdijFIUN1souKOJYqFsFCaSu06mDy0j9o0pCkuDgKrgUHfxarDi7Oujq4CoLgD4iri5Oii5R4X1JoEeODy/s4753DffcBQrvOVHMgAaiaZWRTSbFQXBUDrwgighBVVGKmns4t5uG5vu7h4/tdnGd53/tzDSslkwE+kTjBdMMi3iCe3bR0zvvEYVaVFOJz4kmDGiR+5Lrs8hvnisMCzwwb+ew8cZhYrPSx3MesaqjEM8QxRdUoXyi4rHDe4qzWm6zbJ39hqKSt5LhONYYUlpBGBiJkNFFDHRbitGukmMjSedLDH3X8GXLJ5KqBkWMBDaiQHD/4H/yerVmennKTQklg8MW2P8aBwC7Qadn297Ftd04A/zNwpfX8jTYw90l6q6fFjoCRbeDiuqfJe8DlDhB50iVDciQ/lVAuA+9n9E1FYPQWCK65c+ue4/QByNOslm+Ag0NgokLZ6x7vHuqf2793uvP7AatVcr2KywxtAAANdmlUWHRYTUw6Y29tLmFkb2JlLnhtcAAAAAAAPD94cGFja2V0IGJlZ2luPSLvu78iIGlkPSJXNU0wTXBDZWhpSHpyZVN6TlRjemtjOWQiPz4KPHg6eG1wbWV0YSB4bWxuczp4PSJhZG9iZTpuczptZXRhLyIgeDp4bXB0az0iWE1QIENvcmUgNC40LjAtRXhpdjIiPgogPHJkZjpSREYgeG1sbnM6cmRmPSJodHRwOi8vd3d3LnczLm9yZy8xOTk5LzAyLzIyLXJkZi1zeW50YXgtbnMjIj4KICA8cmRmOkRlc2NyaXB0aW9uIHJkZjphYm91dD0iIgogICAgeG1sbnM6eG1wTU09Imh0dHA6Ly9ucy5hZG9iZS5jb20veGFwLzEuMC9tbS8iCiAgICB4bWxuczpzdEV2dD0iaHR0cDovL25zLmFkb2JlLmNvbS94YXAvMS4wL3NUeXBlL1Jlc291cmNlRXZlbnQjIgogICAgeG1sbnM6ZGM9Imh0dHA6Ly9wdXJsLm9yZy9kYy9lbGVtZW50cy8xLjEvIgogICAgeG1sbnM6R0lNUD0iaHR0cDovL3d3dy5naW1wLm9yZy94bXAvIgogICAgeG1sbnM6dGlmZj0iaHR0cDovL25zLmFkb2JlLmNvbS90aWZmLzEuMC8iCiAgICB4bWxuczp4bXA9Imh0dHA6Ly9ucy5hZG9iZS5jb20veGFwLzEuMC8iCiAgIHhtcE1NOkRvY3VtZW50SUQ9ImdpbXA6ZG9jaWQ6Z2ltcDplNDc0Y2E5ZS0xNzE3LTQ1N2QtODYwMi0wOGMxMjU0NjdkMjUiCiAgIHhtcE1NOkluc3RhbmNlSUQ9InhtcC5paWQ6ZmUzY2JiNTgtN2MxNS00ZjA4LWEyNmMtZGIwMjVhYjA3YzRlIgogICB4bXBNTTpPcmlnaW5hbERvY3VtZW50SUQ9InhtcC5kaWQ6M2NjY2ZmZGEtNGQ1NC00M2Q1LTkwYjctNDczNWFkMjFkNGZlIgogICBkYzpGb3JtYXQ9ImltYWdlL3BuZyIKICAgR0lNUDpBUEk9IjIuMCIKICAgR0lNUDpQbGF0Zm9ybT0iV2luZG93cyIKICAgR0lNUDpUaW1lU3RhbXA9IjE2OTgxNTUzNDcwNTgxNTgiCiAgIEdJTVA6VmVyc2lvbj0iMi4xMC4zNCIKICAgdGlmZjpPcmllbnRhdGlvbj0iMSIKICAgeG1wOkNyZWF0b3JUb29sPSJHSU1QIDIuMTAiCiAgIHhtcDpNZXRhZGF0YURhdGU9IjIwMjM6MTA6MjRUMTU6NDk6MDQrMDI6MDAiCiAgIHhtcDpNb2RpZnlEYXRlPSIyMDIzOjEwOjI0VDE1OjQ5OjA0KzAyOjAwIj4KICAgPHhtcE1NOkhpc3Rvcnk+CiAgICA8cmRmOlNlcT4KICAgICA8cmRmOmxpCiAgICAgIHN0RXZ0OmFjdGlvbj0ic2F2ZWQiCiAgICAgIHN0RXZ0OmNoYW5nZWQ9Ii8iCiAgICAgIHN0RXZ0Omluc3RhbmNlSUQ9InhtcC5paWQ6YWUyOThhOTAtOGFiYi00OGJmLThjNDYtZDNmZjZkN2YwNjdiIgogICAgICBzdEV2dDpzb2Z0d2FyZUFnZW50PSJHaW1wIDIuMTAgKFdpbmRvd3MpIgogICAgICBzdEV2dDp3aGVuPSIyMDIzLTEwLTI0VDE1OjQ5OjA3Ii8+CiAgICA8L3JkZjpTZXE+CiAgIDwveG1wTU06SGlzdG9yeT4KICA8L3JkZjpEZXNjcmlwdGlvbj4KIDwvcmRmOlJERj4KPC94OnhtcG1ldGE+CiAgICAgICAgICAgICAgICAgICAgICAgICAgICAgICAgICAgICAgICAgICAgICAgICAgICAgICAgICAgICAgICAgICAgICAgICAgICAgICAgICAgICAgICAgICAgICAgICAgICAKICAgICAgICAgICAgICAgICAgICAgICAgICAgICAgICAgICAgICAgICAgICAgICAgICAgICAgICAgICAgICAgICAgICAgICAgICAgICAgICAgICAgICAgICAgICAgICAgICAgIAogICAgICAgICAgICAgICAgICAgICAgICAgICAgICAgICAgICAgICAgICAgICAgICAgICAgICAgICAgICAgICAgICAgICAgICAgICAgICAgICAgICAgICAgICAgICAgICAgICAgCiAgICAgICAgICAgICAgICAgICAgICAgICAgICAgICAgICAgICAgICAgICAgICAgICAgICAgICAgICAgICAgICAgICAgICAgICAgICAgICAgICAgICAgICAgICAgICAgICAgICAKICAgICAgICAgICAgICAgICAgICAgICAgICAgICAgICAgICAgICAgICAgICAgICAgICAgICAgICAgICAgICAgICAgICAgICAgICAgICAgICAgICAgICAgICAgICAgICAgICAgIAogICAgICAgICAgICAgICAgICAgICAgICAgICAgICAgICAgICAgICAgICAgICAgICAgICAgICAgICAgICAgICAgICAgICAgICAgICAgICAgICAgICAgICAgICAgICAgICAgICAgCiAgICAgICAgICAgICAgICAgICAgICAgICAgICAgICAgICAgICAgICAgICAgICAgICAgICAgICAgICAgICAgICAgICAgICAgICAgICAgICAgICAgICAgICAgICAgICAgICAgICAKICAgICAgICAgICAgICAgICAgICAgICAgICAgICAgICAgICAgICAgICAgICAgICAgICAgICAgICAgICAgICAgICAgICAgICAgICAgICAgICAgICAgICAgICAgICAgICAgICAgIAogICAgICAgICAgICAgICAgICAgICAgICAgICAgICAgICAgICAgICAgICAgICAgICAgICAgICAgICAgICAgICAgICAgICAgICAgICAgICAgICAgICAgICAgICAgICAgICAgICAgCiAgICAgICAgICAgICAgICAgICAgICAgICAgICAgICAgICAgICAgICAgICAgICAgICAgICAgICAgICAgICAgICAgICAgICAgICAgICAgICAgICAgICAgICAgICAgICAgICAgICAKICAgICAgICAgICAgICAgICAgICAgICAgICAgICAgICAgICAgICAgICAgICAgICAgICAgICAgICAgICAgICAgICAgICAgICAgICAgICAgICAgICAgICAgICAgICAgICAgICAgIAogICAgICAgICAgICAgICAgICAgICAgICAgICAgICAgICAgICAgICAgICAgICAgICAgICAgICAgICAgICAgICAgICAgICAgICAgICAgICAgICAgICAgICAgICAgICAgICAgICAgCiAgICAgICAgICAgICAgICAgICAgICAgICAgICAgICAgICAgICAgICAgICAgICAgICAgICAgICAgICAgICAgICAgICAgICAgICAgICAgICAgICAgICAgICAgICAgICAgICAgICAKICAgICAgICAgICAgICAgICAgICAgICAgICAgICAgICAgICAgICAgICAgICAgICAgICAgICAgICAgICAgICAgICAgICAgICAgICAgICAgICAgICAgICAgICAgICAgICAgICAgIAogICAgICAgICAgICAgICAgICAgICAgICAgICAgICAgICAgICAgICAgICAgICAgICAgICAgICAgICAgICAgICAgICAgICAgICAgICAgICAgICAgICAgICAgICAgICAgICAgICAgCiAgICAgICAgICAgICAgICAgICAgICAgICAgICAgICAgICAgICAgICAgICAgICAgICAgICAgICAgICAgICAgICAgICAgICAgICAgICAgICAgICAgICAgICAgICAgICAgICAgICAKICAgICAgICAgICAgICAgICAgICAgICAgICAgICAgICAgICAgICAgICAgICAgICAgICAgICAgICAgICAgICAgICAgICAgICAgICAgICAgICAgICAgICAgICAgICAgICAgICAgIAogICAgICAgICAgICAgICAgICAgICAgICAgICAgICAgICAgICAgICAgICAgICAgICAgICAgICAgICAgICAgICAgICAgICAgICAgICAgICAgICAgICAgICAgICAgICAgICAgICAgCiAgICAgICAgICAgICAgICAgICAgICAgICAgICAgICAgICAgICAgICAgICAgICAgICAgICAgICAgICAgICAgICAgICAgICAgICAgICAgICAgICAgICAgICAgICAgICAgICAgICAKICAgICAgICAgICAgICAgICAgICAgICAgICAgICAgICAgICAgICAgICAgICAgICAgICAgICAgICAgICAgICAgICAgICAgICAgICAgICAgICAgICAgICAgICAgICAgICAgICAgIAogICAgICAgICAgICAgICAgICAgICAgICAgICAKPD94cGFja2V0IGVuZD0idyI/PqTog8kAAAAGYktHRABYAKUAkambAywAAAAJcEhZcwAACxMAAAsTAQCanBgAAAAHdElNRQfnChgNMQdIaecJAAAKxUlEQVR42u3a0VXjMBBAUVknLaWNVEI5qYQ2KAr+4Cd4iVZ2Zkb3VrAna8lvxrQGAAAAAAAAAAAAAAAAAAAAAAAAAAAAAAAAAAAAAAAAAAAAAAAAAAAAAAAAAAAAAAAAAAAAAAAAAAAAAAAAAAAAAAAAAAAAAAAAAAAAAAAAAAAAAAAAAAAAAAAAAAAAAAAAAAAAAAAAAAAAAAAAAAAAAAAAAAAAAAAAAAAAAAAAAAAAAAAAAAAAAAAAAAAAAEBQm5+AZ719vH/6FYDs7tebdyBiCYEEIJ4QS4gkANGEWEIoAQgmxBJCCUAwIZYQSgCCCbGEUAIQTIglhBKAYKK+7idAKAGAWAIAAyViCZcAAIglADBYIpZw+AFALAGAAROxhEMPAGIJAAyaiCUcdgAQSwCAgROxBAAgljARAYBYAgCDJ2IJhxsAxBIAGEARSwAAYgkTEACIJQDAICqWcJgBQCwBACCWAOAYtvdiCYcYAMQSAGAwRSw5vACAWAIAEEsAEIxtvljCoQUAsQQAGFQRSw4rACCWAADEEgAEY7svlnBIAUAsAQDQ2uYnqMVWCSCO+/XmPVuAzRIAgFgCgPPZ9oslHEoAEEsAACvzh2dF2CoBxOUPvXOzWQIAEEsA8Dq2/2IJhxAAxBIAwIr8wVlytkoAefhD75xslgAAxBIAwBjrwMR8ggPIx6e4fGyWAAB2qNukbJUA8rJdysVmCQBALAEAjLEGTMgnOID8fIrLw2YJAGCHqk3GVgmgDtulHGyWAADEEgDAGOu/RHyCA6jHp7j4bJYAAHZc/AQ52CqZxsBdBq9hswQAAhKxRDW2SuDsgljC1AHgnkcsAbAa2yXEEqYNFy0AYgkAMByLJQjHVgmcZRBLmDIAQCyBSRScaWfakCyWcGAAQCwBAIZlsQQvZl0PzjaIJUwVACCWwOQJOOOGZrGEAwIAYglMnICzbngWSwAAYglTBAAglkjHWh6ceUO0IVos4UAAgFgCEybg7COWAIAD+PIglnAQTJYAiCUAMDAZqsUSDgAAiCUwUQLuAsQSABCMLxFiyYOPSRIAsQQABihDtljCA+9SBEAsAYBBCrEEAATjy4RY8qCbHAHcEYglAACxxEO2SiZGAO8SsQQABivEErj8AF7HdkksebABMGAhlgAAxBKtNVslEyKAd4tYAgCDFmIJXHYAkdguiSUPMgAGLsQSLjkAEEuLslUCwLtGLAHAqWypEUu43ABALNVnLQpgAPPOEUvgUgNALKHwAfDuEUtwEFslwP2CWAIAEEv8lTUowHlsl7yDxBIuMQAQS4oeAIOZd5FYwuUFAGIJAKASk/9E1p4/bJUA97C7uAqbJQAAsWSaAViBTQpiCZcVAAZ5sQQAEIcNgHKfylYJcC+7m6uxWQIAEEumF5ML4D4CsQQAGOzFEgDAmawplfoUVt6Ae9pdXZXNEgCAWDKtmFQA9xOIJQDAoC+WMLUBgFhS5gAY6hBLAICBXyx5yExrAO4rxBIAYPAXS2BKA9xbiCWUOAAgljCdAVgAWACIJQ8VAIY9xBIAgFjCVAbgHpvPVxOx5GECAMQSpjEAxlkIiCUPEQCGP8QSLhYAEEsAYAg8hK8oYsnDAwCIJUxfAIyzIBBLHhoADIOIJVwkACCWAMBQeAhfVcSShwUAEEuYtgDcd4ilA9kqAeA9iFjClAUAYgkADIkjbJfEkofDhQEAYgkADIuIpYlslQDAe1EsYaoCALEEAIbGGWyXxJKHwQUBAGIJAAyPiCVcDAAcwtcXseQhAADEEgA8y8YdsdRslVwIAHhfiiUAMEwilnARAHCslbdL3X86AIBY4gFbJQB3JWLpIVslAPD+FEsAMInt0trEkoMPAH+24nap+08GAEMmYgkHHgDE0r/YKgGA96lYYpetEoA7FLEEACCWnuUTHAAz2C6t9161WXLAAYDVY8lWCQC8X8USu2yVANypiCUAgOnKl7FPcCYgAO8Y75n/YbMEALBqLCl+APC+FUvs8gkOwB2LWAIAOEzZIvYJzsQD4J3jvTODzRIAwGqxpPBtlQDcuYglACCUqssKsQQAsKPc2tAnOOtgAO8g76GZbJYAAFaJJUVvqwTgDkYsAQChVVteiCUTDQCwQiz5BAeAwdV7WSwBAIiltevVJAPgTkYsAQALqLLMEEsmGACgciz5BAeAQRaxhMMIQEoVlhrdfwAAGGgpGksAQHzZlxtiycQCAFSMJZ/gADDYIpZw+AAoIfOSo/vBAcCAS7FYcugcOgAQSwBg0C0l65eh7ocGACgUSyYTkwkAeWVcenQ/MAAYeCkSSw6ZQwYAYgkADL6lZftS1P2wDhcAUCCWAIA6Mi1Buh8UAM7la0EuNksOFQAglgDAIBxNli9H3Q/pMAEAiWMJAEAs8ZCtEoB7vroMX5C6HxAAIGksAUB1tktiCYcHAMQSAMCo6H920/1w8dgqAbj3iePiJxCKuOBwpwC/8xkOAEAsgYkdzygglgAAxBKY3MGzied1+VhywAEAsQQmIvBMglgCABBLgEkezyKIJQAAsQSY6PEMAmIJAEAsgckezx4glgAAxBKY8MEzB2IJAEAsgUkfPGsglgAAxBJg4sczBmIJAEAsASZ/PFuAWAIAEEtgA4BnChBLAABiCWwCwLMEYgkAQCwB32wE8AyBWAIAEEvAOJsBPDsglgAAxBIwzoYAzwyIJQAAsQSMsynAswJiCQBALAHjbAwAxBIAghrEEuBlCCCWABDSIJYAL0UAxBKAgAbEEng5AiCWAIQzIJbASxIAsQSAYAaxBHhZAoglAIQyiCXASxNALAEgkEEsAV6eAIglAGEMiCXwEgVALAEIYkAsAV6mAGIJQAgDYgnwUgUQSwAIYBBLgJcrgFgCQPgCYgm8ZAEQSwCCFxBL4GULgFgCELqAWAK8dAHEEoDABcQS4OULUMPFTwCCCYDf2SwBAIglAACxBAAglgAAxBIAgFgCABBLAABiCQBALAEAiCUAAMQSAIBYAgAQSwAAYgkAQCwBAIglAACxBAAglgAAxBIAgFgCAEAsAQCIJQAAsQQAIJYAAMQSAIBYAgAQSwAAYgkAQCwBACCWAADEEgCAWAIAEEsAAGIJAEAsAQCIJQAAsQQAIJYAAMQSAABiCQBALAEAiCUAALEEACCWAADEEgCAWAIAEEsAAGIJAACxBAAglgAAxBIAgFgCABBLAABiCQBALAEAiCUAALEEACCWAAAQSwAAYgkAQCwBAIglAACxBAAglgAAxBIAgFgCABBLAACIJQAAsQQAIJYAAMQSAIBYAgAQSwAAYgkAQCwBAIglAACxBACAWAIAEEsAAGIJAEAsAQCIJQAAsQQAIJYAAMQSAIBYAgBALAEAiCUAALEEACCWAADEEgCAWAIAEEsAAGIJAEAsAQCIJQAAxBIAgFgCABBLAABiCQBALAEAiCUAALEEACCWAADEEgCAWAIAQCwBAIglAACxBAAglgAAxBIAgFgCABBLAABiCQBALAEA8G2L+g97+3j/9N8DAGu4X29hm8RmCQBALAEAjNki/+N8igOA+iJ/gmvNZgkAYNcW/R9ouwQAdUXfKqWIJcEEAELplXyGAwDYsWX5h9ouAUAdWbZKqWJJMAGAUBJLogkARJJYEkwAIJTEkmgCAFJHUplYEk0AIJLEkngCAHEEAEA8X3QAuzuk3Kn/AAAAAElFTkSuQmCC;rounded=1;strokeWidth=2;fixDash=0;snapToPoint=0;comic=0;shadow=1;" parent="1" vertex="1">
          <mxGeometry x="340" y="290" width="57" height="48.55" as="geometry" />
        </mxCell>
        <mxCell id="5M5S_JfumDmxrn6SgT74-38" value="" style="shape=image;verticalLabelPosition=bottom;labelBackgroundColor=none;verticalAlign=top;aspect=fixed;imageAspect=0;image=data:image/png,iVBORw0KGgoAAAANSUhEUgAAAksAAAH0CAYAAAAtyWk/AAAAxXpUWHRSYXcgcHJvZmlsZSB0eXBlIGV4aWYAAHjabVBBDsMgDLvzij0hxIGG59CVSvvBnr/QgFS2WcJJ49Y1Ce39OsOjg6MESZvmkjMZpEjhao2So14cSS6+IDvxmC7zcMpo2SqswgXNXuOcjw9mjdW6dDPS5xD2VSjilfXLyPMQeqLeH8OoDCOwC3EYVL8W5aLb/Qp7oxXqJ3QSXWP/PG+2vSPZf8DcEEHGgHgA9IOA2gVjhtiLEcl6QTEmzCS2kH97mggfejhZfNRiE+8AAAGEaUNDUElDQyBwcm9maWxlAAB4nH2RPUjDUBSFT1OlUioOdijFIUN1souKOJYqFsFCaSu06mDy0j9o0pCkuDgKrgUHfxarDi7Oujq4CoLgD4iri5Oii5R4X1JoEeODy/s4753DffcBQrvOVHMgAaiaZWRTSbFQXBUDrwgighBVVGKmns4t5uG5vu7h4/tdnGd53/tzDSslkwE+kTjBdMMi3iCe3bR0zvvEYVaVFOJz4kmDGiR+5Lrs8hvnisMCzwwb+ew8cZhYrPSx3MesaqjEM8QxRdUoXyi4rHDe4qzWm6zbJ39hqKSt5LhONYYUlpBGBiJkNFFDHRbitGukmMjSedLDH3X8GXLJ5KqBkWMBDaiQHD/4H/yerVmennKTQklg8MW2P8aBwC7Qadn297Ftd04A/zNwpfX8jTYw90l6q6fFjoCRbeDiuqfJe8DlDhB50iVDciQ/lVAuA+9n9E1FYPQWCK65c+ue4/QByNOslm+Ag0NgokLZ6x7vHuqf2793uvP7AatVcr2KywxtAAANdmlUWHRYTUw6Y29tLmFkb2JlLnhtcAAAAAAAPD94cGFja2V0IGJlZ2luPSLvu78iIGlkPSJXNU0wTXBDZWhpSHpyZVN6TlRjemtjOWQiPz4KPHg6eG1wbWV0YSB4bWxuczp4PSJhZG9iZTpuczptZXRhLyIgeDp4bXB0az0iWE1QIENvcmUgNC40LjAtRXhpdjIiPgogPHJkZjpSREYgeG1sbnM6cmRmPSJodHRwOi8vd3d3LnczLm9yZy8xOTk5LzAyLzIyLXJkZi1zeW50YXgtbnMjIj4KICA8cmRmOkRlc2NyaXB0aW9uIHJkZjphYm91dD0iIgogICAgeG1sbnM6eG1wTU09Imh0dHA6Ly9ucy5hZG9iZS5jb20veGFwLzEuMC9tbS8iCiAgICB4bWxuczpzdEV2dD0iaHR0cDovL25zLmFkb2JlLmNvbS94YXAvMS4wL3NUeXBlL1Jlc291cmNlRXZlbnQjIgogICAgeG1sbnM6ZGM9Imh0dHA6Ly9wdXJsLm9yZy9kYy9lbGVtZW50cy8xLjEvIgogICAgeG1sbnM6R0lNUD0iaHR0cDovL3d3dy5naW1wLm9yZy94bXAvIgogICAgeG1sbnM6dGlmZj0iaHR0cDovL25zLmFkb2JlLmNvbS90aWZmLzEuMC8iCiAgICB4bWxuczp4bXA9Imh0dHA6Ly9ucy5hZG9iZS5jb20veGFwLzEuMC8iCiAgIHhtcE1NOkRvY3VtZW50SUQ9ImdpbXA6ZG9jaWQ6Z2ltcDplNDc0Y2E5ZS0xNzE3LTQ1N2QtODYwMi0wOGMxMjU0NjdkMjUiCiAgIHhtcE1NOkluc3RhbmNlSUQ9InhtcC5paWQ6ZmUzY2JiNTgtN2MxNS00ZjA4LWEyNmMtZGIwMjVhYjA3YzRlIgogICB4bXBNTTpPcmlnaW5hbERvY3VtZW50SUQ9InhtcC5kaWQ6M2NjY2ZmZGEtNGQ1NC00M2Q1LTkwYjctNDczNWFkMjFkNGZlIgogICBkYzpGb3JtYXQ9ImltYWdlL3BuZyIKICAgR0lNUDpBUEk9IjIuMCIKICAgR0lNUDpQbGF0Zm9ybT0iV2luZG93cyIKICAgR0lNUDpUaW1lU3RhbXA9IjE2OTgxNTUzNDcwNTgxNTgiCiAgIEdJTVA6VmVyc2lvbj0iMi4xMC4zNCIKICAgdGlmZjpPcmllbnRhdGlvbj0iMSIKICAgeG1wOkNyZWF0b3JUb29sPSJHSU1QIDIuMTAiCiAgIHhtcDpNZXRhZGF0YURhdGU9IjIwMjM6MTA6MjRUMTU6NDk6MDQrMDI6MDAiCiAgIHhtcDpNb2RpZnlEYXRlPSIyMDIzOjEwOjI0VDE1OjQ5OjA0KzAyOjAwIj4KICAgPHhtcE1NOkhpc3Rvcnk+CiAgICA8cmRmOlNlcT4KICAgICA8cmRmOmxpCiAgICAgIHN0RXZ0OmFjdGlvbj0ic2F2ZWQiCiAgICAgIHN0RXZ0OmNoYW5nZWQ9Ii8iCiAgICAgIHN0RXZ0Omluc3RhbmNlSUQ9InhtcC5paWQ6YWUyOThhOTAtOGFiYi00OGJmLThjNDYtZDNmZjZkN2YwNjdiIgogICAgICBzdEV2dDpzb2Z0d2FyZUFnZW50PSJHaW1wIDIuMTAgKFdpbmRvd3MpIgogICAgICBzdEV2dDp3aGVuPSIyMDIzLTEwLTI0VDE1OjQ5OjA3Ii8+CiAgICA8L3JkZjpTZXE+CiAgIDwveG1wTU06SGlzdG9yeT4KICA8L3JkZjpEZXNjcmlwdGlvbj4KIDwvcmRmOlJERj4KPC94OnhtcG1ldGE+CiAgICAgICAgICAgICAgICAgICAgICAgICAgICAgICAgICAgICAgICAgICAgICAgICAgICAgICAgICAgICAgICAgICAgICAgICAgICAgICAgICAgICAgICAgICAgICAgICAgICAKICAgICAgICAgICAgICAgICAgICAgICAgICAgICAgICAgICAgICAgICAgICAgICAgICAgICAgICAgICAgICAgICAgICAgICAgICAgICAgICAgICAgICAgICAgICAgICAgICAgIAogICAgICAgICAgICAgICAgICAgICAgICAgICAgICAgICAgICAgICAgICAgICAgICAgICAgICAgICAgICAgICAgICAgICAgICAgICAgICAgICAgICAgICAgICAgICAgICAgICAgCiAgICAgICAgICAgICAgICAgICAgICAgICAgICAgICAgICAgICAgICAgICAgICAgICAgICAgICAgICAgICAgICAgICAgICAgICAgICAgICAgICAgICAgICAgICAgICAgICAgICAKICAgICAgICAgICAgICAgICAgICAgICAgICAgICAgICAgICAgICAgICAgICAgICAgICAgICAgICAgICAgICAgICAgICAgICAgICAgICAgICAgICAgICAgICAgICAgICAgICAgIAogICAgICAgICAgICAgICAgICAgICAgICAgICAgICAgICAgICAgICAgICAgICAgICAgICAgICAgICAgICAgICAgICAgICAgICAgICAgICAgICAgICAgICAgICAgICAgICAgICAgCiAgICAgICAgICAgICAgICAgICAgICAgICAgICAgICAgICAgICAgICAgICAgICAgICAgICAgICAgICAgICAgICAgICAgICAgICAgICAgICAgICAgICAgICAgICAgICAgICAgICAKICAgICAgICAgICAgICAgICAgICAgICAgICAgICAgICAgICAgICAgICAgICAgICAgICAgICAgICAgICAgICAgICAgICAgICAgICAgICAgICAgICAgICAgICAgICAgICAgICAgIAogICAgICAgICAgICAgICAgICAgICAgICAgICAgICAgICAgICAgICAgICAgICAgICAgICAgICAgICAgICAgICAgICAgICAgICAgICAgICAgICAgICAgICAgICAgICAgICAgICAgCiAgICAgICAgICAgICAgICAgICAgICAgICAgICAgICAgICAgICAgICAgICAgICAgICAgICAgICAgICAgICAgICAgICAgICAgICAgICAgICAgICAgICAgICAgICAgICAgICAgICAKICAgICAgICAgICAgICAgICAgICAgICAgICAgICAgICAgICAgICAgICAgICAgICAgICAgICAgICAgICAgICAgICAgICAgICAgICAgICAgICAgICAgICAgICAgICAgICAgICAgIAogICAgICAgICAgICAgICAgICAgICAgICAgICAgICAgICAgICAgICAgICAgICAgICAgICAgICAgICAgICAgICAgICAgICAgICAgICAgICAgICAgICAgICAgICAgICAgICAgICAgCiAgICAgICAgICAgICAgICAgICAgICAgICAgICAgICAgICAgICAgICAgICAgICAgICAgICAgICAgICAgICAgICAgICAgICAgICAgICAgICAgICAgICAgICAgICAgICAgICAgICAKICAgICAgICAgICAgICAgICAgICAgICAgICAgICAgICAgICAgICAgICAgICAgICAgICAgICAgICAgICAgICAgICAgICAgICAgICAgICAgICAgICAgICAgICAgICAgICAgICAgIAogICAgICAgICAgICAgICAgICAgICAgICAgICAgICAgICAgICAgICAgICAgICAgICAgICAgICAgICAgICAgICAgICAgICAgICAgICAgICAgICAgICAgICAgICAgICAgICAgICAgCiAgICAgICAgICAgICAgICAgICAgICAgICAgICAgICAgICAgICAgICAgICAgICAgICAgICAgICAgICAgICAgICAgICAgICAgICAgICAgICAgICAgICAgICAgICAgICAgICAgICAKICAgICAgICAgICAgICAgICAgICAgICAgICAgICAgICAgICAgICAgICAgICAgICAgICAgICAgICAgICAgICAgICAgICAgICAgICAgICAgICAgICAgICAgICAgICAgICAgICAgIAogICAgICAgICAgICAgICAgICAgICAgICAgICAgICAgICAgICAgICAgICAgICAgICAgICAgICAgICAgICAgICAgICAgICAgICAgICAgICAgICAgICAgICAgICAgICAgICAgICAgCiAgICAgICAgICAgICAgICAgICAgICAgICAgICAgICAgICAgICAgICAgICAgICAgICAgICAgICAgICAgICAgICAgICAgICAgICAgICAgICAgICAgICAgICAgICAgICAgICAgICAKICAgICAgICAgICAgICAgICAgICAgICAgICAgICAgICAgICAgICAgICAgICAgICAgICAgICAgICAgICAgICAgICAgICAgICAgICAgICAgICAgICAgICAgICAgICAgICAgICAgIAogICAgICAgICAgICAgICAgICAgICAgICAgICAKPD94cGFja2V0IGVuZD0idyI/PqTog8kAAAAGYktHRABYAKUAkambAywAAAAJcEhZcwAACxMAAAsTAQCanBgAAAAHdElNRQfnChgNMQdIaecJAAAKxUlEQVR42u3a0VXjMBBAUVknLaWNVEI5qYQ2KAr+4Cd4iVZ2Zkb3VrAna8lvxrQGAAAAAAAAAAAAAAAAAAAAAAAAAAAAAAAAAAAAAAAAAAAAAAAAAAAAAAAAAAAAAAAAAAAAAAAAAAAAAAAAAAAAAAAAAAAAAAAAAAAAAAAAAAAAAAAAAAAAAAAAAAAAAAAAAAAAAAAAAAAAAAAAAAAAAAAAAAAAAAAAAAAAAAAAAAAAAAAAAAAAAAAAAAAAAEBQm5+AZ719vH/6FYDs7tebdyBiCYEEIJ4QS4gkANGEWEIoAQgmxBJCCUAwIZYQSgCCCbGEUAIQTIglhBKAYKK+7idAKAGAWAIAAyViCZcAAIglADBYIpZw+AFALAGAAROxhEMPAGIJAAyaiCUcdgAQSwCAgROxBAAgljARAYBYAgCDJ2IJhxsAxBIAGEARSwAAYgkTEACIJQDAICqWcJgBQCwBACCWAOAYtvdiCYcYAMQSAGAwRSw5vACAWAIAEEsAEIxtvljCoQUAsQQAGFQRSw4rACCWAADEEgAEY7svlnBIAUAsAQDQ2uYnqMVWCSCO+/XmPVuAzRIAgFgCgPPZ9oslHEoAEEsAACvzh2dF2CoBxOUPvXOzWQIAEEsA8Dq2/2IJhxAAxBIAwIr8wVlytkoAefhD75xslgAAxBIAwBjrwMR8ggPIx6e4fGyWAAB2qNukbJUA8rJdysVmCQBALAEAjLEGTMgnOID8fIrLw2YJAGCHqk3GVgmgDtulHGyWAADEEgDAGOu/RHyCA6jHp7j4bJYAAHZc/AQ52CqZxsBdBq9hswQAAhKxRDW2SuDsgljC1AHgnkcsAbAa2yXEEqYNFy0AYgkAMByLJQjHVgmcZRBLmDIAQCyBSRScaWfakCyWcGAAQCwBAIZlsQQvZl0PzjaIJUwVACCWwOQJOOOGZrGEAwIAYglMnICzbngWSwAAYglTBAAglkjHWh6ceUO0IVos4UAAgFgCEybg7COWAIAD+PIglnAQTJYAiCUAMDAZqsUSDgAAiCUwUQLuAsQSABCMLxFiyYOPSRIAsQQABihDtljCA+9SBEAsAYBBCrEEAATjy4RY8qCbHAHcEYglAACxxEO2SiZGAO8SsQQABivEErj8AF7HdkksebABMGAhlgAAxBKtNVslEyKAd4tYAgCDFmIJXHYAkdguiSUPMgAGLsQSLjkAEEuLslUCwLtGLAHAqWypEUu43ABALNVnLQpgAPPOEUvgUgNALKHwAfDuEUtwEFslwP2CWAIAEEv8lTUowHlsl7yDxBIuMQAQS4oeAIOZd5FYwuUFAGIJAKASk/9E1p4/bJUA97C7uAqbJQAAsWSaAViBTQpiCZcVAAZ5sQQAEIcNgHKfylYJcC+7m6uxWQIAEEumF5ML4D4CsQQAGOzFEgDAmawplfoUVt6Ae9pdXZXNEgCAWDKtmFQA9xOIJQDAoC+WMLUBgFhS5gAY6hBLAICBXyx5yExrAO4rxBIAYPAXS2BKA9xbiCWUOAAgljCdAVgAWACIJQ8VAIY9xBIAgFjCVAbgHpvPVxOx5GECAMQSpjEAxlkIiCUPEQCGP8QSLhYAEEsAYAg8hK8oYsnDAwCIJUxfAIyzIBBLHhoADIOIJVwkACCWAMBQeAhfVcSShwUAEEuYtgDcd4ilA9kqAeA9iFjClAUAYgkADIkjbJfEkofDhQEAYgkADIuIpYlslQDAe1EsYaoCALEEAIbGGWyXxJKHwQUBAGIJAAyPiCVcDAAcwtcXseQhAADEEgA8y8YdsdRslVwIAHhfiiUAMEwilnARAHCslbdL3X86AIBY4gFbJQB3JWLpIVslAPD+FEsAMInt0trEkoMPAH+24nap+08GAEMmYgkHHgDE0r/YKgGA96lYYpetEoA7FLEEACCWnuUTHAAz2C6t9161WXLAAYDVY8lWCQC8X8USu2yVANypiCUAgOnKl7FPcCYgAO8Y75n/YbMEALBqLCl+APC+FUvs8gkOwB2LWAIAOEzZIvYJzsQD4J3jvTODzRIAwGqxpPBtlQDcuYglACCUqssKsQQAsKPc2tAnOOtgAO8g76GZbJYAAFaJJUVvqwTgDkYsAQChVVteiCUTDQCwQiz5BAeAwdV7WSwBAIiltevVJAPgTkYsAQALqLLMEEsmGACgciz5BAeAQRaxhMMIQEoVlhrdfwAAGGgpGksAQHzZlxtiycQCAFSMJZ/gADDYIpZw+AAoIfOSo/vBAcCAS7FYcugcOgAQSwBg0C0l65eh7ocGACgUSyYTkwkAeWVcenQ/MAAYeCkSSw6ZQwYAYgkADL6lZftS1P2wDhcAUCCWAIA6Mi1Buh8UAM7la0EuNksOFQAglgDAIBxNli9H3Q/pMAEAiWMJAEAs8ZCtEoB7vroMX5C6HxAAIGksAUB1tktiCYcHAMQSAMCo6H920/1w8dgqAbj3iePiJxCKuOBwpwC/8xkOAEAsgYkdzygglgAAxBKY3MGzied1+VhywAEAsQQmIvBMglgCABBLgEkezyKIJQAAsQSY6PEMAmIJAEAsgckezx4glgAAxBKY8MEzB2IJAEAsgUkfPGsglgAAxBJg4sczBmIJAEAsASZ/PFuAWAIAEEtgA4BnChBLAABiCWwCwLMEYgkAQCwB32wE8AyBWAIAEEvAOJsBPDsglgAAxBIwzoYAzwyIJQAAsQSMsynAswJiCQBALAHjbAwAxBIAghrEEuBlCCCWABDSIJYAL0UAxBKAgAbEEng5AiCWAIQzIJbASxIAsQSAYAaxBHhZAoglAIQyiCXASxNALAEgkEEsAV6eAIglAGEMiCXwEgVALAEIYkAsAV6mAGIJQAgDYgnwUgUQSwAIYBBLgJcrgFgCQPgCYgm8ZAEQSwCCFxBL4GULgFgCELqAWAK8dAHEEoDABcQS4OULUMPFTwCCCYDf2SwBAIglAACxBAAglgAAxBIAgFgCABBLAABiCQBALAEAiCUAAMQSAIBYAgAQSwAAYgkAQCwBAIglAACxBAAglgAAxBIAgFgCAEAsAQCIJQAAsQQAIJYAAMQSAIBYAgAQSwAAYgkAQCwBACCWAADEEgCAWAIAEEsAAGIJAEAsAQCIJQAAsQQAIJYAAMQSAABiCQBALAEAiCUAALEEACCWAADEEgCAWAIAEEsAAGIJAACxBAAglgAAxBIAgFgCABBLAABiCQBALAEAiCUAALEEACCWAAAQSwAAYgkAQCwBAIglAACxBAAglgAAxBIAgFgCABBLAACIJQAAsQQAIJYAAMQSAIBYAgAQSwAAYgkAQCwBAIglAACxBACAWAIAEEsAAGIJAEAsAQCIJQAAsQQAIJYAAMQSAIBYAgBALAEAiCUAALEEACCWAADEEgCAWAIAEEsAAGIJAEAsAQCIJQAAxBIAgFgCABBLAABiCQBALAEAiCUAALEEACCWAADEEgCAWAIAQCwBAIglAACxBAAglgAAxBIAgFgCABBLAABiCQBALAEA8G2L+g97+3j/9N8DAGu4X29hm8RmCQBALAEAjNki/+N8igOA+iJ/gmvNZgkAYNcW/R9ouwQAdUXfKqWIJcEEAELplXyGAwDYsWX5h9ouAUAdWbZKqWJJMAGAUBJLogkARJJYEkwAIJTEkmgCAFJHUplYEk0AIJLEkngCAHEEAEA8X3QAuzuk3Kn/AAAAAElFTkSuQmCC;rounded=1;autosize=0;treeMoving=0;strokeWidth=2;fixDash=0;snapToPoint=0;comic=0;shadow=1;" parent="1" vertex="1">
          <mxGeometry x="430" y="210" width="57" height="48.55" as="geometry" />
        </mxCell>
        <mxCell id="5M5S_JfumDmxrn6SgT74-39" value="" style="shape=image;verticalLabelPosition=bottom;labelBackgroundColor=none;verticalAlign=top;aspect=fixed;imageAspect=0;image=data:image/png,iVBORw0KGgoAAAANSUhEUgAAAksAAAH0CAYAAAAtyWk/AAAAxXpUWHRSYXcgcHJvZmlsZSB0eXBlIGV4aWYAAHjabVBBDsMgDLvzij0hxIGG59CVSvvBnr/QgFS2WcJJ49Y1Ce39OsOjg6MESZvmkjMZpEjhao2So14cSS6+IDvxmC7zcMpo2SqswgXNXuOcjw9mjdW6dDPS5xD2VSjilfXLyPMQeqLeH8OoDCOwC3EYVL8W5aLb/Qp7oxXqJ3QSXWP/PG+2vSPZf8DcEEHGgHgA9IOA2gVjhtiLEcl6QTEmzCS2kH97mggfejhZfNRiE+8AAAGEaUNDUElDQyBwcm9maWxlAAB4nH2RPUjDUBSFT1OlUioOdijFIUN1souKOJYqFsFCaSu06mDy0j9o0pCkuDgKrgUHfxarDi7Oujq4CoLgD4iri5Oii5R4X1JoEeODy/s4753DffcBQrvOVHMgAaiaZWRTSbFQXBUDrwgighBVVGKmns4t5uG5vu7h4/tdnGd53/tzDSslkwE+kTjBdMMi3iCe3bR0zvvEYVaVFOJz4kmDGiR+5Lrs8hvnisMCzwwb+ew8cZhYrPSx3MesaqjEM8QxRdUoXyi4rHDe4qzWm6zbJ39hqKSt5LhONYYUlpBGBiJkNFFDHRbitGukmMjSedLDH3X8GXLJ5KqBkWMBDaiQHD/4H/yerVmennKTQklg8MW2P8aBwC7Qadn297Ftd04A/zNwpfX8jTYw90l6q6fFjoCRbeDiuqfJe8DlDhB50iVDciQ/lVAuA+9n9E1FYPQWCK65c+ue4/QByNOslm+Ag0NgokLZ6x7vHuqf2793uvP7AatVcr2KywxtAAANdmlUWHRYTUw6Y29tLmFkb2JlLnhtcAAAAAAAPD94cGFja2V0IGJlZ2luPSLvu78iIGlkPSJXNU0wTXBDZWhpSHpyZVN6TlRjemtjOWQiPz4KPHg6eG1wbWV0YSB4bWxuczp4PSJhZG9iZTpuczptZXRhLyIgeDp4bXB0az0iWE1QIENvcmUgNC40LjAtRXhpdjIiPgogPHJkZjpSREYgeG1sbnM6cmRmPSJodHRwOi8vd3d3LnczLm9yZy8xOTk5LzAyLzIyLXJkZi1zeW50YXgtbnMjIj4KICA8cmRmOkRlc2NyaXB0aW9uIHJkZjphYm91dD0iIgogICAgeG1sbnM6eG1wTU09Imh0dHA6Ly9ucy5hZG9iZS5jb20veGFwLzEuMC9tbS8iCiAgICB4bWxuczpzdEV2dD0iaHR0cDovL25zLmFkb2JlLmNvbS94YXAvMS4wL3NUeXBlL1Jlc291cmNlRXZlbnQjIgogICAgeG1sbnM6ZGM9Imh0dHA6Ly9wdXJsLm9yZy9kYy9lbGVtZW50cy8xLjEvIgogICAgeG1sbnM6R0lNUD0iaHR0cDovL3d3dy5naW1wLm9yZy94bXAvIgogICAgeG1sbnM6dGlmZj0iaHR0cDovL25zLmFkb2JlLmNvbS90aWZmLzEuMC8iCiAgICB4bWxuczp4bXA9Imh0dHA6Ly9ucy5hZG9iZS5jb20veGFwLzEuMC8iCiAgIHhtcE1NOkRvY3VtZW50SUQ9ImdpbXA6ZG9jaWQ6Z2ltcDplNDc0Y2E5ZS0xNzE3LTQ1N2QtODYwMi0wOGMxMjU0NjdkMjUiCiAgIHhtcE1NOkluc3RhbmNlSUQ9InhtcC5paWQ6ZmUzY2JiNTgtN2MxNS00ZjA4LWEyNmMtZGIwMjVhYjA3YzRlIgogICB4bXBNTTpPcmlnaW5hbERvY3VtZW50SUQ9InhtcC5kaWQ6M2NjY2ZmZGEtNGQ1NC00M2Q1LTkwYjctNDczNWFkMjFkNGZlIgogICBkYzpGb3JtYXQ9ImltYWdlL3BuZyIKICAgR0lNUDpBUEk9IjIuMCIKICAgR0lNUDpQbGF0Zm9ybT0iV2luZG93cyIKICAgR0lNUDpUaW1lU3RhbXA9IjE2OTgxNTUzNDcwNTgxNTgiCiAgIEdJTVA6VmVyc2lvbj0iMi4xMC4zNCIKICAgdGlmZjpPcmllbnRhdGlvbj0iMSIKICAgeG1wOkNyZWF0b3JUb29sPSJHSU1QIDIuMTAiCiAgIHhtcDpNZXRhZGF0YURhdGU9IjIwMjM6MTA6MjRUMTU6NDk6MDQrMDI6MDAiCiAgIHhtcDpNb2RpZnlEYXRlPSIyMDIzOjEwOjI0VDE1OjQ5OjA0KzAyOjAwIj4KICAgPHhtcE1NOkhpc3Rvcnk+CiAgICA8cmRmOlNlcT4KICAgICA8cmRmOmxpCiAgICAgIHN0RXZ0OmFjdGlvbj0ic2F2ZWQiCiAgICAgIHN0RXZ0OmNoYW5nZWQ9Ii8iCiAgICAgIHN0RXZ0Omluc3RhbmNlSUQ9InhtcC5paWQ6YWUyOThhOTAtOGFiYi00OGJmLThjNDYtZDNmZjZkN2YwNjdiIgogICAgICBzdEV2dDpzb2Z0d2FyZUFnZW50PSJHaW1wIDIuMTAgKFdpbmRvd3MpIgogICAgICBzdEV2dDp3aGVuPSIyMDIzLTEwLTI0VDE1OjQ5OjA3Ii8+CiAgICA8L3JkZjpTZXE+CiAgIDwveG1wTU06SGlzdG9yeT4KICA8L3JkZjpEZXNjcmlwdGlvbj4KIDwvcmRmOlJERj4KPC94OnhtcG1ldGE+CiAgICAgICAgICAgICAgICAgICAgICAgICAgICAgICAgICAgICAgICAgICAgICAgICAgICAgICAgICAgICAgICAgICAgICAgICAgICAgICAgICAgICAgICAgICAgICAgICAgICAKICAgICAgICAgICAgICAgICAgICAgICAgICAgICAgICAgICAgICAgICAgICAgICAgICAgICAgICAgICAgICAgICAgICAgICAgICAgICAgICAgICAgICAgICAgICAgICAgICAgIAogICAgICAgICAgICAgICAgICAgICAgICAgICAgICAgICAgICAgICAgICAgICAgICAgICAgICAgICAgICAgICAgICAgICAgICAgICAgICAgICAgICAgICAgICAgICAgICAgICAgCiAgICAgICAgICAgICAgICAgICAgICAgICAgICAgICAgICAgICAgICAgICAgICAgICAgICAgICAgICAgICAgICAgICAgICAgICAgICAgICAgICAgICAgICAgICAgICAgICAgICAKICAgICAgICAgICAgICAgICAgICAgICAgICAgICAgICAgICAgICAgICAgICAgICAgICAgICAgICAgICAgICAgICAgICAgICAgICAgICAgICAgICAgICAgICAgICAgICAgICAgIAogICAgICAgICAgICAgICAgICAgICAgICAgICAgICAgICAgICAgICAgICAgICAgICAgICAgICAgICAgICAgICAgICAgICAgICAgICAgICAgICAgICAgICAgICAgICAgICAgICAgCiAgICAgICAgICAgICAgICAgICAgICAgICAgICAgICAgICAgICAgICAgICAgICAgICAgICAgICAgICAgICAgICAgICAgICAgICAgICAgICAgICAgICAgICAgICAgICAgICAgICAKICAgICAgICAgICAgICAgICAgICAgICAgICAgICAgICAgICAgICAgICAgICAgICAgICAgICAgICAgICAgICAgICAgICAgICAgICAgICAgICAgICAgICAgICAgICAgICAgICAgIAogICAgICAgICAgICAgICAgICAgICAgICAgICAgICAgICAgICAgICAgICAgICAgICAgICAgICAgICAgICAgICAgICAgICAgICAgICAgICAgICAgICAgICAgICAgICAgICAgICAgCiAgICAgICAgICAgICAgICAgICAgICAgICAgICAgICAgICAgICAgICAgICAgICAgICAgICAgICAgICAgICAgICAgICAgICAgICAgICAgICAgICAgICAgICAgICAgICAgICAgICAKICAgICAgICAgICAgICAgICAgICAgICAgICAgICAgICAgICAgICAgICAgICAgICAgICAgICAgICAgICAgICAgICAgICAgICAgICAgICAgICAgICAgICAgICAgICAgICAgICAgIAogICAgICAgICAgICAgICAgICAgICAgICAgICAgICAgICAgICAgICAgICAgICAgICAgICAgICAgICAgICAgICAgICAgICAgICAgICAgICAgICAgICAgICAgICAgICAgICAgICAgCiAgICAgICAgICAgICAgICAgICAgICAgICAgICAgICAgICAgICAgICAgICAgICAgICAgICAgICAgICAgICAgICAgICAgICAgICAgICAgICAgICAgICAgICAgICAgICAgICAgICAKICAgICAgICAgICAgICAgICAgICAgICAgICAgICAgICAgICAgICAgICAgICAgICAgICAgICAgICAgICAgICAgICAgICAgICAgICAgICAgICAgICAgICAgICAgICAgICAgICAgIAogICAgICAgICAgICAgICAgICAgICAgICAgICAgICAgICAgICAgICAgICAgICAgICAgICAgICAgICAgICAgICAgICAgICAgICAgICAgICAgICAgICAgICAgICAgICAgICAgICAgCiAgICAgICAgICAgICAgICAgICAgICAgICAgICAgICAgICAgICAgICAgICAgICAgICAgICAgICAgICAgICAgICAgICAgICAgICAgICAgICAgICAgICAgICAgICAgICAgICAgICAKICAgICAgICAgICAgICAgICAgICAgICAgICAgICAgICAgICAgICAgICAgICAgICAgICAgICAgICAgICAgICAgICAgICAgICAgICAgICAgICAgICAgICAgICAgICAgICAgICAgIAogICAgICAgICAgICAgICAgICAgICAgICAgICAgICAgICAgICAgICAgICAgICAgICAgICAgICAgICAgICAgICAgICAgICAgICAgICAgICAgICAgICAgICAgICAgICAgICAgICAgCiAgICAgICAgICAgICAgICAgICAgICAgICAgICAgICAgICAgICAgICAgICAgICAgICAgICAgICAgICAgICAgICAgICAgICAgICAgICAgICAgICAgICAgICAgICAgICAgICAgICAKICAgICAgICAgICAgICAgICAgICAgICAgICAgICAgICAgICAgICAgICAgICAgICAgICAgICAgICAgICAgICAgICAgICAgICAgICAgICAgICAgICAgICAgICAgICAgICAgICAgIAogICAgICAgICAgICAgICAgICAgICAgICAgICAKPD94cGFja2V0IGVuZD0idyI/PqTog8kAAAAGYktHRABYAKUAkambAywAAAAJcEhZcwAACxMAAAsTAQCanBgAAAAHdElNRQfnChgNMQdIaecJAAAKxUlEQVR42u3a0VXjMBBAUVknLaWNVEI5qYQ2KAr+4Cd4iVZ2Zkb3VrAna8lvxrQGAAAAAAAAAAAAAAAAAAAAAAAAAAAAAAAAAAAAAAAAAAAAAAAAAAAAAAAAAAAAAAAAAAAAAAAAAAAAAAAAAAAAAAAAAAAAAAAAAAAAAAAAAAAAAAAAAAAAAAAAAAAAAAAAAAAAAAAAAAAAAAAAAAAAAAAAAAAAAAAAAAAAAAAAAAAAAAAAAAAAAAAAAAAAAEBQm5+AZ719vH/6FYDs7tebdyBiCYEEIJ4QS4gkANGEWEIoAQgmxBJCCUAwIZYQSgCCCbGEUAIQTIglhBKAYKK+7idAKAGAWAIAAyViCZcAAIglADBYIpZw+AFALAGAAROxhEMPAGIJAAyaiCUcdgAQSwCAgROxBAAgljARAYBYAgCDJ2IJhxsAxBIAGEARSwAAYgkTEACIJQDAICqWcJgBQCwBACCWAOAYtvdiCYcYAMQSAGAwRSw5vACAWAIAEEsAEIxtvljCoQUAsQQAGFQRSw4rACCWAADEEgAEY7svlnBIAUAsAQDQ2uYnqMVWCSCO+/XmPVuAzRIAgFgCgPPZ9oslHEoAEEsAACvzh2dF2CoBxOUPvXOzWQIAEEsA8Dq2/2IJhxAAxBIAwIr8wVlytkoAefhD75xslgAAxBIAwBjrwMR8ggPIx6e4fGyWAAB2qNukbJUA8rJdysVmCQBALAEAjLEGTMgnOID8fIrLw2YJAGCHqk3GVgmgDtulHGyWAADEEgDAGOu/RHyCA6jHp7j4bJYAAHZc/AQ52CqZxsBdBq9hswQAAhKxRDW2SuDsgljC1AHgnkcsAbAa2yXEEqYNFy0AYgkAMByLJQjHVgmcZRBLmDIAQCyBSRScaWfakCyWcGAAQCwBAIZlsQQvZl0PzjaIJUwVACCWwOQJOOOGZrGEAwIAYglMnICzbngWSwAAYglTBAAglkjHWh6ceUO0IVos4UAAgFgCEybg7COWAIAD+PIglnAQTJYAiCUAMDAZqsUSDgAAiCUwUQLuAsQSABCMLxFiyYOPSRIAsQQABihDtljCA+9SBEAsAYBBCrEEAATjy4RY8qCbHAHcEYglAACxxEO2SiZGAO8SsQQABivEErj8AF7HdkksebABMGAhlgAAxBKtNVslEyKAd4tYAgCDFmIJXHYAkdguiSUPMgAGLsQSLjkAEEuLslUCwLtGLAHAqWypEUu43ABALNVnLQpgAPPOEUvgUgNALKHwAfDuEUtwEFslwP2CWAIAEEv8lTUowHlsl7yDxBIuMQAQS4oeAIOZd5FYwuUFAGIJAKASk/9E1p4/bJUA97C7uAqbJQAAsWSaAViBTQpiCZcVAAZ5sQQAEIcNgHKfylYJcC+7m6uxWQIAEEumF5ML4D4CsQQAGOzFEgDAmawplfoUVt6Ae9pdXZXNEgCAWDKtmFQA9xOIJQDAoC+WMLUBgFhS5gAY6hBLAICBXyx5yExrAO4rxBIAYPAXS2BKA9xbiCWUOAAgljCdAVgAWACIJQ8VAIY9xBIAgFjCVAbgHpvPVxOx5GECAMQSpjEAxlkIiCUPEQCGP8QSLhYAEEsAYAg8hK8oYsnDAwCIJUxfAIyzIBBLHhoADIOIJVwkACCWAMBQeAhfVcSShwUAEEuYtgDcd4ilA9kqAeA9iFjClAUAYgkADIkjbJfEkofDhQEAYgkADIuIpYlslQDAe1EsYaoCALEEAIbGGWyXxJKHwQUBAGIJAAyPiCVcDAAcwtcXseQhAADEEgA8y8YdsdRslVwIAHhfiiUAMEwilnARAHCslbdL3X86AIBY4gFbJQB3JWLpIVslAPD+FEsAMInt0trEkoMPAH+24nap+08GAEMmYgkHHgDE0r/YKgGA96lYYpetEoA7FLEEACCWnuUTHAAz2C6t9161WXLAAYDVY8lWCQC8X8USu2yVANypiCUAgOnKl7FPcCYgAO8Y75n/YbMEALBqLCl+APC+FUvs8gkOwB2LWAIAOEzZIvYJzsQD4J3jvTODzRIAwGqxpPBtlQDcuYglACCUqssKsQQAsKPc2tAnOOtgAO8g76GZbJYAAFaJJUVvqwTgDkYsAQChVVteiCUTDQCwQiz5BAeAwdV7WSwBAIiltevVJAPgTkYsAQALqLLMEEsmGACgciz5BAeAQRaxhMMIQEoVlhrdfwAAGGgpGksAQHzZlxtiycQCAFSMJZ/gADDYIpZw+AAoIfOSo/vBAcCAS7FYcugcOgAQSwBg0C0l65eh7ocGACgUSyYTkwkAeWVcenQ/MAAYeCkSSw6ZQwYAYgkADL6lZftS1P2wDhcAUCCWAIA6Mi1Buh8UAM7la0EuNksOFQAglgDAIBxNli9H3Q/pMAEAiWMJAEAs8ZCtEoB7vroMX5C6HxAAIGksAUB1tktiCYcHAMQSAMCo6H920/1w8dgqAbj3iePiJxCKuOBwpwC/8xkOAEAsgYkdzygglgAAxBKY3MGzied1+VhywAEAsQQmIvBMglgCABBLgEkezyKIJQAAsQSY6PEMAmIJAEAsgckezx4glgAAxBKY8MEzB2IJAEAsgUkfPGsglgAAxBJg4sczBmIJAEAsASZ/PFuAWAIAEEtgA4BnChBLAABiCWwCwLMEYgkAQCwB32wE8AyBWAIAEEvAOJsBPDsglgAAxBIwzoYAzwyIJQAAsQSMsynAswJiCQBALAHjbAwAxBIAghrEEuBlCCCWABDSIJYAL0UAxBKAgAbEEng5AiCWAIQzIJbASxIAsQSAYAaxBHhZAoglAIQyiCXASxNALAEgkEEsAV6eAIglAGEMiCXwEgVALAEIYkAsAV6mAGIJQAgDYgnwUgUQSwAIYBBLgJcrgFgCQPgCYgm8ZAEQSwCCFxBL4GULgFgCELqAWAK8dAHEEoDABcQS4OULUMPFTwCCCYDf2SwBAIglAACxBAAglgAAxBIAgFgCABBLAABiCQBALAEAiCUAAMQSAIBYAgAQSwAAYgkAQCwBAIglAACxBAAglgAAxBIAgFgCAEAsAQCIJQAAsQQAIJYAAMQSAIBYAgAQSwAAYgkAQCwBACCWAADEEgCAWAIAEEsAAGIJAEAsAQCIJQAAsQQAIJYAAMQSAABiCQBALAEAiCUAALEEACCWAADEEgCAWAIAEEsAAGIJAACxBAAglgAAxBIAgFgCABBLAABiCQBALAEAiCUAALEEACCWAAAQSwAAYgkAQCwBAIglAACxBAAglgAAxBIAgFgCABBLAACIJQAAsQQAIJYAAMQSAIBYAgAQSwAAYgkAQCwBAIglAACxBACAWAIAEEsAAGIJAEAsAQCIJQAAsQQAIJYAAMQSAIBYAgBALAEAiCUAALEEACCWAADEEgCAWAIAEEsAAGIJAEAsAQCIJQAAxBIAgFgCABBLAABiCQBALAEAiCUAALEEACCWAADEEgCAWAIAQCwBAIglAACxBAAglgAAxBIAgFgCABBLAABiCQBALAEA8G2L+g97+3j/9N8DAGu4X29hm8RmCQBALAEAjNki/+N8igOA+iJ/gmvNZgkAYNcW/R9ouwQAdUXfKqWIJcEEAELplXyGAwDYsWX5h9ouAUAdWbZKqWJJMAGAUBJLogkARJJYEkwAIJTEkmgCAFJHUplYEk0AIJLEkngCAHEEAEA8X3QAuzuk3Kn/AAAAAElFTkSuQmCC;rounded=1;strokeWidth=2;fixDash=0;snapToPoint=0;comic=0;shadow=1;" parent="1" vertex="1">
          <mxGeometry x="520" y="290" width="57" height="48.55" as="geometry" />
        </mxCell>
        <mxCell id="5M5S_JfumDmxrn6SgT74-40" value="" style="endArrow=classic;html=1;rounded=1;labelBackgroundColor=none;fontColor=default;dashed=1;flowAnimation=0;flowAnimationTimingFunction=linear;flowAnimationDuration=1500;metaEdit=0;noJump=0;startArrow=none;startFill=0;strokeWidth=2;fixDash=0;snapToPoint=0;comic=0;shadow=1;dashPattern=1 1;" parent="1" edge="1">
          <mxGeometry width="50" height="50" relative="1" as="geometry">
            <mxPoint x="477.99937500000004" y="258.54999999999995" as="sourcePoint" />
            <mxPoint x="528" y="300" as="targetPoint" />
          </mxGeometry>
        </mxCell>
        <mxCell id="5M5S_JfumDmxrn6SgT74-41" value="" style="endArrow=classic;html=1;rounded=1;labelBackgroundColor=none;fontColor=default;dashed=1;flowAnimation=1;flowAnimationTimingFunction=ease-in;flowAnimationDuration=1000;metaEdit=0;noJump=0;startArrow=none;startFill=0;strokeWidth=2;fixDash=0;snapToPoint=0;comic=0;shadow=1;fillColor=#e51400;strokeColor=#B20000;dashPattern=1 1;" parent="1" edge="1">
          <mxGeometry width="50" height="50" relative="1" as="geometry">
            <mxPoint x="440.0000000000003" y="258.54999999999995" as="sourcePoint" />
            <mxPoint x="389.9993750000003" y="300" as="targetPoint" />
          </mxGeometry>
        </mxCell>
        <mxCell id="5M5S_JfumDmxrn6SgT74-42" value="" style="shape=image;verticalLabelPosition=bottom;labelBackgroundColor=none;verticalAlign=top;aspect=fixed;imageAspect=0;image=data:image/png,iVBORw0KGgoAAAANSUhEUgAAAksAAAH0CAYAAAAtyWk/AAAAxXpUWHRSYXcgcHJvZmlsZSB0eXBlIGV4aWYAAHjabVBBDsMgDLvzij0hxIGG59CVSvvBnr/QgFS2WcJJ49Y1Ce39OsOjg6MESZvmkjMZpEjhao2So14cSS6+IDvxmC7zcMpo2SqswgXNXuOcjw9mjdW6dDPS5xD2VSjilfXLyPMQeqLeH8OoDCOwC3EYVL8W5aLb/Qp7oxXqJ3QSXWP/PG+2vSPZf8DcEEHGgHgA9IOA2gVjhtiLEcl6QTEmzCS2kH97mggfejhZfNRiE+8AAAGEaUNDUElDQyBwcm9maWxlAAB4nH2RPUjDUBSFT1OlUioOdijFIUN1souKOJYqFsFCaSu06mDy0j9o0pCkuDgKrgUHfxarDi7Oujq4CoLgD4iri5Oii5R4X1JoEeODy/s4753DffcBQrvOVHMgAaiaZWRTSbFQXBUDrwgighBVVGKmns4t5uG5vu7h4/tdnGd53/tzDSslkwE+kTjBdMMi3iCe3bR0zvvEYVaVFOJz4kmDGiR+5Lrs8hvnisMCzwwb+ew8cZhYrPSx3MesaqjEM8QxRdUoXyi4rHDe4qzWm6zbJ39hqKSt5LhONYYUlpBGBiJkNFFDHRbitGukmMjSedLDH3X8GXLJ5KqBkWMBDaiQHD/4H/yerVmennKTQklg8MW2P8aBwC7Qadn297Ftd04A/zNwpfX8jTYw90l6q6fFjoCRbeDiuqfJe8DlDhB50iVDciQ/lVAuA+9n9E1FYPQWCK65c+ue4/QByNOslm+Ag0NgokLZ6x7vHuqf2793uvP7AatVcr2KywxtAAANdmlUWHRYTUw6Y29tLmFkb2JlLnhtcAAAAAAAPD94cGFja2V0IGJlZ2luPSLvu78iIGlkPSJXNU0wTXBDZWhpSHpyZVN6TlRjemtjOWQiPz4KPHg6eG1wbWV0YSB4bWxuczp4PSJhZG9iZTpuczptZXRhLyIgeDp4bXB0az0iWE1QIENvcmUgNC40LjAtRXhpdjIiPgogPHJkZjpSREYgeG1sbnM6cmRmPSJodHRwOi8vd3d3LnczLm9yZy8xOTk5LzAyLzIyLXJkZi1zeW50YXgtbnMjIj4KICA8cmRmOkRlc2NyaXB0aW9uIHJkZjphYm91dD0iIgogICAgeG1sbnM6eG1wTU09Imh0dHA6Ly9ucy5hZG9iZS5jb20veGFwLzEuMC9tbS8iCiAgICB4bWxuczpzdEV2dD0iaHR0cDovL25zLmFkb2JlLmNvbS94YXAvMS4wL3NUeXBlL1Jlc291cmNlRXZlbnQjIgogICAgeG1sbnM6ZGM9Imh0dHA6Ly9wdXJsLm9yZy9kYy9lbGVtZW50cy8xLjEvIgogICAgeG1sbnM6R0lNUD0iaHR0cDovL3d3dy5naW1wLm9yZy94bXAvIgogICAgeG1sbnM6dGlmZj0iaHR0cDovL25zLmFkb2JlLmNvbS90aWZmLzEuMC8iCiAgICB4bWxuczp4bXA9Imh0dHA6Ly9ucy5hZG9iZS5jb20veGFwLzEuMC8iCiAgIHhtcE1NOkRvY3VtZW50SUQ9ImdpbXA6ZG9jaWQ6Z2ltcDplNDc0Y2E5ZS0xNzE3LTQ1N2QtODYwMi0wOGMxMjU0NjdkMjUiCiAgIHhtcE1NOkluc3RhbmNlSUQ9InhtcC5paWQ6ZmUzY2JiNTgtN2MxNS00ZjA4LWEyNmMtZGIwMjVhYjA3YzRlIgogICB4bXBNTTpPcmlnaW5hbERvY3VtZW50SUQ9InhtcC5kaWQ6M2NjY2ZmZGEtNGQ1NC00M2Q1LTkwYjctNDczNWFkMjFkNGZlIgogICBkYzpGb3JtYXQ9ImltYWdlL3BuZyIKICAgR0lNUDpBUEk9IjIuMCIKICAgR0lNUDpQbGF0Zm9ybT0iV2luZG93cyIKICAgR0lNUDpUaW1lU3RhbXA9IjE2OTgxNTUzNDcwNTgxNTgiCiAgIEdJTVA6VmVyc2lvbj0iMi4xMC4zNCIKICAgdGlmZjpPcmllbnRhdGlvbj0iMSIKICAgeG1wOkNyZWF0b3JUb29sPSJHSU1QIDIuMTAiCiAgIHhtcDpNZXRhZGF0YURhdGU9IjIwMjM6MTA6MjRUMTU6NDk6MDQrMDI6MDAiCiAgIHhtcDpNb2RpZnlEYXRlPSIyMDIzOjEwOjI0VDE1OjQ5OjA0KzAyOjAwIj4KICAgPHhtcE1NOkhpc3Rvcnk+CiAgICA8cmRmOlNlcT4KICAgICA8cmRmOmxpCiAgICAgIHN0RXZ0OmFjdGlvbj0ic2F2ZWQiCiAgICAgIHN0RXZ0OmNoYW5nZWQ9Ii8iCiAgICAgIHN0RXZ0Omluc3RhbmNlSUQ9InhtcC5paWQ6YWUyOThhOTAtOGFiYi00OGJmLThjNDYtZDNmZjZkN2YwNjdiIgogICAgICBzdEV2dDpzb2Z0d2FyZUFnZW50PSJHaW1wIDIuMTAgKFdpbmRvd3MpIgogICAgICBzdEV2dDp3aGVuPSIyMDIzLTEwLTI0VDE1OjQ5OjA3Ii8+CiAgICA8L3JkZjpTZXE+CiAgIDwveG1wTU06SGlzdG9yeT4KICA8L3JkZjpEZXNjcmlwdGlvbj4KIDwvcmRmOlJERj4KPC94OnhtcG1ldGE+CiAgICAgICAgICAgICAgICAgICAgICAgICAgICAgICAgICAgICAgICAgICAgICAgICAgICAgICAgICAgICAgICAgICAgICAgICAgICAgICAgICAgICAgICAgICAgICAgICAgICAKICAgICAgICAgICAgICAgICAgICAgICAgICAgICAgICAgICAgICAgICAgICAgICAgICAgICAgICAgICAgICAgICAgICAgICAgICAgICAgICAgICAgICAgICAgICAgICAgICAgIAogICAgICAgICAgICAgICAgICAgICAgICAgICAgICAgICAgICAgICAgICAgICAgICAgICAgICAgICAgICAgICAgICAgICAgICAgICAgICAgICAgICAgICAgICAgICAgICAgICAgCiAgICAgICAgICAgICAgICAgICAgICAgICAgICAgICAgICAgICAgICAgICAgICAgICAgICAgICAgICAgICAgICAgICAgICAgICAgICAgICAgICAgICAgICAgICAgICAgICAgICAKICAgICAgICAgICAgICAgICAgICAgICAgICAgICAgICAgICAgICAgICAgICAgICAgICAgICAgICAgICAgICAgICAgICAgICAgICAgICAgICAgICAgICAgICAgICAgICAgICAgIAogICAgICAgICAgICAgICAgICAgICAgICAgICAgICAgICAgICAgICAgICAgICAgICAgICAgICAgICAgICAgICAgICAgICAgICAgICAgICAgICAgICAgICAgICAgICAgICAgICAgCiAgICAgICAgICAgICAgICAgICAgICAgICAgICAgICAgICAgICAgICAgICAgICAgICAgICAgICAgICAgICAgICAgICAgICAgICAgICAgICAgICAgICAgICAgICAgICAgICAgICAKICAgICAgICAgICAgICAgICAgICAgICAgICAgICAgICAgICAgICAgICAgICAgICAgICAgICAgICAgICAgICAgICAgICAgICAgICAgICAgICAgICAgICAgICAgICAgICAgICAgIAogICAgICAgICAgICAgICAgICAgICAgICAgICAgICAgICAgICAgICAgICAgICAgICAgICAgICAgICAgICAgICAgICAgICAgICAgICAgICAgICAgICAgICAgICAgICAgICAgICAgCiAgICAgICAgICAgICAgICAgICAgICAgICAgICAgICAgICAgICAgICAgICAgICAgICAgICAgICAgICAgICAgICAgICAgICAgICAgICAgICAgICAgICAgICAgICAgICAgICAgICAKICAgICAgICAgICAgICAgICAgICAgICAgICAgICAgICAgICAgICAgICAgICAgICAgICAgICAgICAgICAgICAgICAgICAgICAgICAgICAgICAgICAgICAgICAgICAgICAgICAgIAogICAgICAgICAgICAgICAgICAgICAgICAgICAgICAgICAgICAgICAgICAgICAgICAgICAgICAgICAgICAgICAgICAgICAgICAgICAgICAgICAgICAgICAgICAgICAgICAgICAgCiAgICAgICAgICAgICAgICAgICAgICAgICAgICAgICAgICAgICAgICAgICAgICAgICAgICAgICAgICAgICAgICAgICAgICAgICAgICAgICAgICAgICAgICAgICAgICAgICAgICAKICAgICAgICAgICAgICAgICAgICAgICAgICAgICAgICAgICAgICAgICAgICAgICAgICAgICAgICAgICAgICAgICAgICAgICAgICAgICAgICAgICAgICAgICAgICAgICAgICAgIAogICAgICAgICAgICAgICAgICAgICAgICAgICAgICAgICAgICAgICAgICAgICAgICAgICAgICAgICAgICAgICAgICAgICAgICAgICAgICAgICAgICAgICAgICAgICAgICAgICAgCiAgICAgICAgICAgICAgICAgICAgICAgICAgICAgICAgICAgICAgICAgICAgICAgICAgICAgICAgICAgICAgICAgICAgICAgICAgICAgICAgICAgICAgICAgICAgICAgICAgICAKICAgICAgICAgICAgICAgICAgICAgICAgICAgICAgICAgICAgICAgICAgICAgICAgICAgICAgICAgICAgICAgICAgICAgICAgICAgICAgICAgICAgICAgICAgICAgICAgICAgIAogICAgICAgICAgICAgICAgICAgICAgICAgICAgICAgICAgICAgICAgICAgICAgICAgICAgICAgICAgICAgICAgICAgICAgICAgICAgICAgICAgICAgICAgICAgICAgICAgICAgCiAgICAgICAgICAgICAgICAgICAgICAgICAgICAgICAgICAgICAgICAgICAgICAgICAgICAgICAgICAgICAgICAgICAgICAgICAgICAgICAgICAgICAgICAgICAgICAgICAgICAKICAgICAgICAgICAgICAgICAgICAgICAgICAgICAgICAgICAgICAgICAgICAgICAgICAgICAgICAgICAgICAgICAgICAgICAgICAgICAgICAgICAgICAgICAgICAgICAgICAgIAogICAgICAgICAgICAgICAgICAgICAgICAgICAKPD94cGFja2V0IGVuZD0idyI/PqTog8kAAAAGYktHRABYAKUAkambAywAAAAJcEhZcwAACxMAAAsTAQCanBgAAAAHdElNRQfnChgNMQdIaecJAAAKxUlEQVR42u3a0VXjMBBAUVknLaWNVEI5qYQ2KAr+4Cd4iVZ2Zkb3VrAna8lvxrQGAAAAAAAAAAAAAAAAAAAAAAAAAAAAAAAAAAAAAAAAAAAAAAAAAAAAAAAAAAAAAAAAAAAAAAAAAAAAAAAAAAAAAAAAAAAAAAAAAAAAAAAAAAAAAAAAAAAAAAAAAAAAAAAAAAAAAAAAAAAAAAAAAAAAAAAAAAAAAAAAAAAAAAAAAAAAAAAAAAAAAAAAAAAAAEBQm5+AZ719vH/6FYDs7tebdyBiCYEEIJ4QS4gkANGEWEIoAQgmxBJCCUAwIZYQSgCCCbGEUAIQTIglhBKAYKK+7idAKAGAWAIAAyViCZcAAIglADBYIpZw+AFALAGAAROxhEMPAGIJAAyaiCUcdgAQSwCAgROxBAAgljARAYBYAgCDJ2IJhxsAxBIAGEARSwAAYgkTEACIJQDAICqWcJgBQCwBACCWAOAYtvdiCYcYAMQSAGAwRSw5vACAWAIAEEsAEIxtvljCoQUAsQQAGFQRSw4rACCWAADEEgAEY7svlnBIAUAsAQDQ2uYnqMVWCSCO+/XmPVuAzRIAgFgCgPPZ9oslHEoAEEsAACvzh2dF2CoBxOUPvXOzWQIAEEsA8Dq2/2IJhxAAxBIAwIr8wVlytkoAefhD75xslgAAxBIAwBjrwMR8ggPIx6e4fGyWAAB2qNukbJUA8rJdysVmCQBALAEAjLEGTMgnOID8fIrLw2YJAGCHqk3GVgmgDtulHGyWAADEEgDAGOu/RHyCA6jHp7j4bJYAAHZc/AQ52CqZxsBdBq9hswQAAhKxRDW2SuDsgljC1AHgnkcsAbAa2yXEEqYNFy0AYgkAMByLJQjHVgmcZRBLmDIAQCyBSRScaWfakCyWcGAAQCwBAIZlsQQvZl0PzjaIJUwVACCWwOQJOOOGZrGEAwIAYglMnICzbngWSwAAYglTBAAglkjHWh6ceUO0IVos4UAAgFgCEybg7COWAIAD+PIglnAQTJYAiCUAMDAZqsUSDgAAiCUwUQLuAsQSABCMLxFiyYOPSRIAsQQABihDtljCA+9SBEAsAYBBCrEEAATjy4RY8qCbHAHcEYglAACxxEO2SiZGAO8SsQQABivEErj8AF7HdkksebABMGAhlgAAxBKtNVslEyKAd4tYAgCDFmIJXHYAkdguiSUPMgAGLsQSLjkAEEuLslUCwLtGLAHAqWypEUu43ABALNVnLQpgAPPOEUvgUgNALKHwAfDuEUtwEFslwP2CWAIAEEv8lTUowHlsl7yDxBIuMQAQS4oeAIOZd5FYwuUFAGIJAKASk/9E1p4/bJUA97C7uAqbJQAAsWSaAViBTQpiCZcVAAZ5sQQAEIcNgHKfylYJcC+7m6uxWQIAEEumF5ML4D4CsQQAGOzFEgDAmawplfoUVt6Ae9pdXZXNEgCAWDKtmFQA9xOIJQDAoC+WMLUBgFhS5gAY6hBLAICBXyx5yExrAO4rxBIAYPAXS2BKA9xbiCWUOAAgljCdAVgAWACIJQ8VAIY9xBIAgFjCVAbgHpvPVxOx5GECAMQSpjEAxlkIiCUPEQCGP8QSLhYAEEsAYAg8hK8oYsnDAwCIJUxfAIyzIBBLHhoADIOIJVwkACCWAMBQeAhfVcSShwUAEEuYtgDcd4ilA9kqAeA9iFjClAUAYgkADIkjbJfEkofDhQEAYgkADIuIpYlslQDAe1EsYaoCALEEAIbGGWyXxJKHwQUBAGIJAAyPiCVcDAAcwtcXseQhAADEEgA8y8YdsdRslVwIAHhfiiUAMEwilnARAHCslbdL3X86AIBY4gFbJQB3JWLpIVslAPD+FEsAMInt0trEkoMPAH+24nap+08GAEMmYgkHHgDE0r/YKgGA96lYYpetEoA7FLEEACCWnuUTHAAz2C6t9161WXLAAYDVY8lWCQC8X8USu2yVANypiCUAgOnKl7FPcCYgAO8Y75n/YbMEALBqLCl+APC+FUvs8gkOwB2LWAIAOEzZIvYJzsQD4J3jvTODzRIAwGqxpPBtlQDcuYglACCUqssKsQQAsKPc2tAnOOtgAO8g76GZbJYAAFaJJUVvqwTgDkYsAQChVVteiCUTDQCwQiz5BAeAwdV7WSwBAIiltevVJAPgTkYsAQALqLLMEEsmGACgciz5BAeAQRaxhMMIQEoVlhrdfwAAGGgpGksAQHzZlxtiycQCAFSMJZ/gADDYIpZw+AAoIfOSo/vBAcCAS7FYcugcOgAQSwBg0C0l65eh7ocGACgUSyYTkwkAeWVcenQ/MAAYeCkSSw6ZQwYAYgkADL6lZftS1P2wDhcAUCCWAIA6Mi1Buh8UAM7la0EuNksOFQAglgDAIBxNli9H3Q/pMAEAiWMJAEAs8ZCtEoB7vroMX5C6HxAAIGksAUB1tktiCYcHAMQSAMCo6H920/1w8dgqAbj3iePiJxCKuOBwpwC/8xkOAEAsgYkdzygglgAAxBKY3MGzied1+VhywAEAsQQmIvBMglgCABBLgEkezyKIJQAAsQSY6PEMAmIJAEAsgckezx4glgAAxBKY8MEzB2IJAEAsgUkfPGsglgAAxBJg4sczBmIJAEAsASZ/PFuAWAIAEEtgA4BnChBLAABiCWwCwLMEYgkAQCwB32wE8AyBWAIAEEvAOJsBPDsglgAAxBIwzoYAzwyIJQAAsQSMsynAswJiCQBALAHjbAwAxBIAghrEEuBlCCCWABDSIJYAL0UAxBKAgAbEEng5AiCWAIQzIJbASxIAsQSAYAaxBHhZAoglAIQyiCXASxNALAEgkEEsAV6eAIglAGEMiCXwEgVALAEIYkAsAV6mAGIJQAgDYgnwUgUQSwAIYBBLgJcrgFgCQPgCYgm8ZAEQSwCCFxBL4GULgFgCELqAWAK8dAHEEoDABcQS4OULUMPFTwCCCYDf2SwBAIglAACxBAAglgAAxBIAgFgCABBLAABiCQBALAEAiCUAAMQSAIBYAgAQSwAAYgkAQCwBAIglAACxBAAglgAAxBIAgFgCAEAsAQCIJQAAsQQAIJYAAMQSAIBYAgAQSwAAYgkAQCwBACCWAADEEgCAWAIAEEsAAGIJAEAsAQCIJQAAsQQAIJYAAMQSAABiCQBALAEAiCUAALEEACCWAADEEgCAWAIAEEsAAGIJAACxBAAglgAAxBIAgFgCABBLAABiCQBALAEAiCUAALEEACCWAAAQSwAAYgkAQCwBAIglAACxBAAglgAAxBIAgFgCABBLAACIJQAAsQQAIJYAAMQSAIBYAgAQSwAAYgkAQCwBAIglAACxBACAWAIAEEsAAGIJAEAsAQCIJQAAsQQAIJYAAMQSAIBYAgBALAEAiCUAALEEACCWAADEEgCAWAIAEEsAAGIJAEAsAQCIJQAAxBIAgFgCABBLAABiCQBALAEAiCUAALEEACCWAADEEgCAWAIAQCwBAIglAACxBAAglgAAxBIAgFgCABBLAABiCQBALAEA8G2L+g97+3j/9N8DAGu4X29hm8RmCQBALAEAjNki/+N8igOA+iJ/gmvNZgkAYNcW/R9ouwQAdUXfKqWIJcEEAELplXyGAwDYsWX5h9ouAUAdWbZKqWJJMAGAUBJLogkARJJYEkwAIJTEkmgCAFJHUplYEk0AIJLEkngCAHEEAEA8X3QAuzuk3Kn/AAAAAElFTkSuQmCC;rounded=1;strokeWidth=2;fixDash=0;snapToPoint=0;comic=0;shadow=1;" parent="1" vertex="1">
          <mxGeometry x="430" y="370" width="57" height="48.55" as="geometry" />
        </mxCell>
        <mxCell id="5M5S_JfumDmxrn6SgT74-43" value="" style="shape=image;verticalLabelPosition=bottom;labelBackgroundColor=none;verticalAlign=top;aspect=fixed;imageAspect=0;image=data:image/png,iVBORw0KGgoAAAANSUhEUgAAAksAAAH0CAYAAAAtyWk/AAAAxXpUWHRSYXcgcHJvZmlsZSB0eXBlIGV4aWYAAHjabVBBDsMgDLvzij0hxIGG59CVSvvBnr/QgFS2WcJJ49Y1Ce39OsOjg6MESZvmkjMZpEjhao2So14cSS6+IDvxmC7zcMpo2SqswgXNXuOcjw9mjdW6dDPS5xD2VSjilfXLyPMQeqLeH8OoDCOwC3EYVL8W5aLb/Qp7oxXqJ3QSXWP/PG+2vSPZf8DcEEHGgHgA9IOA2gVjhtiLEcl6QTEmzCS2kH97mggfejhZfNRiE+8AAAGEaUNDUElDQyBwcm9maWxlAAB4nH2RPUjDUBSFT1OlUioOdijFIUN1souKOJYqFsFCaSu06mDy0j9o0pCkuDgKrgUHfxarDi7Oujq4CoLgD4iri5Oii5R4X1JoEeODy/s4753DffcBQrvOVHMgAaiaZWRTSbFQXBUDrwgighBVVGKmns4t5uG5vu7h4/tdnGd53/tzDSslkwE+kTjBdMMi3iCe3bR0zvvEYVaVFOJz4kmDGiR+5Lrs8hvnisMCzwwb+ew8cZhYrPSx3MesaqjEM8QxRdUoXyi4rHDe4qzWm6zbJ39hqKSt5LhONYYUlpBGBiJkNFFDHRbitGukmMjSedLDH3X8GXLJ5KqBkWMBDaiQHD/4H/yerVmennKTQklg8MW2P8aBwC7Qadn297Ftd04A/zNwpfX8jTYw90l6q6fFjoCRbeDiuqfJe8DlDhB50iVDciQ/lVAuA+9n9E1FYPQWCK65c+ue4/QByNOslm+Ag0NgokLZ6x7vHuqf2793uvP7AatVcr2KywxtAAANdmlUWHRYTUw6Y29tLmFkb2JlLnhtcAAAAAAAPD94cGFja2V0IGJlZ2luPSLvu78iIGlkPSJXNU0wTXBDZWhpSHpyZVN6TlRjemtjOWQiPz4KPHg6eG1wbWV0YSB4bWxuczp4PSJhZG9iZTpuczptZXRhLyIgeDp4bXB0az0iWE1QIENvcmUgNC40LjAtRXhpdjIiPgogPHJkZjpSREYgeG1sbnM6cmRmPSJodHRwOi8vd3d3LnczLm9yZy8xOTk5LzAyLzIyLXJkZi1zeW50YXgtbnMjIj4KICA8cmRmOkRlc2NyaXB0aW9uIHJkZjphYm91dD0iIgogICAgeG1sbnM6eG1wTU09Imh0dHA6Ly9ucy5hZG9iZS5jb20veGFwLzEuMC9tbS8iCiAgICB4bWxuczpzdEV2dD0iaHR0cDovL25zLmFkb2JlLmNvbS94YXAvMS4wL3NUeXBlL1Jlc291cmNlRXZlbnQjIgogICAgeG1sbnM6ZGM9Imh0dHA6Ly9wdXJsLm9yZy9kYy9lbGVtZW50cy8xLjEvIgogICAgeG1sbnM6R0lNUD0iaHR0cDovL3d3dy5naW1wLm9yZy94bXAvIgogICAgeG1sbnM6dGlmZj0iaHR0cDovL25zLmFkb2JlLmNvbS90aWZmLzEuMC8iCiAgICB4bWxuczp4bXA9Imh0dHA6Ly9ucy5hZG9iZS5jb20veGFwLzEuMC8iCiAgIHhtcE1NOkRvY3VtZW50SUQ9ImdpbXA6ZG9jaWQ6Z2ltcDplNDc0Y2E5ZS0xNzE3LTQ1N2QtODYwMi0wOGMxMjU0NjdkMjUiCiAgIHhtcE1NOkluc3RhbmNlSUQ9InhtcC5paWQ6ZmUzY2JiNTgtN2MxNS00ZjA4LWEyNmMtZGIwMjVhYjA3YzRlIgogICB4bXBNTTpPcmlnaW5hbERvY3VtZW50SUQ9InhtcC5kaWQ6M2NjY2ZmZGEtNGQ1NC00M2Q1LTkwYjctNDczNWFkMjFkNGZlIgogICBkYzpGb3JtYXQ9ImltYWdlL3BuZyIKICAgR0lNUDpBUEk9IjIuMCIKICAgR0lNUDpQbGF0Zm9ybT0iV2luZG93cyIKICAgR0lNUDpUaW1lU3RhbXA9IjE2OTgxNTUzNDcwNTgxNTgiCiAgIEdJTVA6VmVyc2lvbj0iMi4xMC4zNCIKICAgdGlmZjpPcmllbnRhdGlvbj0iMSIKICAgeG1wOkNyZWF0b3JUb29sPSJHSU1QIDIuMTAiCiAgIHhtcDpNZXRhZGF0YURhdGU9IjIwMjM6MTA6MjRUMTU6NDk6MDQrMDI6MDAiCiAgIHhtcDpNb2RpZnlEYXRlPSIyMDIzOjEwOjI0VDE1OjQ5OjA0KzAyOjAwIj4KICAgPHhtcE1NOkhpc3Rvcnk+CiAgICA8cmRmOlNlcT4KICAgICA8cmRmOmxpCiAgICAgIHN0RXZ0OmFjdGlvbj0ic2F2ZWQiCiAgICAgIHN0RXZ0OmNoYW5nZWQ9Ii8iCiAgICAgIHN0RXZ0Omluc3RhbmNlSUQ9InhtcC5paWQ6YWUyOThhOTAtOGFiYi00OGJmLThjNDYtZDNmZjZkN2YwNjdiIgogICAgICBzdEV2dDpzb2Z0d2FyZUFnZW50PSJHaW1wIDIuMTAgKFdpbmRvd3MpIgogICAgICBzdEV2dDp3aGVuPSIyMDIzLTEwLTI0VDE1OjQ5OjA3Ii8+CiAgICA8L3JkZjpTZXE+CiAgIDwveG1wTU06SGlzdG9yeT4KICA8L3JkZjpEZXNjcmlwdGlvbj4KIDwvcmRmOlJERj4KPC94OnhtcG1ldGE+CiAgICAgICAgICAgICAgICAgICAgICAgICAgICAgICAgICAgICAgICAgICAgICAgICAgICAgICAgICAgICAgICAgICAgICAgICAgICAgICAgICAgICAgICAgICAgICAgICAgICAKICAgICAgICAgICAgICAgICAgICAgICAgICAgICAgICAgICAgICAgICAgICAgICAgICAgICAgICAgICAgICAgICAgICAgICAgICAgICAgICAgICAgICAgICAgICAgICAgICAgIAogICAgICAgICAgICAgICAgICAgICAgICAgICAgICAgICAgICAgICAgICAgICAgICAgICAgICAgICAgICAgICAgICAgICAgICAgICAgICAgICAgICAgICAgICAgICAgICAgICAgCiAgICAgICAgICAgICAgICAgICAgICAgICAgICAgICAgICAgICAgICAgICAgICAgICAgICAgICAgICAgICAgICAgICAgICAgICAgICAgICAgICAgICAgICAgICAgICAgICAgICAKICAgICAgICAgICAgICAgICAgICAgICAgICAgICAgICAgICAgICAgICAgICAgICAgICAgICAgICAgICAgICAgICAgICAgICAgICAgICAgICAgICAgICAgICAgICAgICAgICAgIAogICAgICAgICAgICAgICAgICAgICAgICAgICAgICAgICAgICAgICAgICAgICAgICAgICAgICAgICAgICAgICAgICAgICAgICAgICAgICAgICAgICAgICAgICAgICAgICAgICAgCiAgICAgICAgICAgICAgICAgICAgICAgICAgICAgICAgICAgICAgICAgICAgICAgICAgICAgICAgICAgICAgICAgICAgICAgICAgICAgICAgICAgICAgICAgICAgICAgICAgICAKICAgICAgICAgICAgICAgICAgICAgICAgICAgICAgICAgICAgICAgICAgICAgICAgICAgICAgICAgICAgICAgICAgICAgICAgICAgICAgICAgICAgICAgICAgICAgICAgICAgIAogICAgICAgICAgICAgICAgICAgICAgICAgICAgICAgICAgICAgICAgICAgICAgICAgICAgICAgICAgICAgICAgICAgICAgICAgICAgICAgICAgICAgICAgICAgICAgICAgICAgCiAgICAgICAgICAgICAgICAgICAgICAgICAgICAgICAgICAgICAgICAgICAgICAgICAgICAgICAgICAgICAgICAgICAgICAgICAgICAgICAgICAgICAgICAgICAgICAgICAgICAKICAgICAgICAgICAgICAgICAgICAgICAgICAgICAgICAgICAgICAgICAgICAgICAgICAgICAgICAgICAgICAgICAgICAgICAgICAgICAgICAgICAgICAgICAgICAgICAgICAgIAogICAgICAgICAgICAgICAgICAgICAgICAgICAgICAgICAgICAgICAgICAgICAgICAgICAgICAgICAgICAgICAgICAgICAgICAgICAgICAgICAgICAgICAgICAgICAgICAgICAgCiAgICAgICAgICAgICAgICAgICAgICAgICAgICAgICAgICAgICAgICAgICAgICAgICAgICAgICAgICAgICAgICAgICAgICAgICAgICAgICAgICAgICAgICAgICAgICAgICAgICAKICAgICAgICAgICAgICAgICAgICAgICAgICAgICAgICAgICAgICAgICAgICAgICAgICAgICAgICAgICAgICAgICAgICAgICAgICAgICAgICAgICAgICAgICAgICAgICAgICAgIAogICAgICAgICAgICAgICAgICAgICAgICAgICAgICAgICAgICAgICAgICAgICAgICAgICAgICAgICAgICAgICAgICAgICAgICAgICAgICAgICAgICAgICAgICAgICAgICAgICAgCiAgICAgICAgICAgICAgICAgICAgICAgICAgICAgICAgICAgICAgICAgICAgICAgICAgICAgICAgICAgICAgICAgICAgICAgICAgICAgICAgICAgICAgICAgICAgICAgICAgICAKICAgICAgICAgICAgICAgICAgICAgICAgICAgICAgICAgICAgICAgICAgICAgICAgICAgICAgICAgICAgICAgICAgICAgICAgICAgICAgICAgICAgICAgICAgICAgICAgICAgIAogICAgICAgICAgICAgICAgICAgICAgICAgICAgICAgICAgICAgICAgICAgICAgICAgICAgICAgICAgICAgICAgICAgICAgICAgICAgICAgICAgICAgICAgICAgICAgICAgICAgCiAgICAgICAgICAgICAgICAgICAgICAgICAgICAgICAgICAgICAgICAgICAgICAgICAgICAgICAgICAgICAgICAgICAgICAgICAgICAgICAgICAgICAgICAgICAgICAgICAgICAKICAgICAgICAgICAgICAgICAgICAgICAgICAgICAgICAgICAgICAgICAgICAgICAgICAgICAgICAgICAgICAgICAgICAgICAgICAgICAgICAgICAgICAgICAgICAgICAgICAgIAogICAgICAgICAgICAgICAgICAgICAgICAgICAKPD94cGFja2V0IGVuZD0idyI/PqTog8kAAAAGYktHRABYAKUAkambAywAAAAJcEhZcwAACxMAAAsTAQCanBgAAAAHdElNRQfnChgNMQdIaecJAAAKxUlEQVR42u3a0VXjMBBAUVknLaWNVEI5qYQ2KAr+4Cd4iVZ2Zkb3VrAna8lvxrQGAAAAAAAAAAAAAAAAAAAAAAAAAAAAAAAAAAAAAAAAAAAAAAAAAAAAAAAAAAAAAAAAAAAAAAAAAAAAAAAAAAAAAAAAAAAAAAAAAAAAAAAAAAAAAAAAAAAAAAAAAAAAAAAAAAAAAAAAAAAAAAAAAAAAAAAAAAAAAAAAAAAAAAAAAAAAAAAAAAAAAAAAAAAAAEBQm5+AZ719vH/6FYDs7tebdyBiCYEEIJ4QS4gkANGEWEIoAQgmxBJCCUAwIZYQSgCCCbGEUAIQTIglhBKAYKK+7idAKAGAWAIAAyViCZcAAIglADBYIpZw+AFALAGAAROxhEMPAGIJAAyaiCUcdgAQSwCAgROxBAAgljARAYBYAgCDJ2IJhxsAxBIAGEARSwAAYgkTEACIJQDAICqWcJgBQCwBACCWAOAYtvdiCYcYAMQSAGAwRSw5vACAWAIAEEsAEIxtvljCoQUAsQQAGFQRSw4rACCWAADEEgAEY7svlnBIAUAsAQDQ2uYnqMVWCSCO+/XmPVuAzRIAgFgCgPPZ9oslHEoAEEsAACvzh2dF2CoBxOUPvXOzWQIAEEsA8Dq2/2IJhxAAxBIAwIr8wVlytkoAefhD75xslgAAxBIAwBjrwMR8ggPIx6e4fGyWAAB2qNukbJUA8rJdysVmCQBALAEAjLEGTMgnOID8fIrLw2YJAGCHqk3GVgmgDtulHGyWAADEEgDAGOu/RHyCA6jHp7j4bJYAAHZc/AQ52CqZxsBdBq9hswQAAhKxRDW2SuDsgljC1AHgnkcsAbAa2yXEEqYNFy0AYgkAMByLJQjHVgmcZRBLmDIAQCyBSRScaWfakCyWcGAAQCwBAIZlsQQvZl0PzjaIJUwVACCWwOQJOOOGZrGEAwIAYglMnICzbngWSwAAYglTBAAglkjHWh6ceUO0IVos4UAAgFgCEybg7COWAIAD+PIglnAQTJYAiCUAMDAZqsUSDgAAiCUwUQLuAsQSABCMLxFiyYOPSRIAsQQABihDtljCA+9SBEAsAYBBCrEEAATjy4RY8qCbHAHcEYglAACxxEO2SiZGAO8SsQQABivEErj8AF7HdkksebABMGAhlgAAxBKtNVslEyKAd4tYAgCDFmIJXHYAkdguiSUPMgAGLsQSLjkAEEuLslUCwLtGLAHAqWypEUu43ABALNVnLQpgAPPOEUvgUgNALKHwAfDuEUtwEFslwP2CWAIAEEv8lTUowHlsl7yDxBIuMQAQS4oeAIOZd5FYwuUFAGIJAKASk/9E1p4/bJUA97C7uAqbJQAAsWSaAViBTQpiCZcVAAZ5sQQAEIcNgHKfylYJcC+7m6uxWQIAEEumF5ML4D4CsQQAGOzFEgDAmawplfoUVt6Ae9pdXZXNEgCAWDKtmFQA9xOIJQDAoC+WMLUBgFhS5gAY6hBLAICBXyx5yExrAO4rxBIAYPAXS2BKA9xbiCWUOAAgljCdAVgAWACIJQ8VAIY9xBIAgFjCVAbgHpvPVxOx5GECAMQSpjEAxlkIiCUPEQCGP8QSLhYAEEsAYAg8hK8oYsnDAwCIJUxfAIyzIBBLHhoADIOIJVwkACCWAMBQeAhfVcSShwUAEEuYtgDcd4ilA9kqAeA9iFjClAUAYgkADIkjbJfEkofDhQEAYgkADIuIpYlslQDAe1EsYaoCALEEAIbGGWyXxJKHwQUBAGIJAAyPiCVcDAAcwtcXseQhAADEEgA8y8YdsdRslVwIAHhfiiUAMEwilnARAHCslbdL3X86AIBY4gFbJQB3JWLpIVslAPD+FEsAMInt0trEkoMPAH+24nap+08GAEMmYgkHHgDE0r/YKgGA96lYYpetEoA7FLEEACCWnuUTHAAz2C6t9161WXLAAYDVY8lWCQC8X8USu2yVANypiCUAgOnKl7FPcCYgAO8Y75n/YbMEALBqLCl+APC+FUvs8gkOwB2LWAIAOEzZIvYJzsQD4J3jvTODzRIAwGqxpPBtlQDcuYglACCUqssKsQQAsKPc2tAnOOtgAO8g76GZbJYAAFaJJUVvqwTgDkYsAQChVVteiCUTDQCwQiz5BAeAwdV7WSwBAIiltevVJAPgTkYsAQALqLLMEEsmGACgciz5BAeAQRaxhMMIQEoVlhrdfwAAGGgpGksAQHzZlxtiycQCAFSMJZ/gADDYIpZw+AAoIfOSo/vBAcCAS7FYcugcOgAQSwBg0C0l65eh7ocGACgUSyYTkwkAeWVcenQ/MAAYeCkSSw6ZQwYAYgkADL6lZftS1P2wDhcAUCCWAIA6Mi1Buh8UAM7la0EuNksOFQAglgDAIBxNli9H3Q/pMAEAiWMJAEAs8ZCtEoB7vroMX5C6HxAAIGksAUB1tktiCYcHAMQSAMCo6H920/1w8dgqAbj3iePiJxCKuOBwpwC/8xkOAEAsgYkdzygglgAAxBKY3MGzied1+VhywAEAsQQmIvBMglgCABBLgEkezyKIJQAAsQSY6PEMAmIJAEAsgckezx4glgAAxBKY8MEzB2IJAEAsgUkfPGsglgAAxBJg4sczBmIJAEAsASZ/PFuAWAIAEEtgA4BnChBLAABiCWwCwLMEYgkAQCwB32wE8AyBWAIAEEvAOJsBPDsglgAAxBIwzoYAzwyIJQAAsQSMsynAswJiCQBALAHjbAwAxBIAghrEEuBlCCCWABDSIJYAL0UAxBKAgAbEEng5AiCWAIQzIJbASxIAsQSAYAaxBHhZAoglAIQyiCXASxNALAEgkEEsAV6eAIglAGEMiCXwEgVALAEIYkAsAV6mAGIJQAgDYgnwUgUQSwAIYBBLgJcrgFgCQPgCYgm8ZAEQSwCCFxBL4GULgFgCELqAWAK8dAHEEoDABcQS4OULUMPFTwCCCYDf2SwBAIglAACxBAAglgAAxBIAgFgCABBLAABiCQBALAEAiCUAAMQSAIBYAgAQSwAAYgkAQCwBAIglAACxBAAglgAAxBIAgFgCAEAsAQCIJQAAsQQAIJYAAMQSAIBYAgAQSwAAYgkAQCwBACCWAADEEgCAWAIAEEsAAGIJAEAsAQCIJQAAsQQAIJYAAMQSAABiCQBALAEAiCUAALEEACCWAADEEgCAWAIAEEsAAGIJAACxBAAglgAAxBIAgFgCABBLAABiCQBALAEAiCUAALEEACCWAAAQSwAAYgkAQCwBAIglAACxBAAglgAAxBIAgFgCABBLAACIJQAAsQQAIJYAAMQSAIBYAgAQSwAAYgkAQCwBAIglAACxBACAWAIAEEsAAGIJAEAsAQCIJQAAsQQAIJYAAMQSAIBYAgBALAEAiCUAALEEACCWAADEEgCAWAIAEEsAAGIJAEAsAQCIJQAAxBIAgFgCABBLAABiCQBALAEAiCUAALEEACCWAADEEgCAWAIAQCwBAIglAACxBAAglgAAxBIAgFgCABBLAABiCQBALAEA8G2L+g97+3j/9N8DAGu4X29hm8RmCQBALAEAjNki/+N8igOA+iJ/gmvNZgkAYNcW/R9ouwQAdUXfKqWIJcEEAELplXyGAwDYsWX5h9ouAUAdWbZKqWJJMAGAUBJLogkARJJYEkwAIJTEkmgCAFJHUplYEk0AIJLEkngCAHEEAEA8X3QAuzuk3Kn/AAAAAElFTkSuQmCC;rounded=1;autosize=0;treeMoving=0;strokeWidth=2;fixDash=0;snapToPoint=0;comic=0;shadow=1;" parent="1" vertex="1">
          <mxGeometry x="520" y="290" width="57" height="48.55" as="geometry" />
        </mxCell>
        <mxCell id="5M5S_JfumDmxrn6SgT74-44" value="" style="shape=image;verticalLabelPosition=bottom;labelBackgroundColor=none;verticalAlign=top;aspect=fixed;imageAspect=0;image=data:image/png,iVBORw0KGgoAAAANSUhEUgAAAksAAAH0CAYAAAAtyWk/AAAAxXpUWHRSYXcgcHJvZmlsZSB0eXBlIGV4aWYAAHjabVBBDsMgDLvzij0hxIGG59CVSvvBnr/QgFS2WcJJ49Y1Ce39OsOjg6MESZvmkjMZpEjhao2So14cSS6+IDvxmC7zcMpo2SqswgXNXuOcjw9mjdW6dDPS5xD2VSjilfXLyPMQeqLeH8OoDCOwC3EYVL8W5aLb/Qp7oxXqJ3QSXWP/PG+2vSPZf8DcEEHGgHgA9IOA2gVjhtiLEcl6QTEmzCS2kH97mggfejhZfNRiE+8AAAGEaUNDUElDQyBwcm9maWxlAAB4nH2RPUjDUBSFT1OlUioOdijFIUN1souKOJYqFsFCaSu06mDy0j9o0pCkuDgKrgUHfxarDi7Oujq4CoLgD4iri5Oii5R4X1JoEeODy/s4753DffcBQrvOVHMgAaiaZWRTSbFQXBUDrwgighBVVGKmns4t5uG5vu7h4/tdnGd53/tzDSslkwE+kTjBdMMi3iCe3bR0zvvEYVaVFOJz4kmDGiR+5Lrs8hvnisMCzwwb+ew8cZhYrPSx3MesaqjEM8QxRdUoXyi4rHDe4qzWm6zbJ39hqKSt5LhONYYUlpBGBiJkNFFDHRbitGukmMjSedLDH3X8GXLJ5KqBkWMBDaiQHD/4H/yerVmennKTQklg8MW2P8aBwC7Qadn297Ftd04A/zNwpfX8jTYw90l6q6fFjoCRbeDiuqfJe8DlDhB50iVDciQ/lVAuA+9n9E1FYPQWCK65c+ue4/QByNOslm+Ag0NgokLZ6x7vHuqf2793uvP7AatVcr2KywxtAAANdmlUWHRYTUw6Y29tLmFkb2JlLnhtcAAAAAAAPD94cGFja2V0IGJlZ2luPSLvu78iIGlkPSJXNU0wTXBDZWhpSHpyZVN6TlRjemtjOWQiPz4KPHg6eG1wbWV0YSB4bWxuczp4PSJhZG9iZTpuczptZXRhLyIgeDp4bXB0az0iWE1QIENvcmUgNC40LjAtRXhpdjIiPgogPHJkZjpSREYgeG1sbnM6cmRmPSJodHRwOi8vd3d3LnczLm9yZy8xOTk5LzAyLzIyLXJkZi1zeW50YXgtbnMjIj4KICA8cmRmOkRlc2NyaXB0aW9uIHJkZjphYm91dD0iIgogICAgeG1sbnM6eG1wTU09Imh0dHA6Ly9ucy5hZG9iZS5jb20veGFwLzEuMC9tbS8iCiAgICB4bWxuczpzdEV2dD0iaHR0cDovL25zLmFkb2JlLmNvbS94YXAvMS4wL3NUeXBlL1Jlc291cmNlRXZlbnQjIgogICAgeG1sbnM6ZGM9Imh0dHA6Ly9wdXJsLm9yZy9kYy9lbGVtZW50cy8xLjEvIgogICAgeG1sbnM6R0lNUD0iaHR0cDovL3d3dy5naW1wLm9yZy94bXAvIgogICAgeG1sbnM6dGlmZj0iaHR0cDovL25zLmFkb2JlLmNvbS90aWZmLzEuMC8iCiAgICB4bWxuczp4bXA9Imh0dHA6Ly9ucy5hZG9iZS5jb20veGFwLzEuMC8iCiAgIHhtcE1NOkRvY3VtZW50SUQ9ImdpbXA6ZG9jaWQ6Z2ltcDplNDc0Y2E5ZS0xNzE3LTQ1N2QtODYwMi0wOGMxMjU0NjdkMjUiCiAgIHhtcE1NOkluc3RhbmNlSUQ9InhtcC5paWQ6ZmUzY2JiNTgtN2MxNS00ZjA4LWEyNmMtZGIwMjVhYjA3YzRlIgogICB4bXBNTTpPcmlnaW5hbERvY3VtZW50SUQ9InhtcC5kaWQ6M2NjY2ZmZGEtNGQ1NC00M2Q1LTkwYjctNDczNWFkMjFkNGZlIgogICBkYzpGb3JtYXQ9ImltYWdlL3BuZyIKICAgR0lNUDpBUEk9IjIuMCIKICAgR0lNUDpQbGF0Zm9ybT0iV2luZG93cyIKICAgR0lNUDpUaW1lU3RhbXA9IjE2OTgxNTUzNDcwNTgxNTgiCiAgIEdJTVA6VmVyc2lvbj0iMi4xMC4zNCIKICAgdGlmZjpPcmllbnRhdGlvbj0iMSIKICAgeG1wOkNyZWF0b3JUb29sPSJHSU1QIDIuMTAiCiAgIHhtcDpNZXRhZGF0YURhdGU9IjIwMjM6MTA6MjRUMTU6NDk6MDQrMDI6MDAiCiAgIHhtcDpNb2RpZnlEYXRlPSIyMDIzOjEwOjI0VDE1OjQ5OjA0KzAyOjAwIj4KICAgPHhtcE1NOkhpc3Rvcnk+CiAgICA8cmRmOlNlcT4KICAgICA8cmRmOmxpCiAgICAgIHN0RXZ0OmFjdGlvbj0ic2F2ZWQiCiAgICAgIHN0RXZ0OmNoYW5nZWQ9Ii8iCiAgICAgIHN0RXZ0Omluc3RhbmNlSUQ9InhtcC5paWQ6YWUyOThhOTAtOGFiYi00OGJmLThjNDYtZDNmZjZkN2YwNjdiIgogICAgICBzdEV2dDpzb2Z0d2FyZUFnZW50PSJHaW1wIDIuMTAgKFdpbmRvd3MpIgogICAgICBzdEV2dDp3aGVuPSIyMDIzLTEwLTI0VDE1OjQ5OjA3Ii8+CiAgICA8L3JkZjpTZXE+CiAgIDwveG1wTU06SGlzdG9yeT4KICA8L3JkZjpEZXNjcmlwdGlvbj4KIDwvcmRmOlJERj4KPC94OnhtcG1ldGE+CiAgICAgICAgICAgICAgICAgICAgICAgICAgICAgICAgICAgICAgICAgICAgICAgICAgICAgICAgICAgICAgICAgICAgICAgICAgICAgICAgICAgICAgICAgICAgICAgICAgICAKICAgICAgICAgICAgICAgICAgICAgICAgICAgICAgICAgICAgICAgICAgICAgICAgICAgICAgICAgICAgICAgICAgICAgICAgICAgICAgICAgICAgICAgICAgICAgICAgICAgIAogICAgICAgICAgICAgICAgICAgICAgICAgICAgICAgICAgICAgICAgICAgICAgICAgICAgICAgICAgICAgICAgICAgICAgICAgICAgICAgICAgICAgICAgICAgICAgICAgICAgCiAgICAgICAgICAgICAgICAgICAgICAgICAgICAgICAgICAgICAgICAgICAgICAgICAgICAgICAgICAgICAgICAgICAgICAgICAgICAgICAgICAgICAgICAgICAgICAgICAgICAKICAgICAgICAgICAgICAgICAgICAgICAgICAgICAgICAgICAgICAgICAgICAgICAgICAgICAgICAgICAgICAgICAgICAgICAgICAgICAgICAgICAgICAgICAgICAgICAgICAgIAogICAgICAgICAgICAgICAgICAgICAgICAgICAgICAgICAgICAgICAgICAgICAgICAgICAgICAgICAgICAgICAgICAgICAgICAgICAgICAgICAgICAgICAgICAgICAgICAgICAgCiAgICAgICAgICAgICAgICAgICAgICAgICAgICAgICAgICAgICAgICAgICAgICAgICAgICAgICAgICAgICAgICAgICAgICAgICAgICAgICAgICAgICAgICAgICAgICAgICAgICAKICAgICAgICAgICAgICAgICAgICAgICAgICAgICAgICAgICAgICAgICAgICAgICAgICAgICAgICAgICAgICAgICAgICAgICAgICAgICAgICAgICAgICAgICAgICAgICAgICAgIAogICAgICAgICAgICAgICAgICAgICAgICAgICAgICAgICAgICAgICAgICAgICAgICAgICAgICAgICAgICAgICAgICAgICAgICAgICAgICAgICAgICAgICAgICAgICAgICAgICAgCiAgICAgICAgICAgICAgICAgICAgICAgICAgICAgICAgICAgICAgICAgICAgICAgICAgICAgICAgICAgICAgICAgICAgICAgICAgICAgICAgICAgICAgICAgICAgICAgICAgICAKICAgICAgICAgICAgICAgICAgICAgICAgICAgICAgICAgICAgICAgICAgICAgICAgICAgICAgICAgICAgICAgICAgICAgICAgICAgICAgICAgICAgICAgICAgICAgICAgICAgIAogICAgICAgICAgICAgICAgICAgICAgICAgICAgICAgICAgICAgICAgICAgICAgICAgICAgICAgICAgICAgICAgICAgICAgICAgICAgICAgICAgICAgICAgICAgICAgICAgICAgCiAgICAgICAgICAgICAgICAgICAgICAgICAgICAgICAgICAgICAgICAgICAgICAgICAgICAgICAgICAgICAgICAgICAgICAgICAgICAgICAgICAgICAgICAgICAgICAgICAgICAKICAgICAgICAgICAgICAgICAgICAgICAgICAgICAgICAgICAgICAgICAgICAgICAgICAgICAgICAgICAgICAgICAgICAgICAgICAgICAgICAgICAgICAgICAgICAgICAgICAgIAogICAgICAgICAgICAgICAgICAgICAgICAgICAgICAgICAgICAgICAgICAgICAgICAgICAgICAgICAgICAgICAgICAgICAgICAgICAgICAgICAgICAgICAgICAgICAgICAgICAgCiAgICAgICAgICAgICAgICAgICAgICAgICAgICAgICAgICAgICAgICAgICAgICAgICAgICAgICAgICAgICAgICAgICAgICAgICAgICAgICAgICAgICAgICAgICAgICAgICAgICAKICAgICAgICAgICAgICAgICAgICAgICAgICAgICAgICAgICAgICAgICAgICAgICAgICAgICAgICAgICAgICAgICAgICAgICAgICAgICAgICAgICAgICAgICAgICAgICAgICAgIAogICAgICAgICAgICAgICAgICAgICAgICAgICAgICAgICAgICAgICAgICAgICAgICAgICAgICAgICAgICAgICAgICAgICAgICAgICAgICAgICAgICAgICAgICAgICAgICAgICAgCiAgICAgICAgICAgICAgICAgICAgICAgICAgICAgICAgICAgICAgICAgICAgICAgICAgICAgICAgICAgICAgICAgICAgICAgICAgICAgICAgICAgICAgICAgICAgICAgICAgICAKICAgICAgICAgICAgICAgICAgICAgICAgICAgICAgICAgICAgICAgICAgICAgICAgICAgICAgICAgICAgICAgICAgICAgICAgICAgICAgICAgICAgICAgICAgICAgICAgICAgIAogICAgICAgICAgICAgICAgICAgICAgICAgICAKPD94cGFja2V0IGVuZD0idyI/PqTog8kAAAAGYktHRABYAKUAkambAywAAAAJcEhZcwAACxMAAAsTAQCanBgAAAAHdElNRQfnChgNMQdIaecJAAAKxUlEQVR42u3a0VXjMBBAUVknLaWNVEI5qYQ2KAr+4Cd4iVZ2Zkb3VrAna8lvxrQGAAAAAAAAAAAAAAAAAAAAAAAAAAAAAAAAAAAAAAAAAAAAAAAAAAAAAAAAAAAAAAAAAAAAAAAAAAAAAAAAAAAAAAAAAAAAAAAAAAAAAAAAAAAAAAAAAAAAAAAAAAAAAAAAAAAAAAAAAAAAAAAAAAAAAAAAAAAAAAAAAAAAAAAAAAAAAAAAAAAAAAAAAAAAAEBQm5+AZ719vH/6FYDs7tebdyBiCYEEIJ4QS4gkANGEWEIoAQgmxBJCCUAwIZYQSgCCCbGEUAIQTIglhBKAYKK+7idAKAGAWAIAAyViCZcAAIglADBYIpZw+AFALAGAAROxhEMPAGIJAAyaiCUcdgAQSwCAgROxBAAgljARAYBYAgCDJ2IJhxsAxBIAGEARSwAAYgkTEACIJQDAICqWcJgBQCwBACCWAOAYtvdiCYcYAMQSAGAwRSw5vACAWAIAEEsAEIxtvljCoQUAsQQAGFQRSw4rACCWAADEEgAEY7svlnBIAUAsAQDQ2uYnqMVWCSCO+/XmPVuAzRIAgFgCgPPZ9oslHEoAEEsAACvzh2dF2CoBxOUPvXOzWQIAEEsA8Dq2/2IJhxAAxBIAwIr8wVlytkoAefhD75xslgAAxBIAwBjrwMR8ggPIx6e4fGyWAAB2qNukbJUA8rJdysVmCQBALAEAjLEGTMgnOID8fIrLw2YJAGCHqk3GVgmgDtulHGyWAADEEgDAGOu/RHyCA6jHp7j4bJYAAHZc/AQ52CqZxsBdBq9hswQAAhKxRDW2SuDsgljC1AHgnkcsAbAa2yXEEqYNFy0AYgkAMByLJQjHVgmcZRBLmDIAQCyBSRScaWfakCyWcGAAQCwBAIZlsQQvZl0PzjaIJUwVACCWwOQJOOOGZrGEAwIAYglMnICzbngWSwAAYglTBAAglkjHWh6ceUO0IVos4UAAgFgCEybg7COWAIAD+PIglnAQTJYAiCUAMDAZqsUSDgAAiCUwUQLuAsQSABCMLxFiyYOPSRIAsQQABihDtljCA+9SBEAsAYBBCrEEAATjy4RY8qCbHAHcEYglAACxxEO2SiZGAO8SsQQABivEErj8AF7HdkksebABMGAhlgAAxBKtNVslEyKAd4tYAgCDFmIJXHYAkdguiSUPMgAGLsQSLjkAEEuLslUCwLtGLAHAqWypEUu43ABALNVnLQpgAPPOEUvgUgNALKHwAfDuEUtwEFslwP2CWAIAEEv8lTUowHlsl7yDxBIuMQAQS4oeAIOZd5FYwuUFAGIJAKASk/9E1p4/bJUA97C7uAqbJQAAsWSaAViBTQpiCZcVAAZ5sQQAEIcNgHKfylYJcC+7m6uxWQIAEEumF5ML4D4CsQQAGOzFEgDAmawplfoUVt6Ae9pdXZXNEgCAWDKtmFQA9xOIJQDAoC+WMLUBgFhS5gAY6hBLAICBXyx5yExrAO4rxBIAYPAXS2BKA9xbiCWUOAAgljCdAVgAWACIJQ8VAIY9xBIAgFjCVAbgHpvPVxOx5GECAMQSpjEAxlkIiCUPEQCGP8QSLhYAEEsAYAg8hK8oYsnDAwCIJUxfAIyzIBBLHhoADIOIJVwkACCWAMBQeAhfVcSShwUAEEuYtgDcd4ilA9kqAeA9iFjClAUAYgkADIkjbJfEkofDhQEAYgkADIuIpYlslQDAe1EsYaoCALEEAIbGGWyXxJKHwQUBAGIJAAyPiCVcDAAcwtcXseQhAADEEgA8y8YdsdRslVwIAHhfiiUAMEwilnARAHCslbdL3X86AIBY4gFbJQB3JWLpIVslAPD+FEsAMInt0trEkoMPAH+24nap+08GAEMmYgkHHgDE0r/YKgGA96lYYpetEoA7FLEEACCWnuUTHAAz2C6t9161WXLAAYDVY8lWCQC8X8USu2yVANypiCUAgOnKl7FPcCYgAO8Y75n/YbMEALBqLCl+APC+FUvs8gkOwB2LWAIAOEzZIvYJzsQD4J3jvTODzRIAwGqxpPBtlQDcuYglACCUqssKsQQAsKPc2tAnOOtgAO8g76GZbJYAAFaJJUVvqwTgDkYsAQChVVteiCUTDQCwQiz5BAeAwdV7WSwBAIiltevVJAPgTkYsAQALqLLMEEsmGACgciz5BAeAQRaxhMMIQEoVlhrdfwAAGGgpGksAQHzZlxtiycQCAFSMJZ/gADDYIpZw+AAoIfOSo/vBAcCAS7FYcugcOgAQSwBg0C0l65eh7ocGACgUSyYTkwkAeWVcenQ/MAAYeCkSSw6ZQwYAYgkADL6lZftS1P2wDhcAUCCWAIA6Mi1Buh8UAM7la0EuNksOFQAglgDAIBxNli9H3Q/pMAEAiWMJAEAs8ZCtEoB7vroMX5C6HxAAIGksAUB1tktiCYcHAMQSAMCo6H920/1w8dgqAbj3iePiJxCKuOBwpwC/8xkOAEAsgYkdzygglgAAxBKY3MGzied1+VhywAEAsQQmIvBMglgCABBLgEkezyKIJQAAsQSY6PEMAmIJAEAsgckezx4glgAAxBKY8MEzB2IJAEAsgUkfPGsglgAAxBJg4sczBmIJAEAsASZ/PFuAWAIAEEtgA4BnChBLAABiCWwCwLMEYgkAQCwB32wE8AyBWAIAEEvAOJsBPDsglgAAxBIwzoYAzwyIJQAAsQSMsynAswJiCQBALAHjbAwAxBIAghrEEuBlCCCWABDSIJYAL0UAxBKAgAbEEng5AiCWAIQzIJbASxIAsQSAYAaxBHhZAoglAIQyiCXASxNALAEgkEEsAV6eAIglAGEMiCXwEgVALAEIYkAsAV6mAGIJQAgDYgnwUgUQSwAIYBBLgJcrgFgCQPgCYgm8ZAEQSwCCFxBL4GULgFgCELqAWAK8dAHEEoDABcQS4OULUMPFTwCCCYDf2SwBAIglAACxBAAglgAAxBIAgFgCABBLAABiCQBALAEAiCUAAMQSAIBYAgAQSwAAYgkAQCwBAIglAACxBAAglgAAxBIAgFgCAEAsAQCIJQAAsQQAIJYAAMQSAIBYAgAQSwAAYgkAQCwBACCWAADEEgCAWAIAEEsAAGIJAEAsAQCIJQAAsQQAIJYAAMQSAABiCQBALAEAiCUAALEEACCWAADEEgCAWAIAEEsAAGIJAACxBAAglgAAxBIAgFgCABBLAABiCQBALAEAiCUAALEEACCWAAAQSwAAYgkAQCwBAIglAACxBAAglgAAxBIAgFgCABBLAACIJQAAsQQAIJYAAMQSAIBYAgAQSwAAYgkAQCwBAIglAACxBACAWAIAEEsAAGIJAEAsAQCIJQAAsQQAIJYAAMQSAIBYAgBALAEAiCUAALEEACCWAADEEgCAWAIAEEsAAGIJAEAsAQCIJQAAxBIAgFgCABBLAABiCQBALAEAiCUAALEEACCWAADEEgCAWAIAQCwBAIglAACxBAAglgAAxBIAgFgCABBLAABiCQBALAEA8G2L+g97+3j/9N8DAGu4X29hm8RmCQBALAEAjNki/+N8igOA+iJ/gmvNZgkAYNcW/R9ouwQAdUXfKqWIJcEEAELplXyGAwDYsWX5h9ouAUAdWbZKqWJJMAGAUBJLogkARJJYEkwAIJTEkmgCAFJHUplYEk0AIJLEkngCAHEEAEA8X3QAuzuk3Kn/AAAAAElFTkSuQmCC;rounded=1;strokeWidth=2;fixDash=0;snapToPoint=0;comic=0;shadow=1;" parent="1" vertex="1">
          <mxGeometry x="610" y="370" width="57" height="48.55" as="geometry" />
        </mxCell>
        <mxCell id="5M5S_JfumDmxrn6SgT74-45" value="" style="endArrow=classic;html=1;rounded=1;labelBackgroundColor=none;fontColor=default;dashed=1;flowAnimation=0;flowAnimationTimingFunction=linear;flowAnimationDuration=1500;metaEdit=0;noJump=0;startArrow=none;startFill=0;strokeWidth=2;fixDash=0;snapToPoint=0;comic=0;shadow=1;dashPattern=1 1;" parent="1" edge="1">
          <mxGeometry width="50" height="50" relative="1" as="geometry">
            <mxPoint x="567.9993750000001" y="338.54999999999995" as="sourcePoint" />
            <mxPoint x="618" y="380" as="targetPoint" />
          </mxGeometry>
        </mxCell>
        <mxCell id="5M5S_JfumDmxrn6SgT74-46" value="" style="endArrow=classic;html=1;rounded=1;labelBackgroundColor=none;fontColor=default;dashed=1;flowAnimation=0;flowAnimationTimingFunction=linear;flowAnimationDuration=1500;metaEdit=0;noJump=0;startArrow=none;startFill=0;strokeWidth=2;fixDash=0;snapToPoint=0;comic=0;shadow=1;dashPattern=1 1;" parent="1" edge="1">
          <mxGeometry width="50" height="50" relative="1" as="geometry">
            <mxPoint x="530.0000000000002" y="338.54999999999995" as="sourcePoint" />
            <mxPoint x="479.9993750000003" y="380" as="targetPoint" />
          </mxGeometry>
        </mxCell>
        <mxCell id="5M5S_JfumDmxrn6SgT74-47" value="" style="shape=image;verticalLabelPosition=bottom;labelBackgroundColor=none;verticalAlign=top;aspect=fixed;imageAspect=0;image=data:image/png,iVBORw0KGgoAAAANSUhEUgAAAksAAAH0CAYAAAAtyWk/AAAAxXpUWHRSYXcgcHJvZmlsZSB0eXBlIGV4aWYAAHjabVBBDsMgDLvzij0hxIGG59CVSvvBnr/QgFS2WcJJ49Y1Ce39OsOjg6MESZvmkjMZpEjhao2So14cSS6+IDvxmC7zcMpo2SqswgXNXuOcjw9mjdW6dDPS5xD2VSjilfXLyPMQeqLeH8OoDCOwC3EYVL8W5aLb/Qp7oxXqJ3QSXWP/PG+2vSPZf8DcEEHGgHgA9IOA2gVjhtiLEcl6QTEmzCS2kH97mggfejhZfNRiE+8AAAGEaUNDUElDQyBwcm9maWxlAAB4nH2RPUjDUBSFT1OlUioOdijFIUN1souKOJYqFsFCaSu06mDy0j9o0pCkuDgKrgUHfxarDi7Oujq4CoLgD4iri5Oii5R4X1JoEeODy/s4753DffcBQrvOVHMgAaiaZWRTSbFQXBUDrwgighBVVGKmns4t5uG5vu7h4/tdnGd53/tzDSslkwE+kTjBdMMi3iCe3bR0zvvEYVaVFOJz4kmDGiR+5Lrs8hvnisMCzwwb+ew8cZhYrPSx3MesaqjEM8QxRdUoXyi4rHDe4qzWm6zbJ39hqKSt5LhONYYUlpBGBiJkNFFDHRbitGukmMjSedLDH3X8GXLJ5KqBkWMBDaiQHD/4H/yerVmennKTQklg8MW2P8aBwC7Qadn297Ftd04A/zNwpfX8jTYw90l6q6fFjoCRbeDiuqfJe8DlDhB50iVDciQ/lVAuA+9n9E1FYPQWCK65c+ue4/QByNOslm+Ag0NgokLZ6x7vHuqf2793uvP7AatVcr2KywxtAAANdmlUWHRYTUw6Y29tLmFkb2JlLnhtcAAAAAAAPD94cGFja2V0IGJlZ2luPSLvu78iIGlkPSJXNU0wTXBDZWhpSHpyZVN6TlRjemtjOWQiPz4KPHg6eG1wbWV0YSB4bWxuczp4PSJhZG9iZTpuczptZXRhLyIgeDp4bXB0az0iWE1QIENvcmUgNC40LjAtRXhpdjIiPgogPHJkZjpSREYgeG1sbnM6cmRmPSJodHRwOi8vd3d3LnczLm9yZy8xOTk5LzAyLzIyLXJkZi1zeW50YXgtbnMjIj4KICA8cmRmOkRlc2NyaXB0aW9uIHJkZjphYm91dD0iIgogICAgeG1sbnM6eG1wTU09Imh0dHA6Ly9ucy5hZG9iZS5jb20veGFwLzEuMC9tbS8iCiAgICB4bWxuczpzdEV2dD0iaHR0cDovL25zLmFkb2JlLmNvbS94YXAvMS4wL3NUeXBlL1Jlc291cmNlRXZlbnQjIgogICAgeG1sbnM6ZGM9Imh0dHA6Ly9wdXJsLm9yZy9kYy9lbGVtZW50cy8xLjEvIgogICAgeG1sbnM6R0lNUD0iaHR0cDovL3d3dy5naW1wLm9yZy94bXAvIgogICAgeG1sbnM6dGlmZj0iaHR0cDovL25zLmFkb2JlLmNvbS90aWZmLzEuMC8iCiAgICB4bWxuczp4bXA9Imh0dHA6Ly9ucy5hZG9iZS5jb20veGFwLzEuMC8iCiAgIHhtcE1NOkRvY3VtZW50SUQ9ImdpbXA6ZG9jaWQ6Z2ltcDplNDc0Y2E5ZS0xNzE3LTQ1N2QtODYwMi0wOGMxMjU0NjdkMjUiCiAgIHhtcE1NOkluc3RhbmNlSUQ9InhtcC5paWQ6ZmUzY2JiNTgtN2MxNS00ZjA4LWEyNmMtZGIwMjVhYjA3YzRlIgogICB4bXBNTTpPcmlnaW5hbERvY3VtZW50SUQ9InhtcC5kaWQ6M2NjY2ZmZGEtNGQ1NC00M2Q1LTkwYjctNDczNWFkMjFkNGZlIgogICBkYzpGb3JtYXQ9ImltYWdlL3BuZyIKICAgR0lNUDpBUEk9IjIuMCIKICAgR0lNUDpQbGF0Zm9ybT0iV2luZG93cyIKICAgR0lNUDpUaW1lU3RhbXA9IjE2OTgxNTUzNDcwNTgxNTgiCiAgIEdJTVA6VmVyc2lvbj0iMi4xMC4zNCIKICAgdGlmZjpPcmllbnRhdGlvbj0iMSIKICAgeG1wOkNyZWF0b3JUb29sPSJHSU1QIDIuMTAiCiAgIHhtcDpNZXRhZGF0YURhdGU9IjIwMjM6MTA6MjRUMTU6NDk6MDQrMDI6MDAiCiAgIHhtcDpNb2RpZnlEYXRlPSIyMDIzOjEwOjI0VDE1OjQ5OjA0KzAyOjAwIj4KICAgPHhtcE1NOkhpc3Rvcnk+CiAgICA8cmRmOlNlcT4KICAgICA8cmRmOmxpCiAgICAgIHN0RXZ0OmFjdGlvbj0ic2F2ZWQiCiAgICAgIHN0RXZ0OmNoYW5nZWQ9Ii8iCiAgICAgIHN0RXZ0Omluc3RhbmNlSUQ9InhtcC5paWQ6YWUyOThhOTAtOGFiYi00OGJmLThjNDYtZDNmZjZkN2YwNjdiIgogICAgICBzdEV2dDpzb2Z0d2FyZUFnZW50PSJHaW1wIDIuMTAgKFdpbmRvd3MpIgogICAgICBzdEV2dDp3aGVuPSIyMDIzLTEwLTI0VDE1OjQ5OjA3Ii8+CiAgICA8L3JkZjpTZXE+CiAgIDwveG1wTU06SGlzdG9yeT4KICA8L3JkZjpEZXNjcmlwdGlvbj4KIDwvcmRmOlJERj4KPC94OnhtcG1ldGE+CiAgICAgICAgICAgICAgICAgICAgICAgICAgICAgICAgICAgICAgICAgICAgICAgICAgICAgICAgICAgICAgICAgICAgICAgICAgICAgICAgICAgICAgICAgICAgICAgICAgICAKICAgICAgICAgICAgICAgICAgICAgICAgICAgICAgICAgICAgICAgICAgICAgICAgICAgICAgICAgICAgICAgICAgICAgICAgICAgICAgICAgICAgICAgICAgICAgICAgICAgIAogICAgICAgICAgICAgICAgICAgICAgICAgICAgICAgICAgICAgICAgICAgICAgICAgICAgICAgICAgICAgICAgICAgICAgICAgICAgICAgICAgICAgICAgICAgICAgICAgICAgCiAgICAgICAgICAgICAgICAgICAgICAgICAgICAgICAgICAgICAgICAgICAgICAgICAgICAgICAgICAgICAgICAgICAgICAgICAgICAgICAgICAgICAgICAgICAgICAgICAgICAKICAgICAgICAgICAgICAgICAgICAgICAgICAgICAgICAgICAgICAgICAgICAgICAgICAgICAgICAgICAgICAgICAgICAgICAgICAgICAgICAgICAgICAgICAgICAgICAgICAgIAogICAgICAgICAgICAgICAgICAgICAgICAgICAgICAgICAgICAgICAgICAgICAgICAgICAgICAgICAgICAgICAgICAgICAgICAgICAgICAgICAgICAgICAgICAgICAgICAgICAgCiAgICAgICAgICAgICAgICAgICAgICAgICAgICAgICAgICAgICAgICAgICAgICAgICAgICAgICAgICAgICAgICAgICAgICAgICAgICAgICAgICAgICAgICAgICAgICAgICAgICAKICAgICAgICAgICAgICAgICAgICAgICAgICAgICAgICAgICAgICAgICAgICAgICAgICAgICAgICAgICAgICAgICAgICAgICAgICAgICAgICAgICAgICAgICAgICAgICAgICAgIAogICAgICAgICAgICAgICAgICAgICAgICAgICAgICAgICAgICAgICAgICAgICAgICAgICAgICAgICAgICAgICAgICAgICAgICAgICAgICAgICAgICAgICAgICAgICAgICAgICAgCiAgICAgICAgICAgICAgICAgICAgICAgICAgICAgICAgICAgICAgICAgICAgICAgICAgICAgICAgICAgICAgICAgICAgICAgICAgICAgICAgICAgICAgICAgICAgICAgICAgICAKICAgICAgICAgICAgICAgICAgICAgICAgICAgICAgICAgICAgICAgICAgICAgICAgICAgICAgICAgICAgICAgICAgICAgICAgICAgICAgICAgICAgICAgICAgICAgICAgICAgIAogICAgICAgICAgICAgICAgICAgICAgICAgICAgICAgICAgICAgICAgICAgICAgICAgICAgICAgICAgICAgICAgICAgICAgICAgICAgICAgICAgICAgICAgICAgICAgICAgICAgCiAgICAgICAgICAgICAgICAgICAgICAgICAgICAgICAgICAgICAgICAgICAgICAgICAgICAgICAgICAgICAgICAgICAgICAgICAgICAgICAgICAgICAgICAgICAgICAgICAgICAKICAgICAgICAgICAgICAgICAgICAgICAgICAgICAgICAgICAgICAgICAgICAgICAgICAgICAgICAgICAgICAgICAgICAgICAgICAgICAgICAgICAgICAgICAgICAgICAgICAgIAogICAgICAgICAgICAgICAgICAgICAgICAgICAgICAgICAgICAgICAgICAgICAgICAgICAgICAgICAgICAgICAgICAgICAgICAgICAgICAgICAgICAgICAgICAgICAgICAgICAgCiAgICAgICAgICAgICAgICAgICAgICAgICAgICAgICAgICAgICAgICAgICAgICAgICAgICAgICAgICAgICAgICAgICAgICAgICAgICAgICAgICAgICAgICAgICAgICAgICAgICAKICAgICAgICAgICAgICAgICAgICAgICAgICAgICAgICAgICAgICAgICAgICAgICAgICAgICAgICAgICAgICAgICAgICAgICAgICAgICAgICAgICAgICAgICAgICAgICAgICAgIAogICAgICAgICAgICAgICAgICAgICAgICAgICAgICAgICAgICAgICAgICAgICAgICAgICAgICAgICAgICAgICAgICAgICAgICAgICAgICAgICAgICAgICAgICAgICAgICAgICAgCiAgICAgICAgICAgICAgICAgICAgICAgICAgICAgICAgICAgICAgICAgICAgICAgICAgICAgICAgICAgICAgICAgICAgICAgICAgICAgICAgICAgICAgICAgICAgICAgICAgICAKICAgICAgICAgICAgICAgICAgICAgICAgICAgICAgICAgICAgICAgICAgICAgICAgICAgICAgICAgICAgICAgICAgICAgICAgICAgICAgICAgICAgICAgICAgICAgICAgICAgIAogICAgICAgICAgICAgICAgICAgICAgICAgICAKPD94cGFja2V0IGVuZD0idyI/PqTog8kAAAAGYktHRABYAKUAkambAywAAAAJcEhZcwAACxMAAAsTAQCanBgAAAAHdElNRQfnChgNMQdIaecJAAAKxUlEQVR42u3a0VXjMBBAUVknLaWNVEI5qYQ2KAr+4Cd4iVZ2Zkb3VrAna8lvxrQGAAAAAAAAAAAAAAAAAAAAAAAAAAAAAAAAAAAAAAAAAAAAAAAAAAAAAAAAAAAAAAAAAAAAAAAAAAAAAAAAAAAAAAAAAAAAAAAAAAAAAAAAAAAAAAAAAAAAAAAAAAAAAAAAAAAAAAAAAAAAAAAAAAAAAAAAAAAAAAAAAAAAAAAAAAAAAAAAAAAAAAAAAAAAAEBQm5+AZ719vH/6FYDs7tebdyBiCYEEIJ4QS4gkANGEWEIoAQgmxBJCCUAwIZYQSgCCCbGEUAIQTIglhBKAYKK+7idAKAGAWAIAAyViCZcAAIglADBYIpZw+AFALAGAAROxhEMPAGIJAAyaiCUcdgAQSwCAgROxBAAgljARAYBYAgCDJ2IJhxsAxBIAGEARSwAAYgkTEACIJQDAICqWcJgBQCwBACCWAOAYtvdiCYcYAMQSAGAwRSw5vACAWAIAEEsAEIxtvljCoQUAsQQAGFQRSw4rACCWAADEEgAEY7svlnBIAUAsAQDQ2uYnqMVWCSCO+/XmPVuAzRIAgFgCgPPZ9oslHEoAEEsAACvzh2dF2CoBxOUPvXOzWQIAEEsA8Dq2/2IJhxAAxBIAwIr8wVlytkoAefhD75xslgAAxBIAwBjrwMR8ggPIx6e4fGyWAAB2qNukbJUA8rJdysVmCQBALAEAjLEGTMgnOID8fIrLw2YJAGCHqk3GVgmgDtulHGyWAADEEgDAGOu/RHyCA6jHp7j4bJYAAHZc/AQ52CqZxsBdBq9hswQAAhKxRDW2SuDsgljC1AHgnkcsAbAa2yXEEqYNFy0AYgkAMByLJQjHVgmcZRBLmDIAQCyBSRScaWfakCyWcGAAQCwBAIZlsQQvZl0PzjaIJUwVACCWwOQJOOOGZrGEAwIAYglMnICzbngWSwAAYglTBAAglkjHWh6ceUO0IVos4UAAgFgCEybg7COWAIAD+PIglnAQTJYAiCUAMDAZqsUSDgAAiCUwUQLuAsQSABCMLxFiyYOPSRIAsQQABihDtljCA+9SBEAsAYBBCrEEAATjy4RY8qCbHAHcEYglAACxxEO2SiZGAO8SsQQABivEErj8AF7HdkksebABMGAhlgAAxBKtNVslEyKAd4tYAgCDFmIJXHYAkdguiSUPMgAGLsQSLjkAEEuLslUCwLtGLAHAqWypEUu43ABALNVnLQpgAPPOEUvgUgNALKHwAfDuEUtwEFslwP2CWAIAEEv8lTUowHlsl7yDxBIuMQAQS4oeAIOZd5FYwuUFAGIJAKASk/9E1p4/bJUA97C7uAqbJQAAsWSaAViBTQpiCZcVAAZ5sQQAEIcNgHKfylYJcC+7m6uxWQIAEEumF5ML4D4CsQQAGOzFEgDAmawplfoUVt6Ae9pdXZXNEgCAWDKtmFQA9xOIJQDAoC+WMLUBgFhS5gAY6hBLAICBXyx5yExrAO4rxBIAYPAXS2BKA9xbiCWUOAAgljCdAVgAWACIJQ8VAIY9xBIAgFjCVAbgHpvPVxOx5GECAMQSpjEAxlkIiCUPEQCGP8QSLhYAEEsAYAg8hK8oYsnDAwCIJUxfAIyzIBBLHhoADIOIJVwkACCWAMBQeAhfVcSShwUAEEuYtgDcd4ilA9kqAeA9iFjClAUAYgkADIkjbJfEkofDhQEAYgkADIuIpYlslQDAe1EsYaoCALEEAIbGGWyXxJKHwQUBAGIJAAyPiCVcDAAcwtcXseQhAADEEgA8y8YdsdRslVwIAHhfiiUAMEwilnARAHCslbdL3X86AIBY4gFbJQB3JWLpIVslAPD+FEsAMInt0trEkoMPAH+24nap+08GAEMmYgkHHgDE0r/YKgGA96lYYpetEoA7FLEEACCWnuUTHAAz2C6t9161WXLAAYDVY8lWCQC8X8USu2yVANypiCUAgOnKl7FPcCYgAO8Y75n/YbMEALBqLCl+APC+FUvs8gkOwB2LWAIAOEzZIvYJzsQD4J3jvTODzRIAwGqxpPBtlQDcuYglACCUqssKsQQAsKPc2tAnOOtgAO8g76GZbJYAAFaJJUVvqwTgDkYsAQChVVteiCUTDQCwQiz5BAeAwdV7WSwBAIiltevVJAPgTkYsAQALqLLMEEsmGACgciz5BAeAQRaxhMMIQEoVlhrdfwAAGGgpGksAQHzZlxtiycQCAFSMJZ/gADDYIpZw+AAoIfOSo/vBAcCAS7FYcugcOgAQSwBg0C0l65eh7ocGACgUSyYTkwkAeWVcenQ/MAAYeCkSSw6ZQwYAYgkADL6lZftS1P2wDhcAUCCWAIA6Mi1Buh8UAM7la0EuNksOFQAglgDAIBxNli9H3Q/pMAEAiWMJAEAs8ZCtEoB7vroMX5C6HxAAIGksAUB1tktiCYcHAMQSAMCo6H920/1w8dgqAbj3iePiJxCKuOBwpwC/8xkOAEAsgYkdzygglgAAxBKY3MGzied1+VhywAEAsQQmIvBMglgCABBLgEkezyKIJQAAsQSY6PEMAmIJAEAsgckezx4glgAAxBKY8MEzB2IJAEAsgUkfPGsglgAAxBJg4sczBmIJAEAsASZ/PFuAWAIAEEtgA4BnChBLAABiCWwCwLMEYgkAQCwB32wE8AyBWAIAEEvAOJsBPDsglgAAxBIwzoYAzwyIJQAAsQSMsynAswJiCQBALAHjbAwAxBIAghrEEuBlCCCWABDSIJYAL0UAxBKAgAbEEng5AiCWAIQzIJbASxIAsQSAYAaxBHhZAoglAIQyiCXASxNALAEgkEEsAV6eAIglAGEMiCXwEgVALAEIYkAsAV6mAGIJQAgDYgnwUgUQSwAIYBBLgJcrgFgCQPgCYgm8ZAEQSwCCFxBL4GULgFgCELqAWAK8dAHEEoDABcQS4OULUMPFTwCCCYDf2SwBAIglAACxBAAglgAAxBIAgFgCABBLAABiCQBALAEAiCUAAMQSAIBYAgAQSwAAYgkAQCwBAIglAACxBAAglgAAxBIAgFgCAEAsAQCIJQAAsQQAIJYAAMQSAIBYAgAQSwAAYgkAQCwBACCWAADEEgCAWAIAEEsAAGIJAEAsAQCIJQAAsQQAIJYAAMQSAABiCQBALAEAiCUAALEEACCWAADEEgCAWAIAEEsAAGIJAACxBAAglgAAxBIAgFgCABBLAABiCQBALAEAiCUAALEEACCWAAAQSwAAYgkAQCwBAIglAACxBAAglgAAxBIAgFgCABBLAACIJQAAsQQAIJYAAMQSAIBYAgAQSwAAYgkAQCwBAIglAACxBACAWAIAEEsAAGIJAEAsAQCIJQAAsQQAIJYAAMQSAIBYAgBALAEAiCUAALEEACCWAADEEgCAWAIAEEsAAGIJAEAsAQCIJQAAxBIAgFgCABBLAABiCQBALAEAiCUAALEEACCWAADEEgCAWAIAQCwBAIglAACxBAAglgAAxBIAgFgCABBLAABiCQBALAEA8G2L+g97+3j/9N8DAGu4X29hm8RmCQBALAEAjNki/+N8igOA+iJ/gmvNZgkAYNcW/R9ouwQAdUXfKqWIJcEEAELplXyGAwDYsWX5h9ouAUAdWbZKqWJJMAGAUBJLogkARJJYEkwAIJTEkmgCAFJHUplYEk0AIJLEkngCAHEEAEA8X3QAuzuk3Kn/AAAAAElFTkSuQmCC;rounded=1;strokeWidth=2;fixDash=0;snapToPoint=0;comic=0;shadow=1;" parent="1" vertex="1">
          <mxGeometry x="70" y="370" width="57" height="48.55" as="geometry" />
        </mxCell>
        <mxCell id="5M5S_JfumDmxrn6SgT74-48" value="" style="shape=image;verticalLabelPosition=bottom;labelBackgroundColor=none;verticalAlign=top;aspect=fixed;imageAspect=0;image=data:image/png,iVBORw0KGgoAAAANSUhEUgAAAksAAAH0CAYAAAAtyWk/AAAAxXpUWHRSYXcgcHJvZmlsZSB0eXBlIGV4aWYAAHjabVBBDsMgDLvzij0hxIGG59CVSvvBnr/QgFS2WcJJ49Y1Ce39OsOjg6MESZvmkjMZpEjhao2So14cSS6+IDvxmC7zcMpo2SqswgXNXuOcjw9mjdW6dDPS5xD2VSjilfXLyPMQeqLeH8OoDCOwC3EYVL8W5aLb/Qp7oxXqJ3QSXWP/PG+2vSPZf8DcEEHGgHgA9IOA2gVjhtiLEcl6QTEmzCS2kH97mggfejhZfNRiE+8AAAGEaUNDUElDQyBwcm9maWxlAAB4nH2RPUjDUBSFT1OlUioOdijFIUN1souKOJYqFsFCaSu06mDy0j9o0pCkuDgKrgUHfxarDi7Oujq4CoLgD4iri5Oii5R4X1JoEeODy/s4753DffcBQrvOVHMgAaiaZWRTSbFQXBUDrwgighBVVGKmns4t5uG5vu7h4/tdnGd53/tzDSslkwE+kTjBdMMi3iCe3bR0zvvEYVaVFOJz4kmDGiR+5Lrs8hvnisMCzwwb+ew8cZhYrPSx3MesaqjEM8QxRdUoXyi4rHDe4qzWm6zbJ39hqKSt5LhONYYUlpBGBiJkNFFDHRbitGukmMjSedLDH3X8GXLJ5KqBkWMBDaiQHD/4H/yerVmennKTQklg8MW2P8aBwC7Qadn297Ftd04A/zNwpfX8jTYw90l6q6fFjoCRbeDiuqfJe8DlDhB50iVDciQ/lVAuA+9n9E1FYPQWCK65c+ue4/QByNOslm+Ag0NgokLZ6x7vHuqf2793uvP7AatVcr2KywxtAAANdmlUWHRYTUw6Y29tLmFkb2JlLnhtcAAAAAAAPD94cGFja2V0IGJlZ2luPSLvu78iIGlkPSJXNU0wTXBDZWhpSHpyZVN6TlRjemtjOWQiPz4KPHg6eG1wbWV0YSB4bWxuczp4PSJhZG9iZTpuczptZXRhLyIgeDp4bXB0az0iWE1QIENvcmUgNC40LjAtRXhpdjIiPgogPHJkZjpSREYgeG1sbnM6cmRmPSJodHRwOi8vd3d3LnczLm9yZy8xOTk5LzAyLzIyLXJkZi1zeW50YXgtbnMjIj4KICA8cmRmOkRlc2NyaXB0aW9uIHJkZjphYm91dD0iIgogICAgeG1sbnM6eG1wTU09Imh0dHA6Ly9ucy5hZG9iZS5jb20veGFwLzEuMC9tbS8iCiAgICB4bWxuczpzdEV2dD0iaHR0cDovL25zLmFkb2JlLmNvbS94YXAvMS4wL3NUeXBlL1Jlc291cmNlRXZlbnQjIgogICAgeG1sbnM6ZGM9Imh0dHA6Ly9wdXJsLm9yZy9kYy9lbGVtZW50cy8xLjEvIgogICAgeG1sbnM6R0lNUD0iaHR0cDovL3d3dy5naW1wLm9yZy94bXAvIgogICAgeG1sbnM6dGlmZj0iaHR0cDovL25zLmFkb2JlLmNvbS90aWZmLzEuMC8iCiAgICB4bWxuczp4bXA9Imh0dHA6Ly9ucy5hZG9iZS5jb20veGFwLzEuMC8iCiAgIHhtcE1NOkRvY3VtZW50SUQ9ImdpbXA6ZG9jaWQ6Z2ltcDplNDc0Y2E5ZS0xNzE3LTQ1N2QtODYwMi0wOGMxMjU0NjdkMjUiCiAgIHhtcE1NOkluc3RhbmNlSUQ9InhtcC5paWQ6ZmUzY2JiNTgtN2MxNS00ZjA4LWEyNmMtZGIwMjVhYjA3YzRlIgogICB4bXBNTTpPcmlnaW5hbERvY3VtZW50SUQ9InhtcC5kaWQ6M2NjY2ZmZGEtNGQ1NC00M2Q1LTkwYjctNDczNWFkMjFkNGZlIgogICBkYzpGb3JtYXQ9ImltYWdlL3BuZyIKICAgR0lNUDpBUEk9IjIuMCIKICAgR0lNUDpQbGF0Zm9ybT0iV2luZG93cyIKICAgR0lNUDpUaW1lU3RhbXA9IjE2OTgxNTUzNDcwNTgxNTgiCiAgIEdJTVA6VmVyc2lvbj0iMi4xMC4zNCIKICAgdGlmZjpPcmllbnRhdGlvbj0iMSIKICAgeG1wOkNyZWF0b3JUb29sPSJHSU1QIDIuMTAiCiAgIHhtcDpNZXRhZGF0YURhdGU9IjIwMjM6MTA6MjRUMTU6NDk6MDQrMDI6MDAiCiAgIHhtcDpNb2RpZnlEYXRlPSIyMDIzOjEwOjI0VDE1OjQ5OjA0KzAyOjAwIj4KICAgPHhtcE1NOkhpc3Rvcnk+CiAgICA8cmRmOlNlcT4KICAgICA8cmRmOmxpCiAgICAgIHN0RXZ0OmFjdGlvbj0ic2F2ZWQiCiAgICAgIHN0RXZ0OmNoYW5nZWQ9Ii8iCiAgICAgIHN0RXZ0Omluc3RhbmNlSUQ9InhtcC5paWQ6YWUyOThhOTAtOGFiYi00OGJmLThjNDYtZDNmZjZkN2YwNjdiIgogICAgICBzdEV2dDpzb2Z0d2FyZUFnZW50PSJHaW1wIDIuMTAgKFdpbmRvd3MpIgogICAgICBzdEV2dDp3aGVuPSIyMDIzLTEwLTI0VDE1OjQ5OjA3Ii8+CiAgICA8L3JkZjpTZXE+CiAgIDwveG1wTU06SGlzdG9yeT4KICA8L3JkZjpEZXNjcmlwdGlvbj4KIDwvcmRmOlJERj4KPC94OnhtcG1ldGE+CiAgICAgICAgICAgICAgICAgICAgICAgICAgICAgICAgICAgICAgICAgICAgICAgICAgICAgICAgICAgICAgICAgICAgICAgICAgICAgICAgICAgICAgICAgICAgICAgICAgICAKICAgICAgICAgICAgICAgICAgICAgICAgICAgICAgICAgICAgICAgICAgICAgICAgICAgICAgICAgICAgICAgICAgICAgICAgICAgICAgICAgICAgICAgICAgICAgICAgICAgIAogICAgICAgICAgICAgICAgICAgICAgICAgICAgICAgICAgICAgICAgICAgICAgICAgICAgICAgICAgICAgICAgICAgICAgICAgICAgICAgICAgICAgICAgICAgICAgICAgICAgCiAgICAgICAgICAgICAgICAgICAgICAgICAgICAgICAgICAgICAgICAgICAgICAgICAgICAgICAgICAgICAgICAgICAgICAgICAgICAgICAgICAgICAgICAgICAgICAgICAgICAKICAgICAgICAgICAgICAgICAgICAgICAgICAgICAgICAgICAgICAgICAgICAgICAgICAgICAgICAgICAgICAgICAgICAgICAgICAgICAgICAgICAgICAgICAgICAgICAgICAgIAogICAgICAgICAgICAgICAgICAgICAgICAgICAgICAgICAgICAgICAgICAgICAgICAgICAgICAgICAgICAgICAgICAgICAgICAgICAgICAgICAgICAgICAgICAgICAgICAgICAgCiAgICAgICAgICAgICAgICAgICAgICAgICAgICAgICAgICAgICAgICAgICAgICAgICAgICAgICAgICAgICAgICAgICAgICAgICAgICAgICAgICAgICAgICAgICAgICAgICAgICAKICAgICAgICAgICAgICAgICAgICAgICAgICAgICAgICAgICAgICAgICAgICAgICAgICAgICAgICAgICAgICAgICAgICAgICAgICAgICAgICAgICAgICAgICAgICAgICAgICAgIAogICAgICAgICAgICAgICAgICAgICAgICAgICAgICAgICAgICAgICAgICAgICAgICAgICAgICAgICAgICAgICAgICAgICAgICAgICAgICAgICAgICAgICAgICAgICAgICAgICAgCiAgICAgICAgICAgICAgICAgICAgICAgICAgICAgICAgICAgICAgICAgICAgICAgICAgICAgICAgICAgICAgICAgICAgICAgICAgICAgICAgICAgICAgICAgICAgICAgICAgICAKICAgICAgICAgICAgICAgICAgICAgICAgICAgICAgICAgICAgICAgICAgICAgICAgICAgICAgICAgICAgICAgICAgICAgICAgICAgICAgICAgICAgICAgICAgICAgICAgICAgIAogICAgICAgICAgICAgICAgICAgICAgICAgICAgICAgICAgICAgICAgICAgICAgICAgICAgICAgICAgICAgICAgICAgICAgICAgICAgICAgICAgICAgICAgICAgICAgICAgICAgCiAgICAgICAgICAgICAgICAgICAgICAgICAgICAgICAgICAgICAgICAgICAgICAgICAgICAgICAgICAgICAgICAgICAgICAgICAgICAgICAgICAgICAgICAgICAgICAgICAgICAKICAgICAgICAgICAgICAgICAgICAgICAgICAgICAgICAgICAgICAgICAgICAgICAgICAgICAgICAgICAgICAgICAgICAgICAgICAgICAgICAgICAgICAgICAgICAgICAgICAgIAogICAgICAgICAgICAgICAgICAgICAgICAgICAgICAgICAgICAgICAgICAgICAgICAgICAgICAgICAgICAgICAgICAgICAgICAgICAgICAgICAgICAgICAgICAgICAgICAgICAgCiAgICAgICAgICAgICAgICAgICAgICAgICAgICAgICAgICAgICAgICAgICAgICAgICAgICAgICAgICAgICAgICAgICAgICAgICAgICAgICAgICAgICAgICAgICAgICAgICAgICAKICAgICAgICAgICAgICAgICAgICAgICAgICAgICAgICAgICAgICAgICAgICAgICAgICAgICAgICAgICAgICAgICAgICAgICAgICAgICAgICAgICAgICAgICAgICAgICAgICAgIAogICAgICAgICAgICAgICAgICAgICAgICAgICAgICAgICAgICAgICAgICAgICAgICAgICAgICAgICAgICAgICAgICAgICAgICAgICAgICAgICAgICAgICAgICAgICAgICAgICAgCiAgICAgICAgICAgICAgICAgICAgICAgICAgICAgICAgICAgICAgICAgICAgICAgICAgICAgICAgICAgICAgICAgICAgICAgICAgICAgICAgICAgICAgICAgICAgICAgICAgICAKICAgICAgICAgICAgICAgICAgICAgICAgICAgICAgICAgICAgICAgICAgICAgICAgICAgICAgICAgICAgICAgICAgICAgICAgICAgICAgICAgICAgICAgICAgICAgICAgICAgIAogICAgICAgICAgICAgICAgICAgICAgICAgICAKPD94cGFja2V0IGVuZD0idyI/PqTog8kAAAAGYktHRABYAKUAkambAywAAAAJcEhZcwAACxMAAAsTAQCanBgAAAAHdElNRQfnChgNMQdIaecJAAAKxUlEQVR42u3a0VXjMBBAUVknLaWNVEI5qYQ2KAr+4Cd4iVZ2Zkb3VrAna8lvxrQGAAAAAAAAAAAAAAAAAAAAAAAAAAAAAAAAAAAAAAAAAAAAAAAAAAAAAAAAAAAAAAAAAAAAAAAAAAAAAAAAAAAAAAAAAAAAAAAAAAAAAAAAAAAAAAAAAAAAAAAAAAAAAAAAAAAAAAAAAAAAAAAAAAAAAAAAAAAAAAAAAAAAAAAAAAAAAAAAAAAAAAAAAAAAAEBQm5+AZ719vH/6FYDs7tebdyBiCYEEIJ4QS4gkANGEWEIoAQgmxBJCCUAwIZYQSgCCCbGEUAIQTIglhBKAYKK+7idAKAGAWAIAAyViCZcAAIglADBYIpZw+AFALAGAAROxhEMPAGIJAAyaiCUcdgAQSwCAgROxBAAgljARAYBYAgCDJ2IJhxsAxBIAGEARSwAAYgkTEACIJQDAICqWcJgBQCwBACCWAOAYtvdiCYcYAMQSAGAwRSw5vACAWAIAEEsAEIxtvljCoQUAsQQAGFQRSw4rACCWAADEEgAEY7svlnBIAUAsAQDQ2uYnqMVWCSCO+/XmPVuAzRIAgFgCgPPZ9oslHEoAEEsAACvzh2dF2CoBxOUPvXOzWQIAEEsA8Dq2/2IJhxAAxBIAwIr8wVlytkoAefhD75xslgAAxBIAwBjrwMR8ggPIx6e4fGyWAAB2qNukbJUA8rJdysVmCQBALAEAjLEGTMgnOID8fIrLw2YJAGCHqk3GVgmgDtulHGyWAADEEgDAGOu/RHyCA6jHp7j4bJYAAHZc/AQ52CqZxsBdBq9hswQAAhKxRDW2SuDsgljC1AHgnkcsAbAa2yXEEqYNFy0AYgkAMByLJQjHVgmcZRBLmDIAQCyBSRScaWfakCyWcGAAQCwBAIZlsQQvZl0PzjaIJUwVACCWwOQJOOOGZrGEAwIAYglMnICzbngWSwAAYglTBAAglkjHWh6ceUO0IVos4UAAgFgCEybg7COWAIAD+PIglnAQTJYAiCUAMDAZqsUSDgAAiCUwUQLuAsQSABCMLxFiyYOPSRIAsQQABihDtljCA+9SBEAsAYBBCrEEAATjy4RY8qCbHAHcEYglAACxxEO2SiZGAO8SsQQABivEErj8AF7HdkksebABMGAhlgAAxBKtNVslEyKAd4tYAgCDFmIJXHYAkdguiSUPMgAGLsQSLjkAEEuLslUCwLtGLAHAqWypEUu43ABALNVnLQpgAPPOEUvgUgNALKHwAfDuEUtwEFslwP2CWAIAEEv8lTUowHlsl7yDxBIuMQAQS4oeAIOZd5FYwuUFAGIJAKASk/9E1p4/bJUA97C7uAqbJQAAsWSaAViBTQpiCZcVAAZ5sQQAEIcNgHKfylYJcC+7m6uxWQIAEEumF5ML4D4CsQQAGOzFEgDAmawplfoUVt6Ae9pdXZXNEgCAWDKtmFQA9xOIJQDAoC+WMLUBgFhS5gAY6hBLAICBXyx5yExrAO4rxBIAYPAXS2BKA9xbiCWUOAAgljCdAVgAWACIJQ8VAIY9xBIAgFjCVAbgHpvPVxOx5GECAMQSpjEAxlkIiCUPEQCGP8QSLhYAEEsAYAg8hK8oYsnDAwCIJUxfAIyzIBBLHhoADIOIJVwkACCWAMBQeAhfVcSShwUAEEuYtgDcd4ilA9kqAeA9iFjClAUAYgkADIkjbJfEkofDhQEAYgkADIuIpYlslQDAe1EsYaoCALEEAIbGGWyXxJKHwQUBAGIJAAyPiCVcDAAcwtcXseQhAADEEgA8y8YdsdRslVwIAHhfiiUAMEwilnARAHCslbdL3X86AIBY4gFbJQB3JWLpIVslAPD+FEsAMInt0trEkoMPAH+24nap+08GAEMmYgkHHgDE0r/YKgGA96lYYpetEoA7FLEEACCWnuUTHAAz2C6t9161WXLAAYDVY8lWCQC8X8USu2yVANypiCUAgOnKl7FPcCYgAO8Y75n/YbMEALBqLCl+APC+FUvs8gkOwB2LWAIAOEzZIvYJzsQD4J3jvTODzRIAwGqxpPBtlQDcuYglACCUqssKsQQAsKPc2tAnOOtgAO8g76GZbJYAAFaJJUVvqwTgDkYsAQChVVteiCUTDQCwQiz5BAeAwdV7WSwBAIiltevVJAPgTkYsAQALqLLMEEsmGACgciz5BAeAQRaxhMMIQEoVlhrdfwAAGGgpGksAQHzZlxtiycQCAFSMJZ/gADDYIpZw+AAoIfOSo/vBAcCAS7FYcugcOgAQSwBg0C0l65eh7ocGACgUSyYTkwkAeWVcenQ/MAAYeCkSSw6ZQwYAYgkADL6lZftS1P2wDhcAUCCWAIA6Mi1Buh8UAM7la0EuNksOFQAglgDAIBxNli9H3Q/pMAEAiWMJAEAs8ZCtEoB7vroMX5C6HxAAIGksAUB1tktiCYcHAMQSAMCo6H920/1w8dgqAbj3iePiJxCKuOBwpwC/8xkOAEAsgYkdzygglgAAxBKY3MGzied1+VhywAEAsQQmIvBMglgCABBLgEkezyKIJQAAsQSY6PEMAmIJAEAsgckezx4glgAAxBKY8MEzB2IJAEAsgUkfPGsglgAAxBJg4sczBmIJAEAsASZ/PFuAWAIAEEtgA4BnChBLAABiCWwCwLMEYgkAQCwB32wE8AyBWAIAEEvAOJsBPDsglgAAxBIwzoYAzwyIJQAAsQSMsynAswJiCQBALAHjbAwAxBIAghrEEuBlCCCWABDSIJYAL0UAxBKAgAbEEng5AiCWAIQzIJbASxIAsQSAYAaxBHhZAoglAIQyiCXASxNALAEgkEEsAV6eAIglAGEMiCXwEgVALAEIYkAsAV6mAGIJQAgDYgnwUgUQSwAIYBBLgJcrgFgCQPgCYgm8ZAEQSwCCFxBL4GULgFgCELqAWAK8dAHEEoDABcQS4OULUMPFTwCCCYDf2SwBAIglAACxBAAglgAAxBIAgFgCABBLAABiCQBALAEAiCUAAMQSAIBYAgAQSwAAYgkAQCwBAIglAACxBAAglgAAxBIAgFgCAEAsAQCIJQAAsQQAIJYAAMQSAIBYAgAQSwAAYgkAQCwBACCWAADEEgCAWAIAEEsAAGIJAEAsAQCIJQAAsQQAIJYAAMQSAABiCQBALAEAiCUAALEEACCWAADEEgCAWAIAEEsAAGIJAACxBAAglgAAxBIAgFgCABBLAABiCQBALAEAiCUAALEEACCWAAAQSwAAYgkAQCwBAIglAACxBAAglgAAxBIAgFgCABBLAACIJQAAsQQAIJYAAMQSAIBYAgAQSwAAYgkAQCwBAIglAACxBACAWAIAEEsAAGIJAEAsAQCIJQAAsQQAIJYAAMQSAIBYAgBALAEAiCUAALEEACCWAADEEgCAWAIAEEsAAGIJAEAsAQCIJQAAxBIAgFgCABBLAABiCQBALAEAiCUAALEEACCWAADEEgCAWAIAQCwBAIglAACxBAAglgAAxBIAgFgCABBLAABiCQBALAEA8G2L+g97+3j/9N8DAGu4X29hm8RmCQBALAEAjNki/+N8igOA+iJ/gmvNZgkAYNcW/R9ouwQAdUXfKqWIJcEEAELplXyGAwDYsWX5h9ouAUAdWbZKqWJJMAGAUBJLogkARJJYEkwAIJTEkmgCAFJHUplYEk0AIJLEkngCAHEEAEA8X3QAuzuk3Kn/AAAAAElFTkSuQmCC;rounded=1;autosize=0;treeMoving=0;strokeWidth=2;fixDash=0;snapToPoint=0;comic=0;shadow=1;" parent="1" vertex="1">
          <mxGeometry x="160" y="290" width="57" height="48.55" as="geometry" />
        </mxCell>
        <mxCell id="5M5S_JfumDmxrn6SgT74-49" value="" style="shape=image;verticalLabelPosition=bottom;labelBackgroundColor=none;verticalAlign=top;aspect=fixed;imageAspect=0;image=data:image/png,iVBORw0KGgoAAAANSUhEUgAAAksAAAH0CAYAAAAtyWk/AAAAxXpUWHRSYXcgcHJvZmlsZSB0eXBlIGV4aWYAAHjabVBBDsMgDLvzij0hxIGG59CVSvvBnr/QgFS2WcJJ49Y1Ce39OsOjg6MESZvmkjMZpEjhao2So14cSS6+IDvxmC7zcMpo2SqswgXNXuOcjw9mjdW6dDPS5xD2VSjilfXLyPMQeqLeH8OoDCOwC3EYVL8W5aLb/Qp7oxXqJ3QSXWP/PG+2vSPZf8DcEEHGgHgA9IOA2gVjhtiLEcl6QTEmzCS2kH97mggfejhZfNRiE+8AAAGEaUNDUElDQyBwcm9maWxlAAB4nH2RPUjDUBSFT1OlUioOdijFIUN1souKOJYqFsFCaSu06mDy0j9o0pCkuDgKrgUHfxarDi7Oujq4CoLgD4iri5Oii5R4X1JoEeODy/s4753DffcBQrvOVHMgAaiaZWRTSbFQXBUDrwgighBVVGKmns4t5uG5vu7h4/tdnGd53/tzDSslkwE+kTjBdMMi3iCe3bR0zvvEYVaVFOJz4kmDGiR+5Lrs8hvnisMCzwwb+ew8cZhYrPSx3MesaqjEM8QxRdUoXyi4rHDe4qzWm6zbJ39hqKSt5LhONYYUlpBGBiJkNFFDHRbitGukmMjSedLDH3X8GXLJ5KqBkWMBDaiQHD/4H/yerVmennKTQklg8MW2P8aBwC7Qadn297Ftd04A/zNwpfX8jTYw90l6q6fFjoCRbeDiuqfJe8DlDhB50iVDciQ/lVAuA+9n9E1FYPQWCK65c+ue4/QByNOslm+Ag0NgokLZ6x7vHuqf2793uvP7AatVcr2KywxtAAANdmlUWHRYTUw6Y29tLmFkb2JlLnhtcAAAAAAAPD94cGFja2V0IGJlZ2luPSLvu78iIGlkPSJXNU0wTXBDZWhpSHpyZVN6TlRjemtjOWQiPz4KPHg6eG1wbWV0YSB4bWxuczp4PSJhZG9iZTpuczptZXRhLyIgeDp4bXB0az0iWE1QIENvcmUgNC40LjAtRXhpdjIiPgogPHJkZjpSREYgeG1sbnM6cmRmPSJodHRwOi8vd3d3LnczLm9yZy8xOTk5LzAyLzIyLXJkZi1zeW50YXgtbnMjIj4KICA8cmRmOkRlc2NyaXB0aW9uIHJkZjphYm91dD0iIgogICAgeG1sbnM6eG1wTU09Imh0dHA6Ly9ucy5hZG9iZS5jb20veGFwLzEuMC9tbS8iCiAgICB4bWxuczpzdEV2dD0iaHR0cDovL25zLmFkb2JlLmNvbS94YXAvMS4wL3NUeXBlL1Jlc291cmNlRXZlbnQjIgogICAgeG1sbnM6ZGM9Imh0dHA6Ly9wdXJsLm9yZy9kYy9lbGVtZW50cy8xLjEvIgogICAgeG1sbnM6R0lNUD0iaHR0cDovL3d3dy5naW1wLm9yZy94bXAvIgogICAgeG1sbnM6dGlmZj0iaHR0cDovL25zLmFkb2JlLmNvbS90aWZmLzEuMC8iCiAgICB4bWxuczp4bXA9Imh0dHA6Ly9ucy5hZG9iZS5jb20veGFwLzEuMC8iCiAgIHhtcE1NOkRvY3VtZW50SUQ9ImdpbXA6ZG9jaWQ6Z2ltcDplNDc0Y2E5ZS0xNzE3LTQ1N2QtODYwMi0wOGMxMjU0NjdkMjUiCiAgIHhtcE1NOkluc3RhbmNlSUQ9InhtcC5paWQ6ZmUzY2JiNTgtN2MxNS00ZjA4LWEyNmMtZGIwMjVhYjA3YzRlIgogICB4bXBNTTpPcmlnaW5hbERvY3VtZW50SUQ9InhtcC5kaWQ6M2NjY2ZmZGEtNGQ1NC00M2Q1LTkwYjctNDczNWFkMjFkNGZlIgogICBkYzpGb3JtYXQ9ImltYWdlL3BuZyIKICAgR0lNUDpBUEk9IjIuMCIKICAgR0lNUDpQbGF0Zm9ybT0iV2luZG93cyIKICAgR0lNUDpUaW1lU3RhbXA9IjE2OTgxNTUzNDcwNTgxNTgiCiAgIEdJTVA6VmVyc2lvbj0iMi4xMC4zNCIKICAgdGlmZjpPcmllbnRhdGlvbj0iMSIKICAgeG1wOkNyZWF0b3JUb29sPSJHSU1QIDIuMTAiCiAgIHhtcDpNZXRhZGF0YURhdGU9IjIwMjM6MTA6MjRUMTU6NDk6MDQrMDI6MDAiCiAgIHhtcDpNb2RpZnlEYXRlPSIyMDIzOjEwOjI0VDE1OjQ5OjA0KzAyOjAwIj4KICAgPHhtcE1NOkhpc3Rvcnk+CiAgICA8cmRmOlNlcT4KICAgICA8cmRmOmxpCiAgICAgIHN0RXZ0OmFjdGlvbj0ic2F2ZWQiCiAgICAgIHN0RXZ0OmNoYW5nZWQ9Ii8iCiAgICAgIHN0RXZ0Omluc3RhbmNlSUQ9InhtcC5paWQ6YWUyOThhOTAtOGFiYi00OGJmLThjNDYtZDNmZjZkN2YwNjdiIgogICAgICBzdEV2dDpzb2Z0d2FyZUFnZW50PSJHaW1wIDIuMTAgKFdpbmRvd3MpIgogICAgICBzdEV2dDp3aGVuPSIyMDIzLTEwLTI0VDE1OjQ5OjA3Ii8+CiAgICA8L3JkZjpTZXE+CiAgIDwveG1wTU06SGlzdG9yeT4KICA8L3JkZjpEZXNjcmlwdGlvbj4KIDwvcmRmOlJERj4KPC94OnhtcG1ldGE+CiAgICAgICAgICAgICAgICAgICAgICAgICAgICAgICAgICAgICAgICAgICAgICAgICAgICAgICAgICAgICAgICAgICAgICAgICAgICAgICAgICAgICAgICAgICAgICAgICAgICAKICAgICAgICAgICAgICAgICAgICAgICAgICAgICAgICAgICAgICAgICAgICAgICAgICAgICAgICAgICAgICAgICAgICAgICAgICAgICAgICAgICAgICAgICAgICAgICAgICAgIAogICAgICAgICAgICAgICAgICAgICAgICAgICAgICAgICAgICAgICAgICAgICAgICAgICAgICAgICAgICAgICAgICAgICAgICAgICAgICAgICAgICAgICAgICAgICAgICAgICAgCiAgICAgICAgICAgICAgICAgICAgICAgICAgICAgICAgICAgICAgICAgICAgICAgICAgICAgICAgICAgICAgICAgICAgICAgICAgICAgICAgICAgICAgICAgICAgICAgICAgICAKICAgICAgICAgICAgICAgICAgICAgICAgICAgICAgICAgICAgICAgICAgICAgICAgICAgICAgICAgICAgICAgICAgICAgICAgICAgICAgICAgICAgICAgICAgICAgICAgICAgIAogICAgICAgICAgICAgICAgICAgICAgICAgICAgICAgICAgICAgICAgICAgICAgICAgICAgICAgICAgICAgICAgICAgICAgICAgICAgICAgICAgICAgICAgICAgICAgICAgICAgCiAgICAgICAgICAgICAgICAgICAgICAgICAgICAgICAgICAgICAgICAgICAgICAgICAgICAgICAgICAgICAgICAgICAgICAgICAgICAgICAgICAgICAgICAgICAgICAgICAgICAKICAgICAgICAgICAgICAgICAgICAgICAgICAgICAgICAgICAgICAgICAgICAgICAgICAgICAgICAgICAgICAgICAgICAgICAgICAgICAgICAgICAgICAgICAgICAgICAgICAgIAogICAgICAgICAgICAgICAgICAgICAgICAgICAgICAgICAgICAgICAgICAgICAgICAgICAgICAgICAgICAgICAgICAgICAgICAgICAgICAgICAgICAgICAgICAgICAgICAgICAgCiAgICAgICAgICAgICAgICAgICAgICAgICAgICAgICAgICAgICAgICAgICAgICAgICAgICAgICAgICAgICAgICAgICAgICAgICAgICAgICAgICAgICAgICAgICAgICAgICAgICAKICAgICAgICAgICAgICAgICAgICAgICAgICAgICAgICAgICAgICAgICAgICAgICAgICAgICAgICAgICAgICAgICAgICAgICAgICAgICAgICAgICAgICAgICAgICAgICAgICAgIAogICAgICAgICAgICAgICAgICAgICAgICAgICAgICAgICAgICAgICAgICAgICAgICAgICAgICAgICAgICAgICAgICAgICAgICAgICAgICAgICAgICAgICAgICAgICAgICAgICAgCiAgICAgICAgICAgICAgICAgICAgICAgICAgICAgICAgICAgICAgICAgICAgICAgICAgICAgICAgICAgICAgICAgICAgICAgICAgICAgICAgICAgICAgICAgICAgICAgICAgICAKICAgICAgICAgICAgICAgICAgICAgICAgICAgICAgICAgICAgICAgICAgICAgICAgICAgICAgICAgICAgICAgICAgICAgICAgICAgICAgICAgICAgICAgICAgICAgICAgICAgIAogICAgICAgICAgICAgICAgICAgICAgICAgICAgICAgICAgICAgICAgICAgICAgICAgICAgICAgICAgICAgICAgICAgICAgICAgICAgICAgICAgICAgICAgICAgICAgICAgICAgCiAgICAgICAgICAgICAgICAgICAgICAgICAgICAgICAgICAgICAgICAgICAgICAgICAgICAgICAgICAgICAgICAgICAgICAgICAgICAgICAgICAgICAgICAgICAgICAgICAgICAKICAgICAgICAgICAgICAgICAgICAgICAgICAgICAgICAgICAgICAgICAgICAgICAgICAgICAgICAgICAgICAgICAgICAgICAgICAgICAgICAgICAgICAgICAgICAgICAgICAgIAogICAgICAgICAgICAgICAgICAgICAgICAgICAgICAgICAgICAgICAgICAgICAgICAgICAgICAgICAgICAgICAgICAgICAgICAgICAgICAgICAgICAgICAgICAgICAgICAgICAgCiAgICAgICAgICAgICAgICAgICAgICAgICAgICAgICAgICAgICAgICAgICAgICAgICAgICAgICAgICAgICAgICAgICAgICAgICAgICAgICAgICAgICAgICAgICAgICAgICAgICAKICAgICAgICAgICAgICAgICAgICAgICAgICAgICAgICAgICAgICAgICAgICAgICAgICAgICAgICAgICAgICAgICAgICAgICAgICAgICAgICAgICAgICAgICAgICAgICAgICAgIAogICAgICAgICAgICAgICAgICAgICAgICAgICAKPD94cGFja2V0IGVuZD0idyI/PqTog8kAAAAGYktHRABYAKUAkambAywAAAAJcEhZcwAACxMAAAsTAQCanBgAAAAHdElNRQfnChgNMQdIaecJAAAKxUlEQVR42u3a0VXjMBBAUVknLaWNVEI5qYQ2KAr+4Cd4iVZ2Zkb3VrAna8lvxrQGAAAAAAAAAAAAAAAAAAAAAAAAAAAAAAAAAAAAAAAAAAAAAAAAAAAAAAAAAAAAAAAAAAAAAAAAAAAAAAAAAAAAAAAAAAAAAAAAAAAAAAAAAAAAAAAAAAAAAAAAAAAAAAAAAAAAAAAAAAAAAAAAAAAAAAAAAAAAAAAAAAAAAAAAAAAAAAAAAAAAAAAAAAAAAEBQm5+AZ719vH/6FYDs7tebdyBiCYEEIJ4QS4gkANGEWEIoAQgmxBJCCUAwIZYQSgCCCbGEUAIQTIglhBKAYKK+7idAKAGAWAIAAyViCZcAAIglADBYIpZw+AFALAGAAROxhEMPAGIJAAyaiCUcdgAQSwCAgROxBAAgljARAYBYAgCDJ2IJhxsAxBIAGEARSwAAYgkTEACIJQDAICqWcJgBQCwBACCWAOAYtvdiCYcYAMQSAGAwRSw5vACAWAIAEEsAEIxtvljCoQUAsQQAGFQRSw4rACCWAADEEgAEY7svlnBIAUAsAQDQ2uYnqMVWCSCO+/XmPVuAzRIAgFgCgPPZ9oslHEoAEEsAACvzh2dF2CoBxOUPvXOzWQIAEEsA8Dq2/2IJhxAAxBIAwIr8wVlytkoAefhD75xslgAAxBIAwBjrwMR8ggPIx6e4fGyWAAB2qNukbJUA8rJdysVmCQBALAEAjLEGTMgnOID8fIrLw2YJAGCHqk3GVgmgDtulHGyWAADEEgDAGOu/RHyCA6jHp7j4bJYAAHZc/AQ52CqZxsBdBq9hswQAAhKxRDW2SuDsgljC1AHgnkcsAbAa2yXEEqYNFy0AYgkAMByLJQjHVgmcZRBLmDIAQCyBSRScaWfakCyWcGAAQCwBAIZlsQQvZl0PzjaIJUwVACCWwOQJOOOGZrGEAwIAYglMnICzbngWSwAAYglTBAAglkjHWh6ceUO0IVos4UAAgFgCEybg7COWAIAD+PIglnAQTJYAiCUAMDAZqsUSDgAAiCUwUQLuAsQSABCMLxFiyYOPSRIAsQQABihDtljCA+9SBEAsAYBBCrEEAATjy4RY8qCbHAHcEYglAACxxEO2SiZGAO8SsQQABivEErj8AF7HdkksebABMGAhlgAAxBKtNVslEyKAd4tYAgCDFmIJXHYAkdguiSUPMgAGLsQSLjkAEEuLslUCwLtGLAHAqWypEUu43ABALNVnLQpgAPPOEUvgUgNALKHwAfDuEUtwEFslwP2CWAIAEEv8lTUowHlsl7yDxBIuMQAQS4oeAIOZd5FYwuUFAGIJAKASk/9E1p4/bJUA97C7uAqbJQAAsWSaAViBTQpiCZcVAAZ5sQQAEIcNgHKfylYJcC+7m6uxWQIAEEumF5ML4D4CsQQAGOzFEgDAmawplfoUVt6Ae9pdXZXNEgCAWDKtmFQA9xOIJQDAoC+WMLUBgFhS5gAY6hBLAICBXyx5yExrAO4rxBIAYPAXS2BKA9xbiCWUOAAgljCdAVgAWACIJQ8VAIY9xBIAgFjCVAbgHpvPVxOx5GECAMQSpjEAxlkIiCUPEQCGP8QSLhYAEEsAYAg8hK8oYsnDAwCIJUxfAIyzIBBLHhoADIOIJVwkACCWAMBQeAhfVcSShwUAEEuYtgDcd4ilA9kqAeA9iFjClAUAYgkADIkjbJfEkofDhQEAYgkADIuIpYlslQDAe1EsYaoCALEEAIbGGWyXxJKHwQUBAGIJAAyPiCVcDAAcwtcXseQhAADEEgA8y8YdsdRslVwIAHhfiiUAMEwilnARAHCslbdL3X86AIBY4gFbJQB3JWLpIVslAPD+FEsAMInt0trEkoMPAH+24nap+08GAEMmYgkHHgDE0r/YKgGA96lYYpetEoA7FLEEACCWnuUTHAAz2C6t9161WXLAAYDVY8lWCQC8X8USu2yVANypiCUAgOnKl7FPcCYgAO8Y75n/YbMEALBqLCl+APC+FUvs8gkOwB2LWAIAOEzZIvYJzsQD4J3jvTODzRIAwGqxpPBtlQDcuYglACCUqssKsQQAsKPc2tAnOOtgAO8g76GZbJYAAFaJJUVvqwTgDkYsAQChVVteiCUTDQCwQiz5BAeAwdV7WSwBAIiltevVJAPgTkYsAQALqLLMEEsmGACgciz5BAeAQRaxhMMIQEoVlhrdfwAAGGgpGksAQHzZlxtiycQCAFSMJZ/gADDYIpZw+AAoIfOSo/vBAcCAS7FYcugcOgAQSwBg0C0l65eh7ocGACgUSyYTkwkAeWVcenQ/MAAYeCkSSw6ZQwYAYgkADL6lZftS1P2wDhcAUCCWAIA6Mi1Buh8UAM7la0EuNksOFQAglgDAIBxNli9H3Q/pMAEAiWMJAEAs8ZCtEoB7vroMX5C6HxAAIGksAUB1tktiCYcHAMQSAMCo6H920/1w8dgqAbj3iePiJxCKuOBwpwC/8xkOAEAsgYkdzygglgAAxBKY3MGzied1+VhywAEAsQQmIvBMglgCABBLgEkezyKIJQAAsQSY6PEMAmIJAEAsgckezx4glgAAxBKY8MEzB2IJAEAsgUkfPGsglgAAxBJg4sczBmIJAEAsASZ/PFuAWAIAEEtgA4BnChBLAABiCWwCwLMEYgkAQCwB32wE8AyBWAIAEEvAOJsBPDsglgAAxBIwzoYAzwyIJQAAsQSMsynAswJiCQBALAHjbAwAxBIAghrEEuBlCCCWABDSIJYAL0UAxBKAgAbEEng5AiCWAIQzIJbASxIAsQSAYAaxBHhZAoglAIQyiCXASxNALAEgkEEsAV6eAIglAGEMiCXwEgVALAEIYkAsAV6mAGIJQAgDYgnwUgUQSwAIYBBLgJcrgFgCQPgCYgm8ZAEQSwCCFxBL4GULgFgCELqAWAK8dAHEEoDABcQS4OULUMPFTwCCCYDf2SwBAIglAACxBAAglgAAxBIAgFgCABBLAABiCQBALAEAiCUAAMQSAIBYAgAQSwAAYgkAQCwBAIglAACxBAAglgAAxBIAgFgCAEAsAQCIJQAAsQQAIJYAAMQSAIBYAgAQSwAAYgkAQCwBACCWAADEEgCAWAIAEEsAAGIJAEAsAQCIJQAAsQQAIJYAAMQSAABiCQBALAEAiCUAALEEACCWAADEEgCAWAIAEEsAAGIJAACxBAAglgAAxBIAgFgCABBLAABiCQBALAEAiCUAALEEACCWAAAQSwAAYgkAQCwBAIglAACxBAAglgAAxBIAgFgCABBLAACIJQAAsQQAIJYAAMQSAIBYAgAQSwAAYgkAQCwBAIglAACxBACAWAIAEEsAAGIJAEAsAQCIJQAAsQQAIJYAAMQSAIBYAgBALAEAiCUAALEEACCWAADEEgCAWAIAEEsAAGIJAEAsAQCIJQAAxBIAgFgCABBLAABiCQBALAEAiCUAALEEACCWAADEEgCAWAIAQCwBAIglAACxBAAglgAAxBIAgFgCABBLAABiCQBALAEA8G2L+g97+3j/9N8DAGu4X29hm8RmCQBALAEAjNki/+N8igOA+iJ/gmvNZgkAYNcW/R9ouwQAdUXfKqWIJcEEAELplXyGAwDYsWX5h9ouAUAdWbZKqWJJMAGAUBJLogkARJJYEkwAIJTEkmgCAFJHUplYEk0AIJLEkngCAHEEAEA8X3QAuzuk3Kn/AAAAAElFTkSuQmCC;rounded=1;strokeWidth=2;fixDash=0;snapToPoint=0;comic=0;shadow=1;" parent="1" vertex="1">
          <mxGeometry x="250" y="370" width="57" height="48.55" as="geometry" />
        </mxCell>
        <mxCell id="5M5S_JfumDmxrn6SgT74-50" value="" style="endArrow=classic;html=1;rounded=1;labelBackgroundColor=none;fontColor=default;dashed=1;flowAnimation=0;flowAnimationTimingFunction=linear;flowAnimationDuration=1500;metaEdit=0;noJump=0;startArrow=none;startFill=0;strokeWidth=2;fixDash=0;snapToPoint=0;comic=0;shadow=1;dashPattern=1 1;" parent="1" edge="1">
          <mxGeometry width="50" height="50" relative="1" as="geometry">
            <mxPoint x="207.9993750000001" y="338.54999999999995" as="sourcePoint" />
            <mxPoint x="258" y="380" as="targetPoint" />
          </mxGeometry>
        </mxCell>
        <mxCell id="5M5S_JfumDmxrn6SgT74-51" value="" style="endArrow=classic;html=1;rounded=1;labelBackgroundColor=none;fontColor=default;dashed=1;flowAnimation=0;flowAnimationTimingFunction=linear;flowAnimationDuration=1500;metaEdit=0;noJump=0;startArrow=none;startFill=0;strokeWidth=2;fixDash=0;snapToPoint=0;comic=0;shadow=1;dashPattern=1 1;" parent="1" edge="1">
          <mxGeometry width="50" height="50" relative="1" as="geometry">
            <mxPoint x="170.00000000000023" y="338.54999999999995" as="sourcePoint" />
            <mxPoint x="119.99937500000033" y="380" as="targetPoint" />
          </mxGeometry>
        </mxCell>
        <mxCell id="5M5S_JfumDmxrn6SgT74-54" value="" style="shape=image;verticalLabelPosition=bottom;labelBackgroundColor=none;verticalAlign=top;aspect=fixed;imageAspect=0;image=data:image/png,iVBORw0KGgoAAAANSUhEUgAAAksAAAH0CAYAAAAtyWk/AAAAxXpUWHRSYXcgcHJvZmlsZSB0eXBlIGV4aWYAAHjabVBBDsMgDLvzij0hxIGG59CVSvvBnr/QgFS2WcJJ49Y1Ce39OsOjg6MESZvmkjMZpEjhao2So14cSS6+IDvxmC7zcMpo2SqswgXNXuOcjw9mjdW6dDPS5xD2VSjilfXLyPMQeqLeH8OoDCOwC3EYVL8W5aLb/Qp7oxXqJ3QSXWP/PG+2vSPZf8DcEEHGgHgA9IOA2gVjhtiLEcl6QTEmzCS2kH97mggfejhZfNRiE+8AAAGEaUNDUElDQyBwcm9maWxlAAB4nH2RPUjDUBSFT1OlUioOdijFIUN1souKOJYqFsFCaSu06mDy0j9o0pCkuDgKrgUHfxarDi7Oujq4CoLgD4iri5Oii5R4X1JoEeODy/s4753DffcBQrvOVHMgAaiaZWRTSbFQXBUDrwgighBVVGKmns4t5uG5vu7h4/tdnGd53/tzDSslkwE+kTjBdMMi3iCe3bR0zvvEYVaVFOJz4kmDGiR+5Lrs8hvnisMCzwwb+ew8cZhYrPSx3MesaqjEM8QxRdUoXyi4rHDe4qzWm6zbJ39hqKSt5LhONYYUlpBGBiJkNFFDHRbitGukmMjSedLDH3X8GXLJ5KqBkWMBDaiQHD/4H/yerVmennKTQklg8MW2P8aBwC7Qadn297Ftd04A/zNwpfX8jTYw90l6q6fFjoCRbeDiuqfJe8DlDhB50iVDciQ/lVAuA+9n9E1FYPQWCK65c+ue4/QByNOslm+Ag0NgokLZ6x7vHuqf2793uvP7AatVcr2KywxtAAANdmlUWHRYTUw6Y29tLmFkb2JlLnhtcAAAAAAAPD94cGFja2V0IGJlZ2luPSLvu78iIGlkPSJXNU0wTXBDZWhpSHpyZVN6TlRjemtjOWQiPz4KPHg6eG1wbWV0YSB4bWxuczp4PSJhZG9iZTpuczptZXRhLyIgeDp4bXB0az0iWE1QIENvcmUgNC40LjAtRXhpdjIiPgogPHJkZjpSREYgeG1sbnM6cmRmPSJodHRwOi8vd3d3LnczLm9yZy8xOTk5LzAyLzIyLXJkZi1zeW50YXgtbnMjIj4KICA8cmRmOkRlc2NyaXB0aW9uIHJkZjphYm91dD0iIgogICAgeG1sbnM6eG1wTU09Imh0dHA6Ly9ucy5hZG9iZS5jb20veGFwLzEuMC9tbS8iCiAgICB4bWxuczpzdEV2dD0iaHR0cDovL25zLmFkb2JlLmNvbS94YXAvMS4wL3NUeXBlL1Jlc291cmNlRXZlbnQjIgogICAgeG1sbnM6ZGM9Imh0dHA6Ly9wdXJsLm9yZy9kYy9lbGVtZW50cy8xLjEvIgogICAgeG1sbnM6R0lNUD0iaHR0cDovL3d3dy5naW1wLm9yZy94bXAvIgogICAgeG1sbnM6dGlmZj0iaHR0cDovL25zLmFkb2JlLmNvbS90aWZmLzEuMC8iCiAgICB4bWxuczp4bXA9Imh0dHA6Ly9ucy5hZG9iZS5jb20veGFwLzEuMC8iCiAgIHhtcE1NOkRvY3VtZW50SUQ9ImdpbXA6ZG9jaWQ6Z2ltcDplNDc0Y2E5ZS0xNzE3LTQ1N2QtODYwMi0wOGMxMjU0NjdkMjUiCiAgIHhtcE1NOkluc3RhbmNlSUQ9InhtcC5paWQ6ZmUzY2JiNTgtN2MxNS00ZjA4LWEyNmMtZGIwMjVhYjA3YzRlIgogICB4bXBNTTpPcmlnaW5hbERvY3VtZW50SUQ9InhtcC5kaWQ6M2NjY2ZmZGEtNGQ1NC00M2Q1LTkwYjctNDczNWFkMjFkNGZlIgogICBkYzpGb3JtYXQ9ImltYWdlL3BuZyIKICAgR0lNUDpBUEk9IjIuMCIKICAgR0lNUDpQbGF0Zm9ybT0iV2luZG93cyIKICAgR0lNUDpUaW1lU3RhbXA9IjE2OTgxNTUzNDcwNTgxNTgiCiAgIEdJTVA6VmVyc2lvbj0iMi4xMC4zNCIKICAgdGlmZjpPcmllbnRhdGlvbj0iMSIKICAgeG1wOkNyZWF0b3JUb29sPSJHSU1QIDIuMTAiCiAgIHhtcDpNZXRhZGF0YURhdGU9IjIwMjM6MTA6MjRUMTU6NDk6MDQrMDI6MDAiCiAgIHhtcDpNb2RpZnlEYXRlPSIyMDIzOjEwOjI0VDE1OjQ5OjA0KzAyOjAwIj4KICAgPHhtcE1NOkhpc3Rvcnk+CiAgICA8cmRmOlNlcT4KICAgICA8cmRmOmxpCiAgICAgIHN0RXZ0OmFjdGlvbj0ic2F2ZWQiCiAgICAgIHN0RXZ0OmNoYW5nZWQ9Ii8iCiAgICAgIHN0RXZ0Omluc3RhbmNlSUQ9InhtcC5paWQ6YWUyOThhOTAtOGFiYi00OGJmLThjNDYtZDNmZjZkN2YwNjdiIgogICAgICBzdEV2dDpzb2Z0d2FyZUFnZW50PSJHaW1wIDIuMTAgKFdpbmRvd3MpIgogICAgICBzdEV2dDp3aGVuPSIyMDIzLTEwLTI0VDE1OjQ5OjA3Ii8+CiAgICA8L3JkZjpTZXE+CiAgIDwveG1wTU06SGlzdG9yeT4KICA8L3JkZjpEZXNjcmlwdGlvbj4KIDwvcmRmOlJERj4KPC94OnhtcG1ldGE+CiAgICAgICAgICAgICAgICAgICAgICAgICAgICAgICAgICAgICAgICAgICAgICAgICAgICAgICAgICAgICAgICAgICAgICAgICAgICAgICAgICAgICAgICAgICAgICAgICAgICAKICAgICAgICAgICAgICAgICAgICAgICAgICAgICAgICAgICAgICAgICAgICAgICAgICAgICAgICAgICAgICAgICAgICAgICAgICAgICAgICAgICAgICAgICAgICAgICAgICAgIAogICAgICAgICAgICAgICAgICAgICAgICAgICAgICAgICAgICAgICAgICAgICAgICAgICAgICAgICAgICAgICAgICAgICAgICAgICAgICAgICAgICAgICAgICAgICAgICAgICAgCiAgICAgICAgICAgICAgICAgICAgICAgICAgICAgICAgICAgICAgICAgICAgICAgICAgICAgICAgICAgICAgICAgICAgICAgICAgICAgICAgICAgICAgICAgICAgICAgICAgICAKICAgICAgICAgICAgICAgICAgICAgICAgICAgICAgICAgICAgICAgICAgICAgICAgICAgICAgICAgICAgICAgICAgICAgICAgICAgICAgICAgICAgICAgICAgICAgICAgICAgIAogICAgICAgICAgICAgICAgICAgICAgICAgICAgICAgICAgICAgICAgICAgICAgICAgICAgICAgICAgICAgICAgICAgICAgICAgICAgICAgICAgICAgICAgICAgICAgICAgICAgCiAgICAgICAgICAgICAgICAgICAgICAgICAgICAgICAgICAgICAgICAgICAgICAgICAgICAgICAgICAgICAgICAgICAgICAgICAgICAgICAgICAgICAgICAgICAgICAgICAgICAKICAgICAgICAgICAgICAgICAgICAgICAgICAgICAgICAgICAgICAgICAgICAgICAgICAgICAgICAgICAgICAgICAgICAgICAgICAgICAgICAgICAgICAgICAgICAgICAgICAgIAogICAgICAgICAgICAgICAgICAgICAgICAgICAgICAgICAgICAgICAgICAgICAgICAgICAgICAgICAgICAgICAgICAgICAgICAgICAgICAgICAgICAgICAgICAgICAgICAgICAgCiAgICAgICAgICAgICAgICAgICAgICAgICAgICAgICAgICAgICAgICAgICAgICAgICAgICAgICAgICAgICAgICAgICAgICAgICAgICAgICAgICAgICAgICAgICAgICAgICAgICAKICAgICAgICAgICAgICAgICAgICAgICAgICAgICAgICAgICAgICAgICAgICAgICAgICAgICAgICAgICAgICAgICAgICAgICAgICAgICAgICAgICAgICAgICAgICAgICAgICAgIAogICAgICAgICAgICAgICAgICAgICAgICAgICAgICAgICAgICAgICAgICAgICAgICAgICAgICAgICAgICAgICAgICAgICAgICAgICAgICAgICAgICAgICAgICAgICAgICAgICAgCiAgICAgICAgICAgICAgICAgICAgICAgICAgICAgICAgICAgICAgICAgICAgICAgICAgICAgICAgICAgICAgICAgICAgICAgICAgICAgICAgICAgICAgICAgICAgICAgICAgICAKICAgICAgICAgICAgICAgICAgICAgICAgICAgICAgICAgICAgICAgICAgICAgICAgICAgICAgICAgICAgICAgICAgICAgICAgICAgICAgICAgICAgICAgICAgICAgICAgICAgIAogICAgICAgICAgICAgICAgICAgICAgICAgICAgICAgICAgICAgICAgICAgICAgICAgICAgICAgICAgICAgICAgICAgICAgICAgICAgICAgICAgICAgICAgICAgICAgICAgICAgCiAgICAgICAgICAgICAgICAgICAgICAgICAgICAgICAgICAgICAgICAgICAgICAgICAgICAgICAgICAgICAgICAgICAgICAgICAgICAgICAgICAgICAgICAgICAgICAgICAgICAKICAgICAgICAgICAgICAgICAgICAgICAgICAgICAgICAgICAgICAgICAgICAgICAgICAgICAgICAgICAgICAgICAgICAgICAgICAgICAgICAgICAgICAgICAgICAgICAgICAgIAogICAgICAgICAgICAgICAgICAgICAgICAgICAgICAgICAgICAgICAgICAgICAgICAgICAgICAgICAgICAgICAgICAgICAgICAgICAgICAgICAgICAgICAgICAgICAgICAgICAgCiAgICAgICAgICAgICAgICAgICAgICAgICAgICAgICAgICAgICAgICAgICAgICAgICAgICAgICAgICAgICAgICAgICAgICAgICAgICAgICAgICAgICAgICAgICAgICAgICAgICAKICAgICAgICAgICAgICAgICAgICAgICAgICAgICAgICAgICAgICAgICAgICAgICAgICAgICAgICAgICAgICAgICAgICAgICAgICAgICAgICAgICAgICAgICAgICAgICAgICAgIAogICAgICAgICAgICAgICAgICAgICAgICAgICAKPD94cGFja2V0IGVuZD0idyI/PqTog8kAAAAGYktHRABYAKUAkambAywAAAAJcEhZcwAACxMAAAsTAQCanBgAAAAHdElNRQfnChgNMQdIaecJAAAKxUlEQVR42u3a0VXjMBBAUVknLaWNVEI5qYQ2KAr+4Cd4iVZ2Zkb3VrAna8lvxrQGAAAAAAAAAAAAAAAAAAAAAAAAAAAAAAAAAAAAAAAAAAAAAAAAAAAAAAAAAAAAAAAAAAAAAAAAAAAAAAAAAAAAAAAAAAAAAAAAAAAAAAAAAAAAAAAAAAAAAAAAAAAAAAAAAAAAAAAAAAAAAAAAAAAAAAAAAAAAAAAAAAAAAAAAAAAAAAAAAAAAAAAAAAAAAEBQm5+AZ719vH/6FYDs7tebdyBiCYEEIJ4QS4gkANGEWEIoAQgmxBJCCUAwIZYQSgCCCbGEUAIQTIglhBKAYKK+7idAKAGAWAIAAyViCZcAAIglADBYIpZw+AFALAGAAROxhEMPAGIJAAyaiCUcdgAQSwCAgROxBAAgljARAYBYAgCDJ2IJhxsAxBIAGEARSwAAYgkTEACIJQDAICqWcJgBQCwBACCWAOAYtvdiCYcYAMQSAGAwRSw5vACAWAIAEEsAEIxtvljCoQUAsQQAGFQRSw4rACCWAADEEgAEY7svlnBIAUAsAQDQ2uYnqMVWCSCO+/XmPVuAzRIAgFgCgPPZ9oslHEoAEEsAACvzh2dF2CoBxOUPvXOzWQIAEEsA8Dq2/2IJhxAAxBIAwIr8wVlytkoAefhD75xslgAAxBIAwBjrwMR8ggPIx6e4fGyWAAB2qNukbJUA8rJdysVmCQBALAEAjLEGTMgnOID8fIrLw2YJAGCHqk3GVgmgDtulHGyWAADEEgDAGOu/RHyCA6jHp7j4bJYAAHZc/AQ52CqZxsBdBq9hswQAAhKxRDW2SuDsgljC1AHgnkcsAbAa2yXEEqYNFy0AYgkAMByLJQjHVgmcZRBLmDIAQCyBSRScaWfakCyWcGAAQCwBAIZlsQQvZl0PzjaIJUwVACCWwOQJOOOGZrGEAwIAYglMnICzbngWSwAAYglTBAAglkjHWh6ceUO0IVos4UAAgFgCEybg7COWAIAD+PIglnAQTJYAiCUAMDAZqsUSDgAAiCUwUQLuAsQSABCMLxFiyYOPSRIAsQQABihDtljCA+9SBEAsAYBBCrEEAATjy4RY8qCbHAHcEYglAACxxEO2SiZGAO8SsQQABivEErj8AF7HdkksebABMGAhlgAAxBKtNVslEyKAd4tYAgCDFmIJXHYAkdguiSUPMgAGLsQSLjkAEEuLslUCwLtGLAHAqWypEUu43ABALNVnLQpgAPPOEUvgUgNALKHwAfDuEUtwEFslwP2CWAIAEEv8lTUowHlsl7yDxBIuMQAQS4oeAIOZd5FYwuUFAGIJAKASk/9E1p4/bJUA97C7uAqbJQAAsWSaAViBTQpiCZcVAAZ5sQQAEIcNgHKfylYJcC+7m6uxWQIAEEumF5ML4D4CsQQAGOzFEgDAmawplfoUVt6Ae9pdXZXNEgCAWDKtmFQA9xOIJQDAoC+WMLUBgFhS5gAY6hBLAICBXyx5yExrAO4rxBIAYPAXS2BKA9xbiCWUOAAgljCdAVgAWACIJQ8VAIY9xBIAgFjCVAbgHpvPVxOx5GECAMQSpjEAxlkIiCUPEQCGP8QSLhYAEEsAYAg8hK8oYsnDAwCIJUxfAIyzIBBLHhoADIOIJVwkACCWAMBQeAhfVcSShwUAEEuYtgDcd4ilA9kqAeA9iFjClAUAYgkADIkjbJfEkofDhQEAYgkADIuIpYlslQDAe1EsYaoCALEEAIbGGWyXxJKHwQUBAGIJAAyPiCVcDAAcwtcXseQhAADEEgA8y8YdsdRslVwIAHhfiiUAMEwilnARAHCslbdL3X86AIBY4gFbJQB3JWLpIVslAPD+FEsAMInt0trEkoMPAH+24nap+08GAEMmYgkHHgDE0r/YKgGA96lYYpetEoA7FLEEACCWnuUTHAAz2C6t9161WXLAAYDVY8lWCQC8X8USu2yVANypiCUAgOnKl7FPcCYgAO8Y75n/YbMEALBqLCl+APC+FUvs8gkOwB2LWAIAOEzZIvYJzsQD4J3jvTODzRIAwGqxpPBtlQDcuYglACCUqssKsQQAsKPc2tAnOOtgAO8g76GZbJYAAFaJJUVvqwTgDkYsAQChVVteiCUTDQCwQiz5BAeAwdV7WSwBAIiltevVJAPgTkYsAQALqLLMEEsmGACgciz5BAeAQRaxhMMIQEoVlhrdfwAAGGgpGksAQHzZlxtiycQCAFSMJZ/gADDYIpZw+AAoIfOSo/vBAcCAS7FYcugcOgAQSwBg0C0l65eh7ocGACgUSyYTkwkAeWVcenQ/MAAYeCkSSw6ZQwYAYgkADL6lZftS1P2wDhcAUCCWAIA6Mi1Buh8UAM7la0EuNksOFQAglgDAIBxNli9H3Q/pMAEAiWMJAEAs8ZCtEoB7vroMX5C6HxAAIGksAUB1tktiCYcHAMQSAMCo6H920/1w8dgqAbj3iePiJxCKuOBwpwC/8xkOAEAsgYkdzygglgAAxBKY3MGzied1+VhywAEAsQQmIvBMglgCABBLgEkezyKIJQAAsQSY6PEMAmIJAEAsgckezx4glgAAxBKY8MEzB2IJAEAsgUkfPGsglgAAxBJg4sczBmIJAEAsASZ/PFuAWAIAEEtgA4BnChBLAABiCWwCwLMEYgkAQCwB32wE8AyBWAIAEEvAOJsBPDsglgAAxBIwzoYAzwyIJQAAsQSMsynAswJiCQBALAHjbAwAxBIAghrEEuBlCCCWABDSIJYAL0UAxBKAgAbEEng5AiCWAIQzIJbASxIAsQSAYAaxBHhZAoglAIQyiCXASxNALAEgkEEsAV6eAIglAGEMiCXwEgVALAEIYkAsAV6mAGIJQAgDYgnwUgUQSwAIYBBLgJcrgFgCQPgCYgm8ZAEQSwCCFxBL4GULgFgCELqAWAK8dAHEEoDABcQS4OULUMPFTwCCCYDf2SwBAIglAACxBAAglgAAxBIAgFgCABBLAABiCQBALAEAiCUAAMQSAIBYAgAQSwAAYgkAQCwBAIglAACxBAAglgAAxBIAgFgCAEAsAQCIJQAAsQQAIJYAAMQSAIBYAgAQSwAAYgkAQCwBACCWAADEEgCAWAIAEEsAAGIJAEAsAQCIJQAAsQQAIJYAAMQSAABiCQBALAEAiCUAALEEACCWAADEEgCAWAIAEEsAAGIJAACxBAAglgAAxBIAgFgCABBLAABiCQBALAEAiCUAALEEACCWAAAQSwAAYgkAQCwBAIglAACxBAAglgAAxBIAgFgCABBLAACIJQAAsQQAIJYAAMQSAIBYAgAQSwAAYgkAQCwBAIglAACxBACAWAIAEEsAAGIJAEAsAQCIJQAAsQQAIJYAAMQSAIBYAgBALAEAiCUAALEEACCWAADEEgCAWAIAEEsAAGIJAEAsAQCIJQAAxBIAgFgCABBLAABiCQBALAEAiCUAALEEACCWAADEEgCAWAIAQCwBAIglAACxBAAglgAAxBIAgFgCABBLAABiCQBALAEA8G2L+g97+3j/9N8DAGu4X29hm8RmCQBALAEAjNki/+N8igOA+iJ/gmvNZgkAYNcW/R9ouwQAdUXfKqWIJcEEAELplXyGAwDYsWX5h9ouAUAdWbZKqWJJMAGAUBJLogkARJJYEkwAIJTEkmgCAFJHUplYEk0AIJLEkngCAHEEAEA8X3QAuzuk3Kn/AAAAAElFTkSuQmCC;rounded=1;strokeWidth=2;fixDash=0;snapToPoint=0;comic=0;shadow=1;" parent="1" vertex="1">
          <mxGeometry x="340" y="290" width="57" height="48.55" as="geometry" />
        </mxCell>
        <mxCell id="5M5S_JfumDmxrn6SgT74-55" value="" style="shape=image;verticalLabelPosition=bottom;labelBackgroundColor=none;verticalAlign=top;aspect=fixed;imageAspect=0;image=data:image/png,iVBORw0KGgoAAAANSUhEUgAAAksAAAH0CAYAAAAtyWk/AAAAxXpUWHRSYXcgcHJvZmlsZSB0eXBlIGV4aWYAAHjabVBBDsMgDLvzij0hxIGG59CVSvvBnr/QgFS2WcJJ49Y1Ce39OsOjg6MESZvmkjMZpEjhao2So14cSS6+IDvxmC7zcMpo2SqswgXNXuOcjw9mjdW6dDPS5xD2VSjilfXLyPMQeqLeH8OoDCOwC3EYVL8W5aLb/Qp7oxXqJ3QSXWP/PG+2vSPZf8DcEEHGgHgA9IOA2gVjhtiLEcl6QTEmzCS2kH97mggfejhZfNRiE+8AAAGEaUNDUElDQyBwcm9maWxlAAB4nH2RPUjDUBSFT1OlUioOdijFIUN1souKOJYqFsFCaSu06mDy0j9o0pCkuDgKrgUHfxarDi7Oujq4CoLgD4iri5Oii5R4X1JoEeODy/s4753DffcBQrvOVHMgAaiaZWRTSbFQXBUDrwgighBVVGKmns4t5uG5vu7h4/tdnGd53/tzDSslkwE+kTjBdMMi3iCe3bR0zvvEYVaVFOJz4kmDGiR+5Lrs8hvnisMCzwwb+ew8cZhYrPSx3MesaqjEM8QxRdUoXyi4rHDe4qzWm6zbJ39hqKSt5LhONYYUlpBGBiJkNFFDHRbitGukmMjSedLDH3X8GXLJ5KqBkWMBDaiQHD/4H/yerVmennKTQklg8MW2P8aBwC7Qadn297Ftd04A/zNwpfX8jTYw90l6q6fFjoCRbeDiuqfJe8DlDhB50iVDciQ/lVAuA+9n9E1FYPQWCK65c+ue4/QByNOslm+Ag0NgokLZ6x7vHuqf2793uvP7AatVcr2KywxtAAANdmlUWHRYTUw6Y29tLmFkb2JlLnhtcAAAAAAAPD94cGFja2V0IGJlZ2luPSLvu78iIGlkPSJXNU0wTXBDZWhpSHpyZVN6TlRjemtjOWQiPz4KPHg6eG1wbWV0YSB4bWxuczp4PSJhZG9iZTpuczptZXRhLyIgeDp4bXB0az0iWE1QIENvcmUgNC40LjAtRXhpdjIiPgogPHJkZjpSREYgeG1sbnM6cmRmPSJodHRwOi8vd3d3LnczLm9yZy8xOTk5LzAyLzIyLXJkZi1zeW50YXgtbnMjIj4KICA8cmRmOkRlc2NyaXB0aW9uIHJkZjphYm91dD0iIgogICAgeG1sbnM6eG1wTU09Imh0dHA6Ly9ucy5hZG9iZS5jb20veGFwLzEuMC9tbS8iCiAgICB4bWxuczpzdEV2dD0iaHR0cDovL25zLmFkb2JlLmNvbS94YXAvMS4wL3NUeXBlL1Jlc291cmNlRXZlbnQjIgogICAgeG1sbnM6ZGM9Imh0dHA6Ly9wdXJsLm9yZy9kYy9lbGVtZW50cy8xLjEvIgogICAgeG1sbnM6R0lNUD0iaHR0cDovL3d3dy5naW1wLm9yZy94bXAvIgogICAgeG1sbnM6dGlmZj0iaHR0cDovL25zLmFkb2JlLmNvbS90aWZmLzEuMC8iCiAgICB4bWxuczp4bXA9Imh0dHA6Ly9ucy5hZG9iZS5jb20veGFwLzEuMC8iCiAgIHhtcE1NOkRvY3VtZW50SUQ9ImdpbXA6ZG9jaWQ6Z2ltcDplNDc0Y2E5ZS0xNzE3LTQ1N2QtODYwMi0wOGMxMjU0NjdkMjUiCiAgIHhtcE1NOkluc3RhbmNlSUQ9InhtcC5paWQ6ZmUzY2JiNTgtN2MxNS00ZjA4LWEyNmMtZGIwMjVhYjA3YzRlIgogICB4bXBNTTpPcmlnaW5hbERvY3VtZW50SUQ9InhtcC5kaWQ6M2NjY2ZmZGEtNGQ1NC00M2Q1LTkwYjctNDczNWFkMjFkNGZlIgogICBkYzpGb3JtYXQ9ImltYWdlL3BuZyIKICAgR0lNUDpBUEk9IjIuMCIKICAgR0lNUDpQbGF0Zm9ybT0iV2luZG93cyIKICAgR0lNUDpUaW1lU3RhbXA9IjE2OTgxNTUzNDcwNTgxNTgiCiAgIEdJTVA6VmVyc2lvbj0iMi4xMC4zNCIKICAgdGlmZjpPcmllbnRhdGlvbj0iMSIKICAgeG1wOkNyZWF0b3JUb29sPSJHSU1QIDIuMTAiCiAgIHhtcDpNZXRhZGF0YURhdGU9IjIwMjM6MTA6MjRUMTU6NDk6MDQrMDI6MDAiCiAgIHhtcDpNb2RpZnlEYXRlPSIyMDIzOjEwOjI0VDE1OjQ5OjA0KzAyOjAwIj4KICAgPHhtcE1NOkhpc3Rvcnk+CiAgICA8cmRmOlNlcT4KICAgICA8cmRmOmxpCiAgICAgIHN0RXZ0OmFjdGlvbj0ic2F2ZWQiCiAgICAgIHN0RXZ0OmNoYW5nZWQ9Ii8iCiAgICAgIHN0RXZ0Omluc3RhbmNlSUQ9InhtcC5paWQ6YWUyOThhOTAtOGFiYi00OGJmLThjNDYtZDNmZjZkN2YwNjdiIgogICAgICBzdEV2dDpzb2Z0d2FyZUFnZW50PSJHaW1wIDIuMTAgKFdpbmRvd3MpIgogICAgICBzdEV2dDp3aGVuPSIyMDIzLTEwLTI0VDE1OjQ5OjA3Ii8+CiAgICA8L3JkZjpTZXE+CiAgIDwveG1wTU06SGlzdG9yeT4KICA8L3JkZjpEZXNjcmlwdGlvbj4KIDwvcmRmOlJERj4KPC94OnhtcG1ldGE+CiAgICAgICAgICAgICAgICAgICAgICAgICAgICAgICAgICAgICAgICAgICAgICAgICAgICAgICAgICAgICAgICAgICAgICAgICAgICAgICAgICAgICAgICAgICAgICAgICAgICAKICAgICAgICAgICAgICAgICAgICAgICAgICAgICAgICAgICAgICAgICAgICAgICAgICAgICAgICAgICAgICAgICAgICAgICAgICAgICAgICAgICAgICAgICAgICAgICAgICAgIAogICAgICAgICAgICAgICAgICAgICAgICAgICAgICAgICAgICAgICAgICAgICAgICAgICAgICAgICAgICAgICAgICAgICAgICAgICAgICAgICAgICAgICAgICAgICAgICAgICAgCiAgICAgICAgICAgICAgICAgICAgICAgICAgICAgICAgICAgICAgICAgICAgICAgICAgICAgICAgICAgICAgICAgICAgICAgICAgICAgICAgICAgICAgICAgICAgICAgICAgICAKICAgICAgICAgICAgICAgICAgICAgICAgICAgICAgICAgICAgICAgICAgICAgICAgICAgICAgICAgICAgICAgICAgICAgICAgICAgICAgICAgICAgICAgICAgICAgICAgICAgIAogICAgICAgICAgICAgICAgICAgICAgICAgICAgICAgICAgICAgICAgICAgICAgICAgICAgICAgICAgICAgICAgICAgICAgICAgICAgICAgICAgICAgICAgICAgICAgICAgICAgCiAgICAgICAgICAgICAgICAgICAgICAgICAgICAgICAgICAgICAgICAgICAgICAgICAgICAgICAgICAgICAgICAgICAgICAgICAgICAgICAgICAgICAgICAgICAgICAgICAgICAKICAgICAgICAgICAgICAgICAgICAgICAgICAgICAgICAgICAgICAgICAgICAgICAgICAgICAgICAgICAgICAgICAgICAgICAgICAgICAgICAgICAgICAgICAgICAgICAgICAgIAogICAgICAgICAgICAgICAgICAgICAgICAgICAgICAgICAgICAgICAgICAgICAgICAgICAgICAgICAgICAgICAgICAgICAgICAgICAgICAgICAgICAgICAgICAgICAgICAgICAgCiAgICAgICAgICAgICAgICAgICAgICAgICAgICAgICAgICAgICAgICAgICAgICAgICAgICAgICAgICAgICAgICAgICAgICAgICAgICAgICAgICAgICAgICAgICAgICAgICAgICAKICAgICAgICAgICAgICAgICAgICAgICAgICAgICAgICAgICAgICAgICAgICAgICAgICAgICAgICAgICAgICAgICAgICAgICAgICAgICAgICAgICAgICAgICAgICAgICAgICAgIAogICAgICAgICAgICAgICAgICAgICAgICAgICAgICAgICAgICAgICAgICAgICAgICAgICAgICAgICAgICAgICAgICAgICAgICAgICAgICAgICAgICAgICAgICAgICAgICAgICAgCiAgICAgICAgICAgICAgICAgICAgICAgICAgICAgICAgICAgICAgICAgICAgICAgICAgICAgICAgICAgICAgICAgICAgICAgICAgICAgICAgICAgICAgICAgICAgICAgICAgICAKICAgICAgICAgICAgICAgICAgICAgICAgICAgICAgICAgICAgICAgICAgICAgICAgICAgICAgICAgICAgICAgICAgICAgICAgICAgICAgICAgICAgICAgICAgICAgICAgICAgIAogICAgICAgICAgICAgICAgICAgICAgICAgICAgICAgICAgICAgICAgICAgICAgICAgICAgICAgICAgICAgICAgICAgICAgICAgICAgICAgICAgICAgICAgICAgICAgICAgICAgCiAgICAgICAgICAgICAgICAgICAgICAgICAgICAgICAgICAgICAgICAgICAgICAgICAgICAgICAgICAgICAgICAgICAgICAgICAgICAgICAgICAgICAgICAgICAgICAgICAgICAKICAgICAgICAgICAgICAgICAgICAgICAgICAgICAgICAgICAgICAgICAgICAgICAgICAgICAgICAgICAgICAgICAgICAgICAgICAgICAgICAgICAgICAgICAgICAgICAgICAgIAogICAgICAgICAgICAgICAgICAgICAgICAgICAgICAgICAgICAgICAgICAgICAgICAgICAgICAgICAgICAgICAgICAgICAgICAgICAgICAgICAgICAgICAgICAgICAgICAgICAgCiAgICAgICAgICAgICAgICAgICAgICAgICAgICAgICAgICAgICAgICAgICAgICAgICAgICAgICAgICAgICAgICAgICAgICAgICAgICAgICAgICAgICAgICAgICAgICAgICAgICAKICAgICAgICAgICAgICAgICAgICAgICAgICAgICAgICAgICAgICAgICAgICAgICAgICAgICAgICAgICAgICAgICAgICAgICAgICAgICAgICAgICAgICAgICAgICAgICAgICAgIAogICAgICAgICAgICAgICAgICAgICAgICAgICAKPD94cGFja2V0IGVuZD0idyI/PqTog8kAAAAGYktHRABYAKUAkambAywAAAAJcEhZcwAACxMAAAsTAQCanBgAAAAHdElNRQfnChgNMQdIaecJAAAKxUlEQVR42u3a0VXjMBBAUVknLaWNVEI5qYQ2KAr+4Cd4iVZ2Zkb3VrAna8lvxrQGAAAAAAAAAAAAAAAAAAAAAAAAAAAAAAAAAAAAAAAAAAAAAAAAAAAAAAAAAAAAAAAAAAAAAAAAAAAAAAAAAAAAAAAAAAAAAAAAAAAAAAAAAAAAAAAAAAAAAAAAAAAAAAAAAAAAAAAAAAAAAAAAAAAAAAAAAAAAAAAAAAAAAAAAAAAAAAAAAAAAAAAAAAAAAEBQm5+AZ719vH/6FYDs7tebdyBiCYEEIJ4QS4gkANGEWEIoAQgmxBJCCUAwIZYQSgCCCbGEUAIQTIglhBKAYKK+7idAKAGAWAIAAyViCZcAAIglADBYIpZw+AFALAGAAROxhEMPAGIJAAyaiCUcdgAQSwCAgROxBAAgljARAYBYAgCDJ2IJhxsAxBIAGEARSwAAYgkTEACIJQDAICqWcJgBQCwBACCWAOAYtvdiCYcYAMQSAGAwRSw5vACAWAIAEEsAEIxtvljCoQUAsQQAGFQRSw4rACCWAADEEgAEY7svlnBIAUAsAQDQ2uYnqMVWCSCO+/XmPVuAzRIAgFgCgPPZ9oslHEoAEEsAACvzh2dF2CoBxOUPvXOzWQIAEEsA8Dq2/2IJhxAAxBIAwIr8wVlytkoAefhD75xslgAAxBIAwBjrwMR8ggPIx6e4fGyWAAB2qNukbJUA8rJdysVmCQBALAEAjLEGTMgnOID8fIrLw2YJAGCHqk3GVgmgDtulHGyWAADEEgDAGOu/RHyCA6jHp7j4bJYAAHZc/AQ52CqZxsBdBq9hswQAAhKxRDW2SuDsgljC1AHgnkcsAbAa2yXEEqYNFy0AYgkAMByLJQjHVgmcZRBLmDIAQCyBSRScaWfakCyWcGAAQCwBAIZlsQQvZl0PzjaIJUwVACCWwOQJOOOGZrGEAwIAYglMnICzbngWSwAAYglTBAAglkjHWh6ceUO0IVos4UAAgFgCEybg7COWAIAD+PIglnAQTJYAiCUAMDAZqsUSDgAAiCUwUQLuAsQSABCMLxFiyYOPSRIAsQQABihDtljCA+9SBEAsAYBBCrEEAATjy4RY8qCbHAHcEYglAACxxEO2SiZGAO8SsQQABivEErj8AF7HdkksebABMGAhlgAAxBKtNVslEyKAd4tYAgCDFmIJXHYAkdguiSUPMgAGLsQSLjkAEEuLslUCwLtGLAHAqWypEUu43ABALNVnLQpgAPPOEUvgUgNALKHwAfDuEUtwEFslwP2CWAIAEEv8lTUowHlsl7yDxBIuMQAQS4oeAIOZd5FYwuUFAGIJAKASk/9E1p4/bJUA97C7uAqbJQAAsWSaAViBTQpiCZcVAAZ5sQQAEIcNgHKfylYJcC+7m6uxWQIAEEumF5ML4D4CsQQAGOzFEgDAmawplfoUVt6Ae9pdXZXNEgCAWDKtmFQA9xOIJQDAoC+WMLUBgFhS5gAY6hBLAICBXyx5yExrAO4rxBIAYPAXS2BKA9xbiCWUOAAgljCdAVgAWACIJQ8VAIY9xBIAgFjCVAbgHpvPVxOx5GECAMQSpjEAxlkIiCUPEQCGP8QSLhYAEEsAYAg8hK8oYsnDAwCIJUxfAIyzIBBLHhoADIOIJVwkACCWAMBQeAhfVcSShwUAEEuYtgDcd4ilA9kqAeA9iFjClAUAYgkADIkjbJfEkofDhQEAYgkADIuIpYlslQDAe1EsYaoCALEEAIbGGWyXxJKHwQUBAGIJAAyPiCVcDAAcwtcXseQhAADEEgA8y8YdsdRslVwIAHhfiiUAMEwilnARAHCslbdL3X86AIBY4gFbJQB3JWLpIVslAPD+FEsAMInt0trEkoMPAH+24nap+08GAEMmYgkHHgDE0r/YKgGA96lYYpetEoA7FLEEACCWnuUTHAAz2C6t9161WXLAAYDVY8lWCQC8X8USu2yVANypiCUAgOnKl7FPcCYgAO8Y75n/YbMEALBqLCl+APC+FUvs8gkOwB2LWAIAOEzZIvYJzsQD4J3jvTODzRIAwGqxpPBtlQDcuYglACCUqssKsQQAsKPc2tAnOOtgAO8g76GZbJYAAFaJJUVvqwTgDkYsAQChVVteiCUTDQCwQiz5BAeAwdV7WSwBAIiltevVJAPgTkYsAQALqLLMEEsmGACgciz5BAeAQRaxhMMIQEoVlhrdfwAAGGgpGksAQHzZlxtiycQCAFSMJZ/gADDYIpZw+AAoIfOSo/vBAcCAS7FYcugcOgAQSwBg0C0l65eh7ocGACgUSyYTkwkAeWVcenQ/MAAYeCkSSw6ZQwYAYgkADL6lZftS1P2wDhcAUCCWAIA6Mi1Buh8UAM7la0EuNksOFQAglgDAIBxNli9H3Q/pMAEAiWMJAEAs8ZCtEoB7vroMX5C6HxAAIGksAUB1tktiCYcHAMQSAMCo6H920/1w8dgqAbj3iePiJxCKuOBwpwC/8xkOAEAsgYkdzygglgAAxBKY3MGzied1+VhywAEAsQQmIvBMglgCABBLgEkezyKIJQAAsQSY6PEMAmIJAEAsgckezx4glgAAxBKY8MEzB2IJAEAsgUkfPGsglgAAxBJg4sczBmIJAEAsASZ/PFuAWAIAEEtgA4BnChBLAABiCWwCwLMEYgkAQCwB32wE8AyBWAIAEEvAOJsBPDsglgAAxBIwzoYAzwyIJQAAsQSMsynAswJiCQBALAHjbAwAxBIAghrEEuBlCCCWABDSIJYAL0UAxBKAgAbEEng5AiCWAIQzIJbASxIAsQSAYAaxBHhZAoglAIQyiCXASxNALAEgkEEsAV6eAIglAGEMiCXwEgVALAEIYkAsAV6mAGIJQAgDYgnwUgUQSwAIYBBLgJcrgFgCQPgCYgm8ZAEQSwCCFxBL4GULgFgCELqAWAK8dAHEEoDABcQS4OULUMPFTwCCCYDf2SwBAIglAACxBAAglgAAxBIAgFgCABBLAABiCQBALAEAiCUAAMQSAIBYAgAQSwAAYgkAQCwBAIglAACxBAAglgAAxBIAgFgCAEAsAQCIJQAAsQQAIJYAAMQSAIBYAgAQSwAAYgkAQCwBACCWAADEEgCAWAIAEEsAAGIJAEAsAQCIJQAAsQQAIJYAAMQSAABiCQBALAEAiCUAALEEACCWAADEEgCAWAIAEEsAAGIJAACxBAAglgAAxBIAgFgCABBLAABiCQBALAEAiCUAALEEACCWAAAQSwAAYgkAQCwBAIglAACxBAAglgAAxBIAgFgCABBLAACIJQAAsQQAIJYAAMQSAIBYAgAQSwAAYgkAQCwBAIglAACxBACAWAIAEEsAAGIJAEAsAQCIJQAAsQQAIJYAAMQSAIBYAgBALAEAiCUAALEEACCWAADEEgCAWAIAEEsAAGIJAEAsAQCIJQAAxBIAgFgCABBLAABiCQBALAEAiCUAALEEACCWAADEEgCAWAIAQCwBAIglAACxBAAglgAAxBIAgFgCABBLAABiCQBALAEA8G2L+g97+3j/9N8DAGu4X29hm8RmCQBALAEAjNki/+N8igOA+iJ/gmvNZgkAYNcW/R9ouwQAdUXfKqWIJcEEAELplXyGAwDYsWX5h9ouAUAdWbZKqWJJMAGAUBJLogkARJJYEkwAIJTEkmgCAFJHUplYEk0AIJLEkngCAHEEAEA8X3QAuzuk3Kn/AAAAAElFTkSuQmCC;rounded=1;strokeWidth=2;fixDash=0;snapToPoint=0;comic=0;shadow=1;" parent="1" vertex="1">
          <mxGeometry x="250" y="370" width="57" height="48.55" as="geometry" />
        </mxCell>
        <mxCell id="5M5S_JfumDmxrn6SgT74-56" value="" style="shape=image;verticalLabelPosition=bottom;labelBackgroundColor=none;verticalAlign=top;aspect=fixed;imageAspect=0;image=data:image/png,iVBORw0KGgoAAAANSUhEUgAAAksAAAH0CAYAAAAtyWk/AAAAxXpUWHRSYXcgcHJvZmlsZSB0eXBlIGV4aWYAAHjabVBBDsMgDLvzij0hxIGG59CVSvvBnr/QgFS2WcJJ49Y1Ce39OsOjg6MESZvmkjMZpEjhao2So14cSS6+IDvxmC7zcMpo2SqswgXNXuOcjw9mjdW6dDPS5xD2VSjilfXLyPMQeqLeH8OoDCOwC3EYVL8W5aLb/Qp7oxXqJ3QSXWP/PG+2vSPZf8DcEEHGgHgA9IOA2gVjhtiLEcl6QTEmzCS2kH97mggfejhZfNRiE+8AAAGEaUNDUElDQyBwcm9maWxlAAB4nH2RPUjDUBSFT1OlUioOdijFIUN1souKOJYqFsFCaSu06mDy0j9o0pCkuDgKrgUHfxarDi7Oujq4CoLgD4iri5Oii5R4X1JoEeODy/s4753DffcBQrvOVHMgAaiaZWRTSbFQXBUDrwgighBVVGKmns4t5uG5vu7h4/tdnGd53/tzDSslkwE+kTjBdMMi3iCe3bR0zvvEYVaVFOJz4kmDGiR+5Lrs8hvnisMCzwwb+ew8cZhYrPSx3MesaqjEM8QxRdUoXyi4rHDe4qzWm6zbJ39hqKSt5LhONYYUlpBGBiJkNFFDHRbitGukmMjSedLDH3X8GXLJ5KqBkWMBDaiQHD/4H/yerVmennKTQklg8MW2P8aBwC7Qadn297Ftd04A/zNwpfX8jTYw90l6q6fFjoCRbeDiuqfJe8DlDhB50iVDciQ/lVAuA+9n9E1FYPQWCK65c+ue4/QByNOslm+Ag0NgokLZ6x7vHuqf2793uvP7AatVcr2KywxtAAANdmlUWHRYTUw6Y29tLmFkb2JlLnhtcAAAAAAAPD94cGFja2V0IGJlZ2luPSLvu78iIGlkPSJXNU0wTXBDZWhpSHpyZVN6TlRjemtjOWQiPz4KPHg6eG1wbWV0YSB4bWxuczp4PSJhZG9iZTpuczptZXRhLyIgeDp4bXB0az0iWE1QIENvcmUgNC40LjAtRXhpdjIiPgogPHJkZjpSREYgeG1sbnM6cmRmPSJodHRwOi8vd3d3LnczLm9yZy8xOTk5LzAyLzIyLXJkZi1zeW50YXgtbnMjIj4KICA8cmRmOkRlc2NyaXB0aW9uIHJkZjphYm91dD0iIgogICAgeG1sbnM6eG1wTU09Imh0dHA6Ly9ucy5hZG9iZS5jb20veGFwLzEuMC9tbS8iCiAgICB4bWxuczpzdEV2dD0iaHR0cDovL25zLmFkb2JlLmNvbS94YXAvMS4wL3NUeXBlL1Jlc291cmNlRXZlbnQjIgogICAgeG1sbnM6ZGM9Imh0dHA6Ly9wdXJsLm9yZy9kYy9lbGVtZW50cy8xLjEvIgogICAgeG1sbnM6R0lNUD0iaHR0cDovL3d3dy5naW1wLm9yZy94bXAvIgogICAgeG1sbnM6dGlmZj0iaHR0cDovL25zLmFkb2JlLmNvbS90aWZmLzEuMC8iCiAgICB4bWxuczp4bXA9Imh0dHA6Ly9ucy5hZG9iZS5jb20veGFwLzEuMC8iCiAgIHhtcE1NOkRvY3VtZW50SUQ9ImdpbXA6ZG9jaWQ6Z2ltcDplNDc0Y2E5ZS0xNzE3LTQ1N2QtODYwMi0wOGMxMjU0NjdkMjUiCiAgIHhtcE1NOkluc3RhbmNlSUQ9InhtcC5paWQ6ZmUzY2JiNTgtN2MxNS00ZjA4LWEyNmMtZGIwMjVhYjA3YzRlIgogICB4bXBNTTpPcmlnaW5hbERvY3VtZW50SUQ9InhtcC5kaWQ6M2NjY2ZmZGEtNGQ1NC00M2Q1LTkwYjctNDczNWFkMjFkNGZlIgogICBkYzpGb3JtYXQ9ImltYWdlL3BuZyIKICAgR0lNUDpBUEk9IjIuMCIKICAgR0lNUDpQbGF0Zm9ybT0iV2luZG93cyIKICAgR0lNUDpUaW1lU3RhbXA9IjE2OTgxNTUzNDcwNTgxNTgiCiAgIEdJTVA6VmVyc2lvbj0iMi4xMC4zNCIKICAgdGlmZjpPcmllbnRhdGlvbj0iMSIKICAgeG1wOkNyZWF0b3JUb29sPSJHSU1QIDIuMTAiCiAgIHhtcDpNZXRhZGF0YURhdGU9IjIwMjM6MTA6MjRUMTU6NDk6MDQrMDI6MDAiCiAgIHhtcDpNb2RpZnlEYXRlPSIyMDIzOjEwOjI0VDE1OjQ5OjA0KzAyOjAwIj4KICAgPHhtcE1NOkhpc3Rvcnk+CiAgICA8cmRmOlNlcT4KICAgICA8cmRmOmxpCiAgICAgIHN0RXZ0OmFjdGlvbj0ic2F2ZWQiCiAgICAgIHN0RXZ0OmNoYW5nZWQ9Ii8iCiAgICAgIHN0RXZ0Omluc3RhbmNlSUQ9InhtcC5paWQ6YWUyOThhOTAtOGFiYi00OGJmLThjNDYtZDNmZjZkN2YwNjdiIgogICAgICBzdEV2dDpzb2Z0d2FyZUFnZW50PSJHaW1wIDIuMTAgKFdpbmRvd3MpIgogICAgICBzdEV2dDp3aGVuPSIyMDIzLTEwLTI0VDE1OjQ5OjA3Ii8+CiAgICA8L3JkZjpTZXE+CiAgIDwveG1wTU06SGlzdG9yeT4KICA8L3JkZjpEZXNjcmlwdGlvbj4KIDwvcmRmOlJERj4KPC94OnhtcG1ldGE+CiAgICAgICAgICAgICAgICAgICAgICAgICAgICAgICAgICAgICAgICAgICAgICAgICAgICAgICAgICAgICAgICAgICAgICAgICAgICAgICAgICAgICAgICAgICAgICAgICAgICAKICAgICAgICAgICAgICAgICAgICAgICAgICAgICAgICAgICAgICAgICAgICAgICAgICAgICAgICAgICAgICAgICAgICAgICAgICAgICAgICAgICAgICAgICAgICAgICAgICAgIAogICAgICAgICAgICAgICAgICAgICAgICAgICAgICAgICAgICAgICAgICAgICAgICAgICAgICAgICAgICAgICAgICAgICAgICAgICAgICAgICAgICAgICAgICAgICAgICAgICAgCiAgICAgICAgICAgICAgICAgICAgICAgICAgICAgICAgICAgICAgICAgICAgICAgICAgICAgICAgICAgICAgICAgICAgICAgICAgICAgICAgICAgICAgICAgICAgICAgICAgICAKICAgICAgICAgICAgICAgICAgICAgICAgICAgICAgICAgICAgICAgICAgICAgICAgICAgICAgICAgICAgICAgICAgICAgICAgICAgICAgICAgICAgICAgICAgICAgICAgICAgIAogICAgICAgICAgICAgICAgICAgICAgICAgICAgICAgICAgICAgICAgICAgICAgICAgICAgICAgICAgICAgICAgICAgICAgICAgICAgICAgICAgICAgICAgICAgICAgICAgICAgCiAgICAgICAgICAgICAgICAgICAgICAgICAgICAgICAgICAgICAgICAgICAgICAgICAgICAgICAgICAgICAgICAgICAgICAgICAgICAgICAgICAgICAgICAgICAgICAgICAgICAKICAgICAgICAgICAgICAgICAgICAgICAgICAgICAgICAgICAgICAgICAgICAgICAgICAgICAgICAgICAgICAgICAgICAgICAgICAgICAgICAgICAgICAgICAgICAgICAgICAgIAogICAgICAgICAgICAgICAgICAgICAgICAgICAgICAgICAgICAgICAgICAgICAgICAgICAgICAgICAgICAgICAgICAgICAgICAgICAgICAgICAgICAgICAgICAgICAgICAgICAgCiAgICAgICAgICAgICAgICAgICAgICAgICAgICAgICAgICAgICAgICAgICAgICAgICAgICAgICAgICAgICAgICAgICAgICAgICAgICAgICAgICAgICAgICAgICAgICAgICAgICAKICAgICAgICAgICAgICAgICAgICAgICAgICAgICAgICAgICAgICAgICAgICAgICAgICAgICAgICAgICAgICAgICAgICAgICAgICAgICAgICAgICAgICAgICAgICAgICAgICAgIAogICAgICAgICAgICAgICAgICAgICAgICAgICAgICAgICAgICAgICAgICAgICAgICAgICAgICAgICAgICAgICAgICAgICAgICAgICAgICAgICAgICAgICAgICAgICAgICAgICAgCiAgICAgICAgICAgICAgICAgICAgICAgICAgICAgICAgICAgICAgICAgICAgICAgICAgICAgICAgICAgICAgICAgICAgICAgICAgICAgICAgICAgICAgICAgICAgICAgICAgICAKICAgICAgICAgICAgICAgICAgICAgICAgICAgICAgICAgICAgICAgICAgICAgICAgICAgICAgICAgICAgICAgICAgICAgICAgICAgICAgICAgICAgICAgICAgICAgICAgICAgIAogICAgICAgICAgICAgICAgICAgICAgICAgICAgICAgICAgICAgICAgICAgICAgICAgICAgICAgICAgICAgICAgICAgICAgICAgICAgICAgICAgICAgICAgICAgICAgICAgICAgCiAgICAgICAgICAgICAgICAgICAgICAgICAgICAgICAgICAgICAgICAgICAgICAgICAgICAgICAgICAgICAgICAgICAgICAgICAgICAgICAgICAgICAgICAgICAgICAgICAgICAKICAgICAgICAgICAgICAgICAgICAgICAgICAgICAgICAgICAgICAgICAgICAgICAgICAgICAgICAgICAgICAgICAgICAgICAgICAgICAgICAgICAgICAgICAgICAgICAgICAgIAogICAgICAgICAgICAgICAgICAgICAgICAgICAgICAgICAgICAgICAgICAgICAgICAgICAgICAgICAgICAgICAgICAgICAgICAgICAgICAgICAgICAgICAgICAgICAgICAgICAgCiAgICAgICAgICAgICAgICAgICAgICAgICAgICAgICAgICAgICAgICAgICAgICAgICAgICAgICAgICAgICAgICAgICAgICAgICAgICAgICAgICAgICAgICAgICAgICAgICAgICAKICAgICAgICAgICAgICAgICAgICAgICAgICAgICAgICAgICAgICAgICAgICAgICAgICAgICAgICAgICAgICAgICAgICAgICAgICAgICAgICAgICAgICAgICAgICAgICAgICAgIAogICAgICAgICAgICAgICAgICAgICAgICAgICAKPD94cGFja2V0IGVuZD0idyI/PqTog8kAAAAGYktHRABYAKUAkambAywAAAAJcEhZcwAACxMAAAsTAQCanBgAAAAHdElNRQfnChgNMQdIaecJAAAKxUlEQVR42u3a0VXjMBBAUVknLaWNVEI5qYQ2KAr+4Cd4iVZ2Zkb3VrAna8lvxrQGAAAAAAAAAAAAAAAAAAAAAAAAAAAAAAAAAAAAAAAAAAAAAAAAAAAAAAAAAAAAAAAAAAAAAAAAAAAAAAAAAAAAAAAAAAAAAAAAAAAAAAAAAAAAAAAAAAAAAAAAAAAAAAAAAAAAAAAAAAAAAAAAAAAAAAAAAAAAAAAAAAAAAAAAAAAAAAAAAAAAAAAAAAAAAEBQm5+AZ719vH/6FYDs7tebdyBiCYEEIJ4QS4gkANGEWEIoAQgmxBJCCUAwIZYQSgCCCbGEUAIQTIglhBKAYKK+7idAKAGAWAIAAyViCZcAAIglADBYIpZw+AFALAGAAROxhEMPAGIJAAyaiCUcdgAQSwCAgROxBAAgljARAYBYAgCDJ2IJhxsAxBIAGEARSwAAYgkTEACIJQDAICqWcJgBQCwBACCWAOAYtvdiCYcYAMQSAGAwRSw5vACAWAIAEEsAEIxtvljCoQUAsQQAGFQRSw4rACCWAADEEgAEY7svlnBIAUAsAQDQ2uYnqMVWCSCO+/XmPVuAzRIAgFgCgPPZ9oslHEoAEEsAACvzh2dF2CoBxOUPvXOzWQIAEEsA8Dq2/2IJhxAAxBIAwIr8wVlytkoAefhD75xslgAAxBIAwBjrwMR8ggPIx6e4fGyWAAB2qNukbJUA8rJdysVmCQBALAEAjLEGTMgnOID8fIrLw2YJAGCHqk3GVgmgDtulHGyWAADEEgDAGOu/RHyCA6jHp7j4bJYAAHZc/AQ52CqZxsBdBq9hswQAAhKxRDW2SuDsgljC1AHgnkcsAbAa2yXEEqYNFy0AYgkAMByLJQjHVgmcZRBLmDIAQCyBSRScaWfakCyWcGAAQCwBAIZlsQQvZl0PzjaIJUwVACCWwOQJOOOGZrGEAwIAYglMnICzbngWSwAAYglTBAAglkjHWh6ceUO0IVos4UAAgFgCEybg7COWAIAD+PIglnAQTJYAiCUAMDAZqsUSDgAAiCUwUQLuAsQSABCMLxFiyYOPSRIAsQQABihDtljCA+9SBEAsAYBBCrEEAATjy4RY8qCbHAHcEYglAACxxEO2SiZGAO8SsQQABivEErj8AF7HdkksebABMGAhlgAAxBKtNVslEyKAd4tYAgCDFmIJXHYAkdguiSUPMgAGLsQSLjkAEEuLslUCwLtGLAHAqWypEUu43ABALNVnLQpgAPPOEUvgUgNALKHwAfDuEUtwEFslwP2CWAIAEEv8lTUowHlsl7yDxBIuMQAQS4oeAIOZd5FYwuUFAGIJAKASk/9E1p4/bJUA97C7uAqbJQAAsWSaAViBTQpiCZcVAAZ5sQQAEIcNgHKfylYJcC+7m6uxWQIAEEumF5ML4D4CsQQAGOzFEgDAmawplfoUVt6Ae9pdXZXNEgCAWDKtmFQA9xOIJQDAoC+WMLUBgFhS5gAY6hBLAICBXyx5yExrAO4rxBIAYPAXS2BKA9xbiCWUOAAgljCdAVgAWACIJQ8VAIY9xBIAgFjCVAbgHpvPVxOx5GECAMQSpjEAxlkIiCUPEQCGP8QSLhYAEEsAYAg8hK8oYsnDAwCIJUxfAIyzIBBLHhoADIOIJVwkACCWAMBQeAhfVcSShwUAEEuYtgDcd4ilA9kqAeA9iFjClAUAYgkADIkjbJfEkofDhQEAYgkADIuIpYlslQDAe1EsYaoCALEEAIbGGWyXxJKHwQUBAGIJAAyPiCVcDAAcwtcXseQhAADEEgA8y8YdsdRslVwIAHhfiiUAMEwilnARAHCslbdL3X86AIBY4gFbJQB3JWLpIVslAPD+FEsAMInt0trEkoMPAH+24nap+08GAEMmYgkHHgDE0r/YKgGA96lYYpetEoA7FLEEACCWnuUTHAAz2C6t9161WXLAAYDVY8lWCQC8X8USu2yVANypiCUAgOnKl7FPcCYgAO8Y75n/YbMEALBqLCl+APC+FUvs8gkOwB2LWAIAOEzZIvYJzsQD4J3jvTODzRIAwGqxpPBtlQDcuYglACCUqssKsQQAsKPc2tAnOOtgAO8g76GZbJYAAFaJJUVvqwTgDkYsAQChVVteiCUTDQCwQiz5BAeAwdV7WSwBAIiltevVJAPgTkYsAQALqLLMEEsmGACgciz5BAeAQRaxhMMIQEoVlhrdfwAAGGgpGksAQHzZlxtiycQCAFSMJZ/gADDYIpZw+AAoIfOSo/vBAcCAS7FYcugcOgAQSwBg0C0l65eh7ocGACgUSyYTkwkAeWVcenQ/MAAYeCkSSw6ZQwYAYgkADL6lZftS1P2wDhcAUCCWAIA6Mi1Buh8UAM7la0EuNksOFQAglgDAIBxNli9H3Q/pMAEAiWMJAEAs8ZCtEoB7vroMX5C6HxAAIGksAUB1tktiCYcHAMQSAMCo6H920/1w8dgqAbj3iePiJxCKuOBwpwC/8xkOAEAsgYkdzygglgAAxBKY3MGzied1+VhywAEAsQQmIvBMglgCABBLgEkezyKIJQAAsQSY6PEMAmIJAEAsgckezx4glgAAxBKY8MEzB2IJAEAsgUkfPGsglgAAxBJg4sczBmIJAEAsASZ/PFuAWAIAEEtgA4BnChBLAABiCWwCwLMEYgkAQCwB32wE8AyBWAIAEEvAOJsBPDsglgAAxBIwzoYAzwyIJQAAsQSMsynAswJiCQBALAHjbAwAxBIAghrEEuBlCCCWABDSIJYAL0UAxBKAgAbEEng5AiCWAIQzIJbASxIAsQSAYAaxBHhZAoglAIQyiCXASxNALAEgkEEsAV6eAIglAGEMiCXwEgVALAEIYkAsAV6mAGIJQAgDYgnwUgUQSwAIYBBLgJcrgFgCQPgCYgm8ZAEQSwCCFxBL4GULgFgCELqAWAK8dAHEEoDABcQS4OULUMPFTwCCCYDf2SwBAIglAACxBAAglgAAxBIAgFgCABBLAABiCQBALAEAiCUAAMQSAIBYAgAQSwAAYgkAQCwBAIglAACxBAAglgAAxBIAgFgCAEAsAQCIJQAAsQQAIJYAAMQSAIBYAgAQSwAAYgkAQCwBACCWAADEEgCAWAIAEEsAAGIJAEAsAQCIJQAAsQQAIJYAAMQSAABiCQBALAEAiCUAALEEACCWAADEEgCAWAIAEEsAAGIJAACxBAAglgAAxBIAgFgCABBLAABiCQBALAEAiCUAALEEACCWAAAQSwAAYgkAQCwBAIglAACxBAAglgAAxBIAgFgCABBLAACIJQAAsQQAIJYAAMQSAIBYAgAQSwAAYgkAQCwBAIglAACxBACAWAIAEEsAAGIJAEAsAQCIJQAAsQQAIJYAAMQSAIBYAgBALAEAiCUAALEEACCWAADEEgCAWAIAEEsAAGIJAEAsAQCIJQAAxBIAgFgCABBLAABiCQBALAEAiCUAALEEACCWAADEEgCAWAIAQCwBAIglAACxBAAglgAAxBIAgFgCABBLAABiCQBALAEA8G2L+g97+3j/9N8DAGu4X29hm8RmCQBALAEAjNki/+N8igOA+iJ/gmvNZgkAYNcW/R9ouwQAdUXfKqWIJcEEAELplXyGAwDYsWX5h9ouAUAdWbZKqWJJMAGAUBJLogkARJJYEkwAIJTEkmgCAFJHUplYEk0AIJLEkngCAHEEAEA8X3QAuzuk3Kn/AAAAAElFTkSuQmCC;rounded=1;autosize=0;treeMoving=0;strokeWidth=2;fixDash=0;snapToPoint=0;comic=0;shadow=1;" parent="1" vertex="1">
          <mxGeometry x="340" y="290" width="57" height="48.55" as="geometry" />
        </mxCell>
        <mxCell id="5M5S_JfumDmxrn6SgT74-57" value="" style="shape=image;verticalLabelPosition=bottom;labelBackgroundColor=none;verticalAlign=top;aspect=fixed;imageAspect=0;image=data:image/png,iVBORw0KGgoAAAANSUhEUgAAAksAAAH0CAYAAAAtyWk/AAAAxXpUWHRSYXcgcHJvZmlsZSB0eXBlIGV4aWYAAHjabVBBDsMgDLvzij0hxIGG59CVSvvBnr/QgFS2WcJJ49Y1Ce39OsOjg6MESZvmkjMZpEjhao2So14cSS6+IDvxmC7zcMpo2SqswgXNXuOcjw9mjdW6dDPS5xD2VSjilfXLyPMQeqLeH8OoDCOwC3EYVL8W5aLb/Qp7oxXqJ3QSXWP/PG+2vSPZf8DcEEHGgHgA9IOA2gVjhtiLEcl6QTEmzCS2kH97mggfejhZfNRiE+8AAAGEaUNDUElDQyBwcm9maWxlAAB4nH2RPUjDUBSFT1OlUioOdijFIUN1souKOJYqFsFCaSu06mDy0j9o0pCkuDgKrgUHfxarDi7Oujq4CoLgD4iri5Oii5R4X1JoEeODy/s4753DffcBQrvOVHMgAaiaZWRTSbFQXBUDrwgighBVVGKmns4t5uG5vu7h4/tdnGd53/tzDSslkwE+kTjBdMMi3iCe3bR0zvvEYVaVFOJz4kmDGiR+5Lrs8hvnisMCzwwb+ew8cZhYrPSx3MesaqjEM8QxRdUoXyi4rHDe4qzWm6zbJ39hqKSt5LhONYYUlpBGBiJkNFFDHRbitGukmMjSedLDH3X8GXLJ5KqBkWMBDaiQHD/4H/yerVmennKTQklg8MW2P8aBwC7Qadn297Ftd04A/zNwpfX8jTYw90l6q6fFjoCRbeDiuqfJe8DlDhB50iVDciQ/lVAuA+9n9E1FYPQWCK65c+ue4/QByNOslm+Ag0NgokLZ6x7vHuqf2793uvP7AatVcr2KywxtAAANdmlUWHRYTUw6Y29tLmFkb2JlLnhtcAAAAAAAPD94cGFja2V0IGJlZ2luPSLvu78iIGlkPSJXNU0wTXBDZWhpSHpyZVN6TlRjemtjOWQiPz4KPHg6eG1wbWV0YSB4bWxuczp4PSJhZG9iZTpuczptZXRhLyIgeDp4bXB0az0iWE1QIENvcmUgNC40LjAtRXhpdjIiPgogPHJkZjpSREYgeG1sbnM6cmRmPSJodHRwOi8vd3d3LnczLm9yZy8xOTk5LzAyLzIyLXJkZi1zeW50YXgtbnMjIj4KICA8cmRmOkRlc2NyaXB0aW9uIHJkZjphYm91dD0iIgogICAgeG1sbnM6eG1wTU09Imh0dHA6Ly9ucy5hZG9iZS5jb20veGFwLzEuMC9tbS8iCiAgICB4bWxuczpzdEV2dD0iaHR0cDovL25zLmFkb2JlLmNvbS94YXAvMS4wL3NUeXBlL1Jlc291cmNlRXZlbnQjIgogICAgeG1sbnM6ZGM9Imh0dHA6Ly9wdXJsLm9yZy9kYy9lbGVtZW50cy8xLjEvIgogICAgeG1sbnM6R0lNUD0iaHR0cDovL3d3dy5naW1wLm9yZy94bXAvIgogICAgeG1sbnM6dGlmZj0iaHR0cDovL25zLmFkb2JlLmNvbS90aWZmLzEuMC8iCiAgICB4bWxuczp4bXA9Imh0dHA6Ly9ucy5hZG9iZS5jb20veGFwLzEuMC8iCiAgIHhtcE1NOkRvY3VtZW50SUQ9ImdpbXA6ZG9jaWQ6Z2ltcDplNDc0Y2E5ZS0xNzE3LTQ1N2QtODYwMi0wOGMxMjU0NjdkMjUiCiAgIHhtcE1NOkluc3RhbmNlSUQ9InhtcC5paWQ6ZmUzY2JiNTgtN2MxNS00ZjA4LWEyNmMtZGIwMjVhYjA3YzRlIgogICB4bXBNTTpPcmlnaW5hbERvY3VtZW50SUQ9InhtcC5kaWQ6M2NjY2ZmZGEtNGQ1NC00M2Q1LTkwYjctNDczNWFkMjFkNGZlIgogICBkYzpGb3JtYXQ9ImltYWdlL3BuZyIKICAgR0lNUDpBUEk9IjIuMCIKICAgR0lNUDpQbGF0Zm9ybT0iV2luZG93cyIKICAgR0lNUDpUaW1lU3RhbXA9IjE2OTgxNTUzNDcwNTgxNTgiCiAgIEdJTVA6VmVyc2lvbj0iMi4xMC4zNCIKICAgdGlmZjpPcmllbnRhdGlvbj0iMSIKICAgeG1wOkNyZWF0b3JUb29sPSJHSU1QIDIuMTAiCiAgIHhtcDpNZXRhZGF0YURhdGU9IjIwMjM6MTA6MjRUMTU6NDk6MDQrMDI6MDAiCiAgIHhtcDpNb2RpZnlEYXRlPSIyMDIzOjEwOjI0VDE1OjQ5OjA0KzAyOjAwIj4KICAgPHhtcE1NOkhpc3Rvcnk+CiAgICA8cmRmOlNlcT4KICAgICA8cmRmOmxpCiAgICAgIHN0RXZ0OmFjdGlvbj0ic2F2ZWQiCiAgICAgIHN0RXZ0OmNoYW5nZWQ9Ii8iCiAgICAgIHN0RXZ0Omluc3RhbmNlSUQ9InhtcC5paWQ6YWUyOThhOTAtOGFiYi00OGJmLThjNDYtZDNmZjZkN2YwNjdiIgogICAgICBzdEV2dDpzb2Z0d2FyZUFnZW50PSJHaW1wIDIuMTAgKFdpbmRvd3MpIgogICAgICBzdEV2dDp3aGVuPSIyMDIzLTEwLTI0VDE1OjQ5OjA3Ii8+CiAgICA8L3JkZjpTZXE+CiAgIDwveG1wTU06SGlzdG9yeT4KICA8L3JkZjpEZXNjcmlwdGlvbj4KIDwvcmRmOlJERj4KPC94OnhtcG1ldGE+CiAgICAgICAgICAgICAgICAgICAgICAgICAgICAgICAgICAgICAgICAgICAgICAgICAgICAgICAgICAgICAgICAgICAgICAgICAgICAgICAgICAgICAgICAgICAgICAgICAgICAKICAgICAgICAgICAgICAgICAgICAgICAgICAgICAgICAgICAgICAgICAgICAgICAgICAgICAgICAgICAgICAgICAgICAgICAgICAgICAgICAgICAgICAgICAgICAgICAgICAgIAogICAgICAgICAgICAgICAgICAgICAgICAgICAgICAgICAgICAgICAgICAgICAgICAgICAgICAgICAgICAgICAgICAgICAgICAgICAgICAgICAgICAgICAgICAgICAgICAgICAgCiAgICAgICAgICAgICAgICAgICAgICAgICAgICAgICAgICAgICAgICAgICAgICAgICAgICAgICAgICAgICAgICAgICAgICAgICAgICAgICAgICAgICAgICAgICAgICAgICAgICAKICAgICAgICAgICAgICAgICAgICAgICAgICAgICAgICAgICAgICAgICAgICAgICAgICAgICAgICAgICAgICAgICAgICAgICAgICAgICAgICAgICAgICAgICAgICAgICAgICAgIAogICAgICAgICAgICAgICAgICAgICAgICAgICAgICAgICAgICAgICAgICAgICAgICAgICAgICAgICAgICAgICAgICAgICAgICAgICAgICAgICAgICAgICAgICAgICAgICAgICAgCiAgICAgICAgICAgICAgICAgICAgICAgICAgICAgICAgICAgICAgICAgICAgICAgICAgICAgICAgICAgICAgICAgICAgICAgICAgICAgICAgICAgICAgICAgICAgICAgICAgICAKICAgICAgICAgICAgICAgICAgICAgICAgICAgICAgICAgICAgICAgICAgICAgICAgICAgICAgICAgICAgICAgICAgICAgICAgICAgICAgICAgICAgICAgICAgICAgICAgICAgIAogICAgICAgICAgICAgICAgICAgICAgICAgICAgICAgICAgICAgICAgICAgICAgICAgICAgICAgICAgICAgICAgICAgICAgICAgICAgICAgICAgICAgICAgICAgICAgICAgICAgCiAgICAgICAgICAgICAgICAgICAgICAgICAgICAgICAgICAgICAgICAgICAgICAgICAgICAgICAgICAgICAgICAgICAgICAgICAgICAgICAgICAgICAgICAgICAgICAgICAgICAKICAgICAgICAgICAgICAgICAgICAgICAgICAgICAgICAgICAgICAgICAgICAgICAgICAgICAgICAgICAgICAgICAgICAgICAgICAgICAgICAgICAgICAgICAgICAgICAgICAgIAogICAgICAgICAgICAgICAgICAgICAgICAgICAgICAgICAgICAgICAgICAgICAgICAgICAgICAgICAgICAgICAgICAgICAgICAgICAgICAgICAgICAgICAgICAgICAgICAgICAgCiAgICAgICAgICAgICAgICAgICAgICAgICAgICAgICAgICAgICAgICAgICAgICAgICAgICAgICAgICAgICAgICAgICAgICAgICAgICAgICAgICAgICAgICAgICAgICAgICAgICAKICAgICAgICAgICAgICAgICAgICAgICAgICAgICAgICAgICAgICAgICAgICAgICAgICAgICAgICAgICAgICAgICAgICAgICAgICAgICAgICAgICAgICAgICAgICAgICAgICAgIAogICAgICAgICAgICAgICAgICAgICAgICAgICAgICAgICAgICAgICAgICAgICAgICAgICAgICAgICAgICAgICAgICAgICAgICAgICAgICAgICAgICAgICAgICAgICAgICAgICAgCiAgICAgICAgICAgICAgICAgICAgICAgICAgICAgICAgICAgICAgICAgICAgICAgICAgICAgICAgICAgICAgICAgICAgICAgICAgICAgICAgICAgICAgICAgICAgICAgICAgICAKICAgICAgICAgICAgICAgICAgICAgICAgICAgICAgICAgICAgICAgICAgICAgICAgICAgICAgICAgICAgICAgICAgICAgICAgICAgICAgICAgICAgICAgICAgICAgICAgICAgIAogICAgICAgICAgICAgICAgICAgICAgICAgICAgICAgICAgICAgICAgICAgICAgICAgICAgICAgICAgICAgICAgICAgICAgICAgICAgICAgICAgICAgICAgICAgICAgICAgICAgCiAgICAgICAgICAgICAgICAgICAgICAgICAgICAgICAgICAgICAgICAgICAgICAgICAgICAgICAgICAgICAgICAgICAgICAgICAgICAgICAgICAgICAgICAgICAgICAgICAgICAKICAgICAgICAgICAgICAgICAgICAgICAgICAgICAgICAgICAgICAgICAgICAgICAgICAgICAgICAgICAgICAgICAgICAgICAgICAgICAgICAgICAgICAgICAgICAgICAgICAgIAogICAgICAgICAgICAgICAgICAgICAgICAgICAKPD94cGFja2V0IGVuZD0idyI/PqTog8kAAAAGYktHRABYAKUAkambAywAAAAJcEhZcwAACxMAAAsTAQCanBgAAAAHdElNRQfnChgNMQdIaecJAAAKxUlEQVR42u3a0VXjMBBAUVknLaWNVEI5qYQ2KAr+4Cd4iVZ2Zkb3VrAna8lvxrQGAAAAAAAAAAAAAAAAAAAAAAAAAAAAAAAAAAAAAAAAAAAAAAAAAAAAAAAAAAAAAAAAAAAAAAAAAAAAAAAAAAAAAAAAAAAAAAAAAAAAAAAAAAAAAAAAAAAAAAAAAAAAAAAAAAAAAAAAAAAAAAAAAAAAAAAAAAAAAAAAAAAAAAAAAAAAAAAAAAAAAAAAAAAAAEBQm5+AZ719vH/6FYDs7tebdyBiCYEEIJ4QS4gkANGEWEIoAQgmxBJCCUAwIZYQSgCCCbGEUAIQTIglhBKAYKK+7idAKAGAWAIAAyViCZcAAIglADBYIpZw+AFALAGAAROxhEMPAGIJAAyaiCUcdgAQSwCAgROxBAAgljARAYBYAgCDJ2IJhxsAxBIAGEARSwAAYgkTEACIJQDAICqWcJgBQCwBACCWAOAYtvdiCYcYAMQSAGAwRSw5vACAWAIAEEsAEIxtvljCoQUAsQQAGFQRSw4rACCWAADEEgAEY7svlnBIAUAsAQDQ2uYnqMVWCSCO+/XmPVuAzRIAgFgCgPPZ9oslHEoAEEsAACvzh2dF2CoBxOUPvXOzWQIAEEsA8Dq2/2IJhxAAxBIAwIr8wVlytkoAefhD75xslgAAxBIAwBjrwMR8ggPIx6e4fGyWAAB2qNukbJUA8rJdysVmCQBALAEAjLEGTMgnOID8fIrLw2YJAGCHqk3GVgmgDtulHGyWAADEEgDAGOu/RHyCA6jHp7j4bJYAAHZc/AQ52CqZxsBdBq9hswQAAhKxRDW2SuDsgljC1AHgnkcsAbAa2yXEEqYNFy0AYgkAMByLJQjHVgmcZRBLmDIAQCyBSRScaWfakCyWcGAAQCwBAIZlsQQvZl0PzjaIJUwVACCWwOQJOOOGZrGEAwIAYglMnICzbngWSwAAYglTBAAglkjHWh6ceUO0IVos4UAAgFgCEybg7COWAIAD+PIglnAQTJYAiCUAMDAZqsUSDgAAiCUwUQLuAsQSABCMLxFiyYOPSRIAsQQABihDtljCA+9SBEAsAYBBCrEEAATjy4RY8qCbHAHcEYglAACxxEO2SiZGAO8SsQQABivEErj8AF7HdkksebABMGAhlgAAxBKtNVslEyKAd4tYAgCDFmIJXHYAkdguiSUPMgAGLsQSLjkAEEuLslUCwLtGLAHAqWypEUu43ABALNVnLQpgAPPOEUvgUgNALKHwAfDuEUtwEFslwP2CWAIAEEv8lTUowHlsl7yDxBIuMQAQS4oeAIOZd5FYwuUFAGIJAKASk/9E1p4/bJUA97C7uAqbJQAAsWSaAViBTQpiCZcVAAZ5sQQAEIcNgHKfylYJcC+7m6uxWQIAEEumF5ML4D4CsQQAGOzFEgDAmawplfoUVt6Ae9pdXZXNEgCAWDKtmFQA9xOIJQDAoC+WMLUBgFhS5gAY6hBLAICBXyx5yExrAO4rxBIAYPAXS2BKA9xbiCWUOAAgljCdAVgAWACIJQ8VAIY9xBIAgFjCVAbgHpvPVxOx5GECAMQSpjEAxlkIiCUPEQCGP8QSLhYAEEsAYAg8hK8oYsnDAwCIJUxfAIyzIBBLHhoADIOIJVwkACCWAMBQeAhfVcSShwUAEEuYtgDcd4ilA9kqAeA9iFjClAUAYgkADIkjbJfEkofDhQEAYgkADIuIpYlslQDAe1EsYaoCALEEAIbGGWyXxJKHwQUBAGIJAAyPiCVcDAAcwtcXseQhAADEEgA8y8YdsdRslVwIAHhfiiUAMEwilnARAHCslbdL3X86AIBY4gFbJQB3JWLpIVslAPD+FEsAMInt0trEkoMPAH+24nap+08GAEMmYgkHHgDE0r/YKgGA96lYYpetEoA7FLEEACCWnuUTHAAz2C6t9161WXLAAYDVY8lWCQC8X8USu2yVANypiCUAgOnKl7FPcCYgAO8Y75n/YbMEALBqLCl+APC+FUvs8gkOwB2LWAIAOEzZIvYJzsQD4J3jvTODzRIAwGqxpPBtlQDcuYglACCUqssKsQQAsKPc2tAnOOtgAO8g76GZbJYAAFaJJUVvqwTgDkYsAQChVVteiCUTDQCwQiz5BAeAwdV7WSwBAIiltevVJAPgTkYsAQALqLLMEEsmGACgciz5BAeAQRaxhMMIQEoVlhrdfwAAGGgpGksAQHzZlxtiycQCAFSMJZ/gADDYIpZw+AAoIfOSo/vBAcCAS7FYcugcOgAQSwBg0C0l65eh7ocGACgUSyYTkwkAeWVcenQ/MAAYeCkSSw6ZQwYAYgkADL6lZftS1P2wDhcAUCCWAIA6Mi1Buh8UAM7la0EuNksOFQAglgDAIBxNli9H3Q/pMAEAiWMJAEAs8ZCtEoB7vroMX5C6HxAAIGksAUB1tktiCYcHAMQSAMCo6H920/1w8dgqAbj3iePiJxCKuOBwpwC/8xkOAEAsgYkdzygglgAAxBKY3MGzied1+VhywAEAsQQmIvBMglgCABBLgEkezyKIJQAAsQSY6PEMAmIJAEAsgckezx4glgAAxBKY8MEzB2IJAEAsgUkfPGsglgAAxBJg4sczBmIJAEAsASZ/PFuAWAIAEEtgA4BnChBLAABiCWwCwLMEYgkAQCwB32wE8AyBWAIAEEvAOJsBPDsglgAAxBIwzoYAzwyIJQAAsQSMsynAswJiCQBALAHjbAwAxBIAghrEEuBlCCCWABDSIJYAL0UAxBKAgAbEEng5AiCWAIQzIJbASxIAsQSAYAaxBHhZAoglAIQyiCXASxNALAEgkEEsAV6eAIglAGEMiCXwEgVALAEIYkAsAV6mAGIJQAgDYgnwUgUQSwAIYBBLgJcrgFgCQPgCYgm8ZAEQSwCCFxBL4GULgFgCELqAWAK8dAHEEoDABcQS4OULUMPFTwCCCYDf2SwBAIglAACxBAAglgAAxBIAgFgCABBLAABiCQBALAEAiCUAAMQSAIBYAgAQSwAAYgkAQCwBAIglAACxBAAglgAAxBIAgFgCAEAsAQCIJQAAsQQAIJYAAMQSAIBYAgAQSwAAYgkAQCwBACCWAADEEgCAWAIAEEsAAGIJAEAsAQCIJQAAsQQAIJYAAMQSAABiCQBALAEAiCUAALEEACCWAADEEgCAWAIAEEsAAGIJAACxBAAglgAAxBIAgFgCABBLAABiCQBALAEAiCUAALEEACCWAAAQSwAAYgkAQCwBAIglAACxBAAglgAAxBIAgFgCABBLAACIJQAAsQQAIJYAAMQSAIBYAgAQSwAAYgkAQCwBAIglAACxBACAWAIAEEsAAGIJAEAsAQCIJQAAsQQAIJYAAMQSAIBYAgBALAEAiCUAALEEACCWAADEEgCAWAIAEEsAAGIJAEAsAQCIJQAAxBIAgFgCABBLAABiCQBALAEAiCUAALEEACCWAADEEgCAWAIAQCwBAIglAACxBAAglgAAxBIAgFgCABBLAABiCQBALAEA8G2L+g97+3j/9N8DAGu4X29hm8RmCQBALAEAjNki/+N8igOA+iJ/gmvNZgkAYNcW/R9ouwQAdUXfKqWIJcEEAELplXyGAwDYsWX5h9ouAUAdWbZKqWJJMAGAUBJLogkARJJYEkwAIJTEkmgCAFJHUplYEk0AIJLEkngCAHEEAEA8X3QAuzuk3Kn/AAAAAElFTkSuQmCC;rounded=1;strokeWidth=2;fixDash=0;snapToPoint=0;comic=0;shadow=1;" parent="1" vertex="1">
          <mxGeometry x="430" y="370" width="57" height="48.55" as="geometry" />
        </mxCell>
        <mxCell id="5M5S_JfumDmxrn6SgT74-58" value="" style="endArrow=classic;html=1;rounded=1;labelBackgroundColor=none;fontColor=default;dashed=1;flowAnimation=1;flowAnimationTimingFunction=ease-out;flowAnimationDuration=500;metaEdit=0;noJump=0;startArrow=none;startFill=0;strokeWidth=2;fixDash=0;snapToPoint=0;comic=0;shadow=1;fillColor=#e51400;strokeColor=#B20000;dashPattern=1 1;" parent="1" edge="1">
          <mxGeometry width="50" height="50" relative="1" as="geometry">
            <mxPoint x="387.9993750000001" y="338.54999999999995" as="sourcePoint" />
            <mxPoint x="438" y="380" as="targetPoint" />
          </mxGeometry>
        </mxCell>
        <mxCell id="5M5S_JfumDmxrn6SgT74-59" value="" style="endArrow=classic;html=1;rounded=1;labelBackgroundColor=none;fontColor=default;dashed=1;flowAnimation=1;flowAnimationTimingFunction=ease-out;flowAnimationDuration=500;metaEdit=0;noJump=0;startArrow=none;startFill=0;strokeWidth=2;fixDash=0;snapToPoint=0;comic=0;shadow=1;dashPattern=1 1;fillColor=#e51400;strokeColor=#B20000;" parent="1" edge="1">
          <mxGeometry width="50" height="50" relative="1" as="geometry">
            <mxPoint x="350.0000000000002" y="338.54999999999995" as="sourcePoint" />
            <mxPoint x="299.9993750000003" y="380" as="targetPoint" />
          </mxGeometry>
        </mxCell>
        <mxCell id="68vAaI9e3U-PL37Lnpdh-1" value="" style="endArrow=classic;html=1;rounded=1;labelBackgroundColor=none;fontColor=default;dashed=1;flowAnimation=1;flowAnimationTimingFunction=ease-out;flowAnimationDuration=500;metaEdit=0;noJump=0;startArrow=none;startFill=0;strokeWidth=2;fixDash=0;snapToPoint=0;comic=0;shadow=1;fillColor=#e51400;strokeColor=#B20000;dashPattern=1 1;exitX=0.989;exitY=0.626;exitDx=0;exitDy=0;exitPerimeter=0;entryX=-0.007;entryY=0.618;entryDx=0;entryDy=0;entryPerimeter=0;" edge="1" parent="1">
          <mxGeometry width="50" height="50" relative="1" as="geometry">
            <mxPoint x="487.00300000000004" y="400.3923" as="sourcePoint" />
            <mxPoint x="610.2309999999999" y="400.00390000000004" as="targetPoint" />
          </mxGeometry>
        </mxCell>
      </root>
    </mxGraphModel>
  </diagram>
</mxfile>
